<svg width="40" height="48" viewBox="0 0 40 48" fill="none" xmlns="http://www.w3.org/2000/svg">
<path d="M32.1785 1.49172C33.7355 1.89179 35.2637 2.37475 36.7342 3.03432C37.1307 3.21453 37.5199 3.40916 37.902 3.62181C38.075 3.71913 38.1723 3.85969 38.2228 4.04711C38.7238 5.84562 39.1418 7.65854 39.4518 9.5003C39.6392 10.6068 39.7942 11.7169 39.8915 12.8378C39.942 13.4073 39.9564 13.9803 39.9708 14.5534C39.9816 14.9355 40.0105 15.3175 39.996 15.6996C39.996 15.8798 39.996 16.06 39.996 16.2402C39.996 16.6258 39.996 17.0079 39.996 17.3899C39.996 17.4945 39.996 17.599 39.996 17.7035C40.0285 20.8968 39.4951 24.0001 38.5219 27.0384C37.5236 30.1633 36.0278 33.0286 34.0887 35.6741C32.8813 37.3213 31.5153 38.8242 30.0304 40.2191C28.0372 42.0897 25.8495 43.7007 23.5212 45.1244C22.5156 45.7407 20.1404 46.9626 20.0142 47.0058C19.8521 46.9553 16.9326 45.3839 15.6567 44.5658C14.143 43.5926 12.6869 42.5402 11.3209 41.3688C10.2396 40.4425 9.2124 39.4658 8.24287 38.4206C6.72909 36.7878 5.39914 35.0218 4.26381 33.1043C2.31753 29.8245 1.06326 26.2924 0.446938 22.5296C-0.108112 18.3414 -0.223447 14.2579 0.547856 9.95803C0.857819 8.23521 1.19662 6.5196 1.63633 4.82562C1.70121 4.57333 1.7769 4.32463 1.84177 4.07234C1.90304 3.84167 2.04 3.69029 2.24905 3.57496C3.03116 3.13885 3.85653 2.78924 4.69631 2.47567C13.851 -0.663606 23.6725 -0.616751 32.1785 1.49172Z" fill="#9D834A"/>
<path d="M6.72899 3.38398C7.1615 3.16772 7.63005 3.05599 8.08778 2.91903C9.96198 2.35677 11.8722 1.97833 13.8113 1.71522C15.8657 1.4377 17.9273 1.29713 19.9997 1.30434C20.1259 1.39805 20.097 1.53862 20.097 1.66476C20.1006 2.87939 20.1006 4.09761 20.1006 5.31223C20.1006 6.49802 20.1006 7.68381 20.1006 8.8696C20.1006 8.99935 20.1115 9.1291 20.0646 9.25525C20.0214 9.37779 19.9096 9.41744 19.8051 9.46069C18.886 9.82472 18.3886 10.5131 18.2625 11.4827C18.2228 11.7962 18.1255 11.8431 17.866 11.6629C17.4984 11.407 17.0839 11.2448 16.6911 11.0393C16.637 11.0105 16.5793 10.9925 16.5253 10.96C16.4316 10.906 16.3378 10.8411 16.345 10.715C16.3559 10.5816 16.4604 10.5203 16.5757 10.4879C16.9325 10.3906 17.2713 10.4771 17.6065 10.6032C17.9742 10.7438 17.9742 10.7438 17.985 10.3473C17.9922 10.1491 18.039 9.95447 18.0318 9.75263C18.0282 9.60847 17.9778 9.51836 17.8372 9.48232C16.9866 9.25165 16.1612 9.27327 15.3791 9.7274C15.3323 9.75263 15.289 9.78868 15.2422 9.8103C15.0692 9.8968 15.0007 9.87878 14.9682 9.68776C14.9394 9.51475 14.8493 9.48232 14.7015 9.48232C14.3555 9.47871 14.0636 9.61207 13.7897 9.8067C13.5229 9.99412 13.5193 9.99412 13.3175 9.75263C13.2526 9.67694 13.1733 9.65892 13.0904 9.67334C12.6579 9.74903 12.2218 9.68415 11.7857 9.75263C11.6127 9.77786 11.5839 9.85355 11.6091 9.99412C11.7497 10.8699 11.6668 11.7458 11.6091 12.6216C11.5911 12.8739 11.6271 13.1262 11.5659 13.3749C11.5442 13.465 11.555 13.6055 11.4325 13.6055C11.3208 13.6055 11.2919 13.4758 11.2667 13.3821C11.0865 12.7513 10.9207 12.1134 10.7801 11.4718C10.5242 10.3077 10.2683 9.14352 10.0052 7.97936C9.94756 7.71625 9.92593 7.70183 9.66283 7.74148C8.98163 7.83879 8.30403 7.95052 7.62284 8.05144C7.5075 8.06946 7.43902 8.0983 7.45704 8.23526C7.52552 8.73624 7.39577 9.212 7.23358 9.67334C6.78666 10.942 6.35415 12.2179 5.84956 13.465C5.73423 13.7497 5.61889 14.0308 5.48193 14.3048C5.42066 14.4273 5.42787 14.485 5.58645 14.4814C6.07663 14.4778 6.5668 14.4778 7.05337 14.4814C7.20114 14.4814 7.27323 14.4237 7.30206 14.2759C7.34892 14.0272 7.39938 13.7822 7.48227 13.5407C7.57598 13.2631 7.65888 13.2019 7.95082 13.1983C8.19591 13.1947 8.43739 13.1911 8.68248 13.1622C9.05732 13.1154 9.16544 13.2019 9.24113 13.5659C9.28438 13.7822 9.32042 14.002 9.34926 14.2219C9.3853 14.4742 9.3853 14.4814 9.64841 14.4814C10.2611 14.485 10.8738 14.4814 11.483 14.4814C12.0416 14.4814 12.6003 14.4742 13.1589 14.485C13.3499 14.4886 13.4004 14.4309 13.4004 14.2363C13.3968 13.5659 13.3535 12.8919 13.44 12.2215C13.4941 11.7962 13.5806 11.3889 13.9266 11.0934C13.9915 11.0393 14.0564 10.9853 14.1321 10.9456C14.3916 10.8159 14.5465 10.8771 14.597 11.1619C14.6871 11.6845 15.0007 12.0197 15.4584 12.2468C15.7035 12.3693 15.9522 12.4918 16.1973 12.618C16.3198 12.6829 16.4424 12.7477 16.5397 12.8451C16.7271 13.0253 16.6875 13.2379 16.446 13.3316C16.2405 13.4109 16.0243 13.4001 15.8152 13.3424C15.4224 13.2379 15.08 13.0433 14.7808 12.7694C14.7015 12.6973 14.6294 12.6216 14.5069 12.5567C14.4853 12.8342 14.4997 13.0901 14.4961 13.346C14.4925 13.5515 14.4961 13.7605 14.4961 13.966C14.4961 14.0849 14.5393 14.175 14.6547 14.2183C15.6711 14.6075 16.6766 14.6832 17.6534 14.0957C17.9129 13.9407 18.1075 13.7137 18.2589 13.4506C18.385 13.2307 18.4824 13.2163 18.6265 13.4253C18.9329 13.8723 19.3546 14.157 19.8484 14.3552C19.9493 14.3949 20.043 14.4489 20.0718 14.5679C20.1115 14.6652 20.1006 14.7625 20.1006 14.8634C20.1006 15.9303 20.1006 17.0007 20.1006 18.0676C20.1006 18.1793 20.1151 18.2982 20.0574 18.4028C19.9925 18.5073 19.8844 18.5181 19.7763 18.5253C18.7419 18.565 17.7471 18.7776 16.8028 19.2101C16.4532 19.3687 16.1216 19.5597 15.8008 19.7652C15.599 19.8949 15.3935 19.9526 15.1521 19.9526C13.04 19.949 10.9279 19.9706 8.81944 19.9382C8.08057 19.9273 7.61202 20.2481 7.31287 20.8717C7.19754 21.1131 7.04977 21.2501 6.78666 21.3222C6.24242 21.47 5.86398 22.0106 5.88921 22.5404C5.91444 23.1243 6.3145 23.6253 6.88037 23.737C7.13987 23.7875 7.30206 23.9208 7.42821 24.1371C7.594 24.4182 7.82467 24.6417 8.13103 24.7714C8.25718 24.8255 8.39054 24.8615 8.5311 24.8615C9.68445 24.8435 10.8414 24.8579 11.9948 24.8543C12.3624 24.8543 12.4201 24.9012 12.384 25.2652C12.3083 26.0221 12.3227 26.7754 12.4561 27.525C12.503 27.7809 12.3588 27.9431 12.1858 28.0981C11.5839 28.6424 10.9712 29.1686 10.3152 29.6479C9.51145 30.2354 8.68969 30.7941 7.80305 31.2482C7.43542 31.4392 7.3309 31.4032 7.1651 31.0103C6.44426 29.3344 5.89281 27.6043 5.49995 25.8202C5.22603 24.5804 5.02059 23.3297 4.89084 22.0683C4.80073 21.1636 4.74667 20.2589 4.69981 19.3507C4.65656 18.5073 4.64936 17.6675 4.67819 16.8277C4.71063 15.8762 4.75748 14.9211 4.84038 13.9696C4.96292 12.5459 5.13232 11.1294 5.35578 9.71659C5.64052 7.88925 6.00094 6.07633 6.42984 4.27782C6.46949 4.10842 6.50913 3.93542 6.54878 3.76242C6.57761 3.62906 6.63168 3.49571 6.72899 3.38398Z" fill="#ED1E25"/>
<path d="M19.9963 9.28768C19.9963 6.62416 19.9963 3.96425 19.9963 1.30073C21.2074 1.29713 22.4184 1.34398 23.6258 1.43409C24.8801 1.5278 26.1307 1.67557 27.3742 1.8702C28.7077 2.07924 30.0233 2.36398 31.3244 2.7244C31.8975 2.88298 32.4669 3.05599 33.0292 3.24341C33.1445 3.28305 33.2671 3.30468 33.3608 3.38757C33.4653 3.49931 33.5014 3.63627 33.5374 3.77683C34.0132 5.69788 34.4024 7.63695 34.7196 9.58683C34.8998 10.7005 35.044 11.8214 35.1521 12.946C35.2314 13.7605 35.2926 14.5715 35.3395 15.386C35.4008 16.4529 35.4296 17.5233 35.426 18.5938C35.426 18.9218 35.3647 19.2461 35.3719 19.5777C35.3755 19.7471 35.2674 19.8408 35.098 19.8553C35.0151 19.8625 34.9286 19.8589 34.8457 19.8589C31.4578 19.8589 28.0698 19.8589 24.6782 19.8625C24.4079 19.8625 24.1736 19.7976 23.943 19.657C22.9302 19.0371 21.8345 18.6587 20.6451 18.5686C20.4937 18.5577 20.3423 18.5253 20.191 18.5217C20.1117 18.5217 20.0396 18.5001 19.9963 18.4244C19.9963 17.1233 19.9963 15.8185 19.9999 14.5174C20.1333 14.4057 20.2847 14.4742 20.418 14.4922C21.2326 14.6147 21.9426 14.3913 22.5698 13.865C22.5878 13.8506 22.6022 13.8326 22.6238 13.8218C22.6851 13.7785 22.7536 13.7173 22.8293 13.7533C22.923 13.793 22.9122 13.8903 22.9085 13.9732C22.8689 14.5787 22.8797 14.4742 23.3879 14.4814C23.8096 14.4886 24.2277 14.4778 24.6494 14.485C24.826 14.4886 24.8765 14.4201 24.8476 14.2471C24.7251 13.4686 24.6782 12.6829 24.6782 11.8971C24.6782 11.7133 24.6746 11.5295 24.6566 11.3493C24.6242 11.0321 24.7827 10.8123 25.0495 10.769C25.2333 10.7366 25.363 10.8051 25.4387 10.9745C25.4784 11.0574 25.5 11.1475 25.5036 11.2412C25.5504 12.2576 25.5829 13.2739 25.536 14.2903C25.5288 14.4345 25.5757 14.4886 25.709 14.4886C26.2208 14.4922 26.7326 14.4886 27.248 14.4922C27.4102 14.4922 27.4427 14.4093 27.4246 14.2723C27.4066 14.1318 27.3345 13.9371 27.4823 13.8723C27.6409 13.8038 27.6986 14.02 27.7923 14.1173C28.0337 14.3732 28.3365 14.503 28.6717 14.5787C29.1078 14.676 29.5223 14.6039 29.9152 14.4057C30.0701 14.3264 30.2143 14.2975 30.3585 14.4345C30.4233 14.4958 30.5135 14.4922 30.6 14.4922C31.7173 14.4958 32.8346 14.4922 33.9519 14.4958C34.1177 14.4958 34.1898 14.4561 34.1465 14.2687C33.9303 13.2812 33.8654 12.272 33.7284 11.2736C33.5915 10.2897 33.4761 9.3057 33.3572 8.31815C33.3392 8.17037 33.2743 8.08748 33.1193 8.05864C32.6544 7.97214 32.1858 7.90006 31.7209 7.80274C31.5659 7.77031 31.5118 7.82077 31.5443 7.98656C31.8038 9.20839 31.9011 10.4482 32.0344 11.6845C32.1137 12.4198 32.2255 13.155 32.211 13.8975C32.2074 14.0308 32.2543 14.2255 32.0921 14.2507C31.9623 14.2687 31.9263 14.0777 31.8831 13.9551C31.7389 13.5154 31.7028 13.0577 31.656 12.6036C31.6091 12.1494 31.6019 11.6881 31.5118 11.2376C31.3352 10.3653 30.7009 9.83192 29.7566 9.71659C29.1583 9.6445 28.5672 9.66973 27.9761 9.75984C27.6445 9.81029 27.6517 9.82111 27.6553 10.1455C27.6589 10.4302 27.7058 10.7077 27.713 10.9925C27.7166 11.2015 27.7562 11.2195 27.9436 11.1114C28.1022 11.0213 28.268 10.9384 28.4338 10.8591C28.6897 10.7402 28.96 10.7077 29.2412 10.7294C29.3096 10.733 29.3781 10.7474 29.443 10.7726C29.5655 10.8267 29.6917 10.9024 29.6917 11.0465C29.6881 11.2015 29.5331 11.2087 29.4178 11.2376C28.8807 11.3745 28.3581 11.5439 27.94 11.9332C27.7995 12.0629 27.6841 12.2143 27.5724 12.3729C27.5183 12.4486 27.4643 12.5459 27.3598 12.5171C27.2588 12.4882 27.248 12.3765 27.2552 12.2864C27.2733 11.8791 27.2084 11.479 27.2048 11.0718C27.1904 9.67333 25.9613 9.23362 24.981 9.63729C24.8837 9.67694 24.79 9.73461 24.689 9.76704C24.5989 9.79948 24.4908 9.8175 24.4367 9.731C24.2926 9.50033 24.0583 9.52196 23.8456 9.50033C23.5501 9.4715 23.251 9.50393 22.9554 9.45348C22.7788 9.42104 22.7319 9.51114 22.7536 9.68054C22.7896 9.95086 22.8725 10.2176 22.8401 10.4987C22.8148 10.5564 22.8112 10.6285 22.7355 10.6501C22.6166 10.6321 22.5842 10.5311 22.5445 10.441C22.1156 9.51114 21.2758 9.22281 20.3207 9.32733C20.2126 9.33454 20.0937 9.39581 19.9963 9.28768Z" fill="#CB2127"/>
<path d="M19.9998 18.4244C21.5316 18.4532 22.9445 18.8641 24.224 19.7111C24.3105 19.7688 24.3934 19.7652 24.4835 19.7652C28.0156 19.7688 31.5513 19.7688 35.0835 19.776C35.2385 19.776 35.2817 19.7435 35.2925 19.5777C35.3826 17.8189 35.3178 16.06 35.188 14.3048C35.033 12.2576 34.7555 10.2248 34.3843 8.20282C34.0923 6.61336 33.7571 5.03831 33.3679 3.47048C33.3607 3.44164 33.3679 3.4092 33.3643 3.38037C33.6634 3.50652 33.9878 3.56058 34.2653 3.74079C34.359 3.8345 34.4095 3.94984 34.4419 4.07959C34.8925 5.95018 35.2925 7.83158 35.5989 9.73461C35.7755 10.8483 35.9305 11.9692 36.035 13.0937C36.1107 13.9299 36.172 14.7661 36.2188 15.6059C36.2945 16.9142 36.2368 18.2189 36.2512 19.5273C36.2548 19.7111 36.2585 19.9129 36.1143 20.0679C35.8548 20.0715 35.5953 20.0751 35.3358 20.0751C31.8577 20.0751 28.376 20.0715 24.898 20.0715C24.8259 20.0715 24.7466 20.0499 24.7358 20.0427C24.9989 20.3382 25.2476 20.6446 25.5215 20.9257C26.6496 22.0899 27.2803 23.4955 27.5326 25.0814C27.5435 25.1427 27.5579 25.2003 27.5651 25.2616C27.5759 25.3445 27.5795 25.4022 27.6984 25.3805C28.5743 25.24 29.4465 25.0922 30.2935 24.8363C30.726 24.7065 31.0035 24.4362 31.1224 24.0001C31.1513 23.8884 31.1801 23.8019 31.3387 23.7947C32.766 23.7334 34.1932 23.6577 35.6241 23.5856C35.6602 23.582 35.6998 23.5928 35.7358 23.6C35.8259 23.6829 35.7863 23.7875 35.7719 23.8812C35.4872 25.5896 35.0655 27.2655 34.4888 28.8983C34.0635 30.0985 33.5697 31.2662 32.9894 32.3943C31.9838 34.3478 30.762 36.1572 29.3456 37.8367C28.7653 38.5287 28.1562 39.1955 27.5146 39.8298C25.6945 41.632 23.7086 43.2394 21.564 44.6415C21.2757 44.8289 20.9802 45.0055 20.6774 45.1677C20.6053 45.2146 20.526 45.247 20.4539 45.2938C20.3314 45.3659 20.2089 45.4164 19.9926 45.5209C19.8556 45.4452 19.7115 45.3587 19.5781 45.2975C17.7976 44.2811 16.1757 43.0484 14.6151 41.7293C13.5843 40.8534 12.604 39.92 11.6849 38.9252C10.5604 37.7106 9.53676 36.4167 8.62129 35.0398C8.2897 34.5425 7.97253 34.0379 7.68419 33.5153C7.62653 33.4107 7.53642 33.3134 7.59409 33.1765C8.47352 32.9602 9.35295 32.7403 10.2108 32.4412C11.3749 32.0339 12.4886 31.5257 13.5266 30.8553C13.6564 30.7724 13.7032 30.722 13.5951 30.567C13.0581 29.7957 12.6832 28.9487 12.449 28.0368C12.3408 28.0477 12.2976 28.1414 12.2363 28.2026C10.7045 29.72 8.92765 30.877 6.98137 31.7852C6.94533 31.7996 6.90929 31.8105 6.87324 31.8213C6.7471 31.7816 6.70745 31.6735 6.65699 31.569C5.74512 29.6551 5.07834 27.662 4.6134 25.5968C4.33948 24.3894 4.14125 23.1711 4.00789 21.9385C3.91058 21.0519 3.86372 20.1616 3.81687 19.2678C3.77001 18.4208 3.76641 17.5702 3.79164 16.7232C3.82047 15.7861 3.87093 14.849 3.95022 13.9155C4.05474 12.6901 4.20252 11.4718 4.38273 10.2572C4.57015 8.98133 4.80803 7.71264 5.07834 6.45117C5.24774 5.66905 5.42435 4.88693 5.61898 4.10842C5.65141 3.97507 5.67664 3.83811 5.79558 3.748C6.07671 3.56779 6.4047 3.50291 6.71466 3.38758C6.51643 4.27782 6.31099 5.16806 6.11636 6.06191C5.78117 7.60452 5.50725 9.15794 5.28378 10.7222C4.90174 13.4001 4.6963 16.0852 4.75396 18.792C4.82605 22.198 5.31262 25.5391 6.39749 28.7793C6.67141 29.6011 6.98858 30.4084 7.33098 31.205C7.39225 31.3455 7.44632 31.3419 7.56525 31.2806C9.28807 30.3616 10.8415 29.2154 12.2652 27.8855C12.3661 27.7918 12.3769 27.698 12.3553 27.5791C12.1931 26.7682 12.1859 25.9536 12.294 25.139C12.3156 24.9733 12.2652 24.966 12.1354 24.966C10.9208 24.9733 9.70256 24.9841 8.48794 24.9769C8.10228 24.9733 7.7707 24.7894 7.54723 24.4795C7.29854 24.1335 7.05706 23.8704 6.59932 23.7442C6.01544 23.5856 5.71989 22.9621 5.79558 22.3566C5.87127 21.7475 6.30378 21.2897 6.9165 21.196C7.04985 21.1744 7.0895 21.1023 7.13275 21.0014C7.35261 20.4968 7.64815 20.0679 8.21041 19.8913C8.35458 19.8444 8.49514 19.8553 8.63931 19.8553C10.8667 19.8553 13.0905 19.8553 15.3179 19.8553C15.4116 19.8553 15.4981 19.8481 15.5774 19.794C16.9182 18.8749 18.3959 18.4424 19.9998 18.4244Z" fill="white"/>
<path d="M5.80993 3.74792C5.52159 5.00219 5.22244 6.25286 4.97375 7.51794C4.65298 9.16507 4.38987 10.823 4.19885 12.4918C3.96818 14.5318 3.84924 16.5753 3.89609 18.6261C3.97538 22.2808 4.54125 25.8526 5.81354 29.2982C6.13071 30.156 6.49834 30.9922 6.88038 31.8212C6.43707 32.0591 5.96131 32.2285 5.49636 32.4231C5.3594 32.4808 5.32336 32.3798 5.2729 32.297C4.88725 31.6194 4.53043 30.9273 4.19885 30.2245C2.9662 27.5934 2.16246 24.829 1.74077 21.96C1.39476 19.6173 1.31186 17.2601 1.43801 14.8958C1.61462 11.533 2.22013 8.24239 3.10677 4.99859C3.15723 4.80757 3.24733 4.70665 3.43115 4.63456C4.22047 4.33181 5.00259 4.01103 5.80993 3.74792Z" fill="#29367A"/>
<path d="M36.1143 20.0715C36.2081 18.4676 36.2008 16.8601 36.1107 15.2563C36.0278 13.8074 35.8765 12.3621 35.6746 10.924C35.3394 8.54881 34.8637 6.20607 34.2834 3.88134C34.2726 3.83809 34.2726 3.79124 34.2654 3.74438C35.0907 4.02551 35.8981 4.34269 36.709 4.65986C36.8388 4.71032 36.9001 4.786 36.9361 4.91576C37.5777 7.25129 38.0786 9.61566 38.3742 12.0197C38.6013 13.865 38.713 15.7176 38.6805 17.5738C38.6661 18.3523 38.6337 19.1308 38.558 19.9093C38.5472 20.0102 38.5436 20.0823 38.4102 20.0823C37.6425 20.0751 36.8784 20.0751 36.1143 20.0715Z" fill="#29367A"/>
<path d="M20.4216 45.3262C22.0003 44.3062 23.7555 43.052 25.1936 41.8409C29.2412 38.435 32.3696 34.3622 34.2294 29.3703C34.9106 27.543 35.4008 25.6652 35.7071 23.7405C35.7143 23.6937 35.7252 23.6504 35.736 23.6072C36.1072 23.582 36.482 23.5567 36.8533 23.5351C37.1957 23.5171 37.5417 23.5063 37.8841 23.4846C38.0246 23.4774 38.0499 23.5207 38.021 23.6576C37.2822 27.2402 35.9486 30.585 33.9555 33.6594C32.2218 36.3301 30.099 38.6476 27.6445 40.6732C25.518 42.4284 23.2113 43.899 20.7748 45.1784C20.7532 45.1893 20.5982 45.283 20.4216 45.3262Z" fill="#29367A"/>
<path d="M7.60481 33.1764C8.40855 34.6541 9.36367 36.0309 10.4233 37.3393C12.8562 40.3344 15.7756 42.7744 18.9869 44.8793C19.1924 45.0126 19.3726 45.1244 19.5888 45.3046C19.2104 45.1784 18.8752 44.9586 18.5292 44.7712C15.8585 43.3115 13.3607 41.5995 11.1117 39.5414C9.19066 37.779 7.50389 35.8219 6.09103 33.6305C6.05859 33.5801 6.00814 33.5368 6.01534 33.4575C6.54516 33.3638 7.07499 33.2701 7.60481 33.1764Z" fill="#29367A"/>
<path d="M22.7571 10.4879C22.7462 10.1743 22.6922 9.86436 22.6309 9.55801C22.5985 9.40302 22.6237 9.32734 22.8003 9.34175C23.2869 9.37779 23.7771 9.40302 24.2636 9.42825C24.3429 9.43186 24.397 9.45348 24.4186 9.53278C24.4727 9.75624 24.5808 9.71659 24.743 9.62649C25.1431 9.40663 25.572 9.32373 26.0261 9.41384C26.7974 9.57242 27.2732 10.1455 27.2984 10.9348C27.3056 11.1943 27.3308 11.4538 27.338 11.7133C27.3452 11.962 27.338 12.2107 27.3705 12.4666C27.6156 12.0413 27.9399 11.7241 28.358 11.5007C28.7653 11.2844 29.2014 11.1619 29.67 11.0754C29.569 10.8844 29.4321 10.8195 29.2519 10.8015C28.7905 10.7582 28.4013 10.9384 28.0228 11.1655C27.6156 11.4106 27.6408 11.4502 27.6155 10.942C27.6011 10.614 27.5687 10.2861 27.5363 9.96168C27.5254 9.83913 27.5182 9.73822 27.6804 9.70578C28.5454 9.54359 29.4105 9.47511 30.2647 9.7274C31.1116 9.97609 31.591 10.6321 31.6631 11.5439C31.7244 12.2972 31.7424 13.0541 31.9334 13.7894C31.9694 13.9299 32.0127 14.0669 32.11 14.2327C32.11 13.9047 32.1316 13.62 32.1064 13.3424C32.0163 12.4017 31.9046 11.461 31.8073 10.5203C31.7136 9.60126 31.6126 8.68578 31.3928 7.78473C31.3639 7.66579 31.4 7.63696 31.5225 7.66219C32.0848 7.76671 32.647 7.86763 33.2129 7.96134C33.3607 7.98656 33.4219 8.06225 33.44 8.19921C33.5193 8.84437 33.5986 9.48592 33.6779 10.1311C33.7788 10.9348 33.8869 11.735 33.977 12.5387C34.0491 13.1839 34.1284 13.8254 34.2906 14.4561C34.3338 14.6183 34.2185 14.5715 34.15 14.5751C33.6742 14.5787 33.2021 14.5787 32.7263 14.5787C31.9911 14.5787 31.2558 14.5787 30.5242 14.5787C30.4052 14.5787 30.2935 14.5823 30.2394 14.4453C30.1818 14.3012 30.1025 14.4057 30.0412 14.4417C29.5222 14.7481 28.9743 14.7805 28.4049 14.6075C28.0192 14.4886 27.7165 14.2543 27.493 13.8506C27.4534 14.0849 27.5327 14.2651 27.5327 14.4489C27.5327 14.5535 27.5038 14.5823 27.4065 14.5787C26.7866 14.5751 26.1667 14.5751 25.5467 14.5787C25.4314 14.5787 25.4026 14.5282 25.4098 14.4237C25.5143 13.3713 25.4314 12.3152 25.4026 11.2628C25.4026 11.2015 25.3953 11.1403 25.3809 11.0826C25.3521 10.9637 25.3197 10.8231 25.1611 10.8339C25.0061 10.8447 24.8295 10.8591 24.7718 11.0538C24.7502 11.1258 24.7286 11.2051 24.7322 11.2772C24.7862 12.3224 24.7574 13.3713 24.9556 14.4057C24.9881 14.5679 24.9376 14.5823 24.8043 14.5823C24.1843 14.5787 23.5644 14.5787 22.9445 14.5823C22.8147 14.5823 22.7499 14.5715 22.7751 14.4093C22.8075 14.2111 22.8039 14.0056 22.8147 13.7605C22.6994 13.865 22.6129 13.9479 22.5192 14.0236C21.8344 14.5931 21.0415 14.712 20.1909 14.5607C20.1224 14.5499 20.0575 14.5354 19.989 14.521C19.3294 14.3084 18.778 13.9479 18.4356 13.31C17.8733 14.2903 16.9002 14.7481 15.7793 14.6003C15.3828 14.5462 15.0008 14.4633 14.6259 14.33C14.4421 14.2651 14.3664 14.1714 14.3736 13.9624C14.3917 13.4289 14.3809 12.8955 14.3809 12.2936C14.5719 12.4702 14.7052 12.6 14.8458 12.7189C15.2351 13.0433 15.6495 13.3064 16.183 13.292C16.2442 13.292 16.3055 13.2884 16.3632 13.2704C16.4569 13.2451 16.565 13.2163 16.583 13.0973C16.5974 12.9892 16.5146 12.9352 16.4389 12.8811C16.1758 12.6937 15.873 12.5819 15.5919 12.4306C15.4441 12.3513 15.2927 12.2792 15.1486 12.1891C14.7557 11.9404 14.5214 11.5872 14.489 11.1222C14.4746 10.9276 14.3845 10.9276 14.2511 10.9817C13.952 11.1078 13.7609 11.3349 13.6492 11.634C13.5122 12.0053 13.4834 12.3945 13.4762 12.7838C13.4654 13.3424 13.4293 13.9011 13.5086 14.4561C13.523 14.5499 13.487 14.5823 13.3969 14.5787C13.3573 14.5751 13.3212 14.5787 13.2816 14.5787C12.0273 14.5787 10.773 14.5751 9.51876 14.5823C9.30251 14.5859 9.25205 14.5102 9.23763 14.312C9.216 14.0092 9.14392 13.7101 9.09706 13.4073C9.07544 13.2776 9.00696 13.2379 8.87721 13.2451C8.50958 13.2667 8.14555 13.2812 7.77792 13.2884C7.65898 13.292 7.62294 13.3496 7.5941 13.447C7.5004 13.7605 7.41389 14.0777 7.36343 14.4021C7.34902 14.4814 7.34541 14.5751 7.22647 14.5751C6.57051 14.5751 5.91454 14.5751 5.22974 14.5751C5.55051 13.9335 5.81002 13.2992 6.04789 12.6576C6.46598 11.5259 6.89849 10.4014 7.2445 9.24444C7.35262 8.88762 7.43191 8.51639 7.32379 8.14155C7.28414 7.99738 7.38506 7.99017 7.47156 7.97575C7.99057 7.89286 8.51318 7.81717 9.03219 7.73787C9.2953 7.69823 9.56201 7.673 9.82512 7.61893C9.9801 7.5865 10.0161 7.63335 10.0486 7.77752C10.3766 9.25885 10.7045 10.7402 11.0433 12.2215C11.1479 12.6721 11.2776 13.119 11.4146 13.5623C11.5227 13.1478 11.5119 12.7225 11.5299 12.3044C11.5587 11.6485 11.6344 10.9925 11.5443 10.3365C11.5191 10.1635 11.5083 9.98691 11.4722 9.81751C11.447 9.70217 11.4759 9.66974 11.5876 9.66253C12.1138 9.6373 12.64 9.61207 13.1662 9.57242C13.3176 9.56161 13.3969 9.61207 13.4149 9.75624C13.4402 9.95087 13.5194 9.8932 13.6168 9.8067C13.8907 9.57242 14.197 9.40663 14.5647 9.38861C15.0116 9.36698 15.0188 9.37419 15.0512 9.83913C15.3252 9.61207 15.6099 9.44267 15.9415 9.36338C16.6011 9.20119 17.257 9.20479 17.9094 9.39942C18.0536 9.44267 18.1184 9.51475 18.1076 9.67694C18.0824 10.0338 18.0716 10.3942 18.068 10.7546C18.0644 10.9204 18.0067 10.9024 17.8914 10.8447C17.5562 10.6753 17.2138 10.5275 16.8245 10.5347C16.7777 10.5347 16.7308 10.5311 16.6876 10.542C16.5686 10.5636 16.41 10.578 16.3884 10.7078C16.3668 10.8411 16.529 10.8591 16.6263 10.9096C17.1201 11.1763 17.6643 11.3529 18.1292 11.753C18.2049 10.4951 18.7924 9.65532 19.989 9.28769C20.4035 9.19038 20.8144 9.17596 21.2325 9.26606C21.9894 9.43186 22.4507 9.91122 22.7066 10.6213C22.7318 10.6393 22.7499 10.6609 22.7607 10.6897C22.7679 10.7078 22.7679 10.7186 22.7643 10.7186C22.7499 10.6465 22.8039 10.5672 22.7571 10.4879Z" fill="#9D834A"/>
<path d="M22.7571 10.4878C22.8184 10.5851 22.804 10.6896 22.786 10.8482C22.7535 10.7401 22.7319 10.6788 22.7139 10.6175C22.7607 10.5851 22.7499 10.5346 22.7571 10.4878Z" fill="#BA4A2C"/>
<path d="M19.9999 33.9117C21.3875 33.8756 22.6995 33.5513 23.8925 32.8232C25.918 31.5834 27.1579 29.7993 27.5796 27.4529C27.6733 26.9375 27.7021 26.4221 27.6769 25.8995C27.6697 25.7589 27.7021 25.7049 27.8535 25.676C28.7221 25.5138 29.5835 25.3336 30.4305 25.0777C30.8774 24.9444 31.2307 24.7065 31.3892 24.2452C31.4181 24.1551 31.4685 24.119 31.5694 24.1118C32.6075 24.0577 33.6455 24.0037 34.6835 23.9388C34.9466 23.9208 34.8349 24.0938 34.8205 24.1839C34.6438 25.1823 34.4348 26.1734 34.1681 27.1502C33.195 30.7364 31.5803 34.0054 29.3132 36.9536C27.9256 38.7558 26.3433 40.3668 24.6097 41.8338C23.2221 43.0087 21.7516 44.0756 20.2162 45.0487C20.1549 45.0812 20.1873 45.0667 19.9999 45.1424C19.9206 45.0307 19.9026 44.9082 19.9026 44.7748C19.9026 41.2679 19.9026 37.761 19.9062 34.2505C19.9026 34.1315 19.8882 34.0018 19.9999 33.9117Z" fill="#CB2127"/>
<path d="M27.2876 26.1734C27.2804 30.2282 23.9898 33.5044 19.935 33.4936C15.9055 33.4828 12.6437 30.2029 12.6509 26.1626C12.6545 22.097 15.9343 18.8316 19.9963 18.8424C24.0294 18.8569 27.2948 22.1403 27.2876 26.1734Z" fill="#9D834A"/>
<path d="M19.9998 33.9117C19.9998 37.6565 19.9998 41.3977 19.9998 45.1425C17.5237 43.5638 15.2134 41.7797 13.1554 39.6785C11.3208 37.8079 9.74579 35.7427 8.4699 33.454C8.37979 33.2954 8.36177 33.2233 8.57442 33.1728C10.4162 32.7223 12.1606 32.0447 13.7357 30.9743C13.8366 30.9058 13.8798 30.9274 13.9519 31.0175C15.1197 32.4448 16.6082 33.3567 18.4103 33.7423C18.9293 33.8576 19.4628 33.9045 19.9998 33.9117Z" fill="#ED1E25"/>
<path d="M15.1305 20.1219C14.5394 20.6193 14.0565 21.1275 13.6492 21.7042C13.0581 22.544 12.6436 23.463 12.4274 24.4686C12.3877 24.6488 12.3301 24.7281 12.121 24.7245C10.9496 24.7137 9.78187 24.7209 8.6105 24.7173C8.26449 24.7173 7.97976 24.5587 7.74188 24.3172C7.62294 24.1983 7.51121 24.0686 7.44273 23.9136C7.34181 23.6757 7.24089 23.5387 6.91652 23.5423C6.40472 23.5495 6.01906 23.0017 6.05871 22.4611C6.10196 21.8736 6.51284 21.4627 7.05708 21.4843C7.17602 21.4879 7.21206 21.4555 7.2481 21.351C7.30577 21.1708 7.38867 20.9942 7.49319 20.8356C7.80315 20.367 8.19962 20.1075 8.80152 20.1111C10.8055 20.1327 12.8094 20.1183 14.8134 20.1183C14.8927 20.1219 14.9756 20.1219 15.1305 20.1219Z" fill="#9D834A"/>
<path d="M11.3029 14.2542C10.7479 14.2542 10.2181 14.2506 9.69184 14.2578C9.56569 14.2578 9.56569 14.1822 9.55128 14.0993C9.49001 13.7605 9.42153 13.4253 9.37107 13.0865C9.34944 12.9495 9.29177 12.9171 9.16202 12.9243C8.6286 12.9459 8.09157 12.9603 7.55814 12.9675C7.4392 12.9675 7.40316 13.0252 7.37072 13.1189C7.25899 13.4361 7.15087 13.7533 7.0968 14.0848C7.07518 14.211 7.02832 14.2614 6.88776 14.2578C6.52373 14.247 6.15971 14.2542 5.76685 14.2542C6.066 13.5658 6.33631 12.8955 6.57419 12.2143C6.93822 11.169 7.35631 10.1454 7.62302 9.07137C7.67708 8.85512 7.71312 8.63526 7.69871 8.4154C7.6915 8.30728 7.73475 8.26763 7.83567 8.25321C8.42676 8.17753 9.01785 8.09823 9.60534 8.01534C9.7459 7.99371 9.78195 8.05859 9.81078 8.18473C10.1424 9.66607 10.474 11.1474 10.8164 12.6251C10.9425 13.1658 11.1047 13.6956 11.3029 14.2542Z" fill="white"/>
<path d="M24.3321 10.4122C24.6998 9.9905 25.1251 9.74902 25.6657 9.74902C26.4586 9.74902 26.938 10.2068 26.9776 10.9961C27.0209 11.9043 27.0245 12.8162 27.1146 13.7209C27.1182 13.7497 27.1182 13.7821 27.1182 13.811C27.1579 14.2507 27.1579 14.2507 26.7037 14.2507C26.4442 14.2507 26.1847 14.2471 25.9252 14.2543C25.8027 14.2579 25.7702 14.2183 25.7738 14.0957C25.8135 13.1766 25.7774 12.2612 25.7342 11.3457C25.7306 11.2484 25.7234 11.1475 25.709 11.0501C25.6477 10.6825 25.4639 10.5023 25.1539 10.4879C24.8331 10.4735 24.5376 10.6861 24.4547 11.0033C24.4295 11.1042 24.415 11.2159 24.4223 11.3205C24.4619 12.2431 24.4475 13.1694 24.5808 14.0885C24.5989 14.2219 24.5556 14.2579 24.4259 14.2579C24.0438 14.2507 23.6618 14.2507 23.2797 14.2579C23.1572 14.2615 23.1283 14.2219 23.1355 14.0993C23.204 12.809 23.1824 11.5151 23.0707 10.2284C23.0707 10.2212 23.0707 10.214 23.0707 10.2068C23.0526 10.0482 22.9625 9.8175 23.0346 9.74902C23.1464 9.63729 23.3662 9.70937 23.5392 9.72379C24.3321 9.77785 24.1375 9.59764 24.3321 10.4122Z" fill="white"/>
<path d="M18.4717 11.7674C18.4645 10.6861 19.1205 9.80308 20.1982 9.56881C21.3587 9.32012 22.267 9.90761 22.5157 11.0718C22.6166 11.5367 22.613 11.5331 22.1697 11.6953C21.4885 11.9404 20.8109 12.1999 20.1261 12.4378C19.9531 12.499 19.9495 12.5675 20.0143 12.7153C20.4216 13.6452 21.2974 13.8795 22.1156 13.2739C22.1769 13.2271 22.2634 13.0721 22.3391 13.2451C22.3967 13.3821 22.6923 13.4686 22.4472 13.6848C21.6543 14.3768 20.7532 14.4742 19.8125 14.0921C18.843 13.7065 18.4681 12.9063 18.4717 11.7674Z" fill="white"/>
<path d="M27.9398 10.8519C27.9254 10.6536 27.9038 10.495 27.9002 10.3365C27.8858 9.92918 27.8389 10.0193 28.203 9.95441C28.7868 9.85349 29.3743 9.84268 29.9546 9.97603C30.8304 10.1743 31.2593 10.6969 31.3422 11.5907C31.4107 12.344 31.4215 13.1009 31.6125 13.8398C31.6486 13.9731 31.6882 14.1029 31.7279 14.2506C31.3422 14.2506 30.9782 14.247 30.6106 14.2542C30.4952 14.2578 30.4736 14.1786 30.4448 14.0993C30.4123 14.0128 30.3835 13.9263 30.3511 13.8398C30.3222 13.8289 30.3006 13.847 30.2754 13.8686C29.7636 14.3696 29.1473 14.4525 28.4913 14.2542C27.6479 13.9983 27.3415 12.9675 27.9038 12.2863C28.3039 11.8034 28.8697 11.6087 29.45 11.4538C29.605 11.4141 29.7636 11.3817 29.9222 11.3709C30.0591 11.3637 30.0627 11.2988 30.0519 11.1943C29.9943 10.65 29.5077 10.3437 28.8733 10.4554C28.5526 10.5203 28.2606 10.6608 27.9398 10.8519Z" fill="white"/>
<path d="M14.7088 13.0108C15.1016 13.3171 15.4765 13.5442 15.9198 13.6343C16.1433 13.6812 16.3631 13.6559 16.5686 13.5658C16.7632 13.4829 16.8965 13.3424 16.9218 13.1225C16.947 12.8991 16.8389 12.7333 16.6551 12.6287C16.3054 12.4233 15.9558 12.2215 15.5954 12.0413C15.1521 11.8178 14.8169 11.5295 14.8349 10.978C14.8529 10.4121 15.1953 10.0517 15.6531 9.82466C16.291 9.50749 16.9794 9.50748 17.6678 9.66967C17.7615 9.6913 17.7976 9.73815 17.7868 9.83186C17.7832 9.84628 17.7868 9.8607 17.7868 9.87872C17.7796 10.0445 17.83 10.268 17.7435 10.3653C17.6462 10.4734 17.4696 10.2932 17.3146 10.2644C16.9938 10.2067 16.6803 10.1743 16.3667 10.304C16.1937 10.3761 16.064 10.4914 16.0495 10.6897C16.0351 10.8879 16.136 11.0321 16.3054 11.1186C16.5758 11.2555 16.8569 11.3781 17.1308 11.5114C17.2822 11.5835 17.4336 11.6556 17.5741 11.7493C18.3815 12.2683 18.3851 13.3352 17.5813 13.8686C17.0047 14.2506 16.3559 14.3119 15.6891 14.247C15.408 14.2182 15.1305 14.1677 14.8638 14.0704C14.7484 14.0308 14.6944 13.9695 14.7016 13.8362C14.7196 13.5694 14.7088 13.3135 14.7088 13.0108Z" fill="white"/>
<path d="M33.9084 14.2542C33.4579 14.2542 33.0362 14.2506 32.6181 14.2578C32.4992 14.2578 32.4631 14.2254 32.4595 14.1029C32.3838 12.2395 32.1387 10.3941 31.8937 8.54515C31.8901 8.52353 31.8901 8.4983 31.8865 8.47667C31.8108 8.03696 31.8108 8.03335 32.2433 8.10904C32.4703 8.14869 32.6902 8.20996 32.9173 8.22798C33.0939 8.2424 33.1407 8.3289 33.1623 8.48388C33.2993 9.64444 33.4435 10.8014 33.5876 11.962C33.6814 12.7224 33.7246 13.4865 33.9084 14.2542Z" fill="white"/>
<path d="M13.206 10.7077C13.3682 10.5167 13.5016 10.3581 13.6385 10.2067C13.7575 10.077 13.8944 9.96885 14.053 9.88235C14.2512 9.77423 14.4891 9.63006 14.6729 9.73097C14.8099 9.80666 14.6982 10.0806 14.7054 10.268C14.709 10.3149 14.6909 10.3581 14.6946 10.405C14.7054 10.5636 14.6585 10.6176 14.4783 10.6248C13.9413 10.6428 13.5953 10.9564 13.3826 11.4322C13.1844 11.8755 13.1808 12.3548 13.1628 12.827C13.1447 13.2451 13.1519 13.6668 13.1592 14.0885C13.1628 14.2182 13.1267 14.2579 12.9934 14.2543C12.6113 14.2471 12.2293 14.2471 11.8472 14.2543C11.7283 14.2543 11.6994 14.2326 11.7139 14.0993C11.858 13.036 11.8797 11.9656 11.9085 10.8987C11.9157 10.6392 11.8833 10.3797 11.8508 10.1238C11.8364 10.0085 11.858 9.97606 11.9698 9.97246C12.305 9.96525 12.6438 9.95444 12.9789 9.93642C13.1123 9.92921 13.1447 9.98687 13.1664 10.1058C13.2024 10.2932 13.206 10.4843 13.206 10.7077Z" fill="white"/>
<path d="M22.8401 13.3424C22.6851 13.1442 22.5625 13 22.4544 12.8486C22.3679 12.7261 22.303 12.708 22.1913 12.8234C21.9714 13.0396 21.7155 13.2054 21.4056 13.2739C21.0235 13.3604 20.6198 13.173 20.4396 12.827C20.3892 12.7297 20.3964 12.6828 20.5081 12.6432C21.2326 12.3765 21.9534 12.1025 22.6707 11.825C22.804 11.7745 22.8437 11.8034 22.8437 11.9439C22.8364 12.3873 22.8401 12.8306 22.8401 13.3424Z" fill="#DA2126"/>
<path d="M25.4457 23.4811C25.7341 24.0361 25.9143 24.62 26.0008 25.2255C26.1738 26.4257 26.0296 27.5827 25.5322 28.6964C25.4566 28.8622 25.4061 28.8694 25.2583 28.7721C24.2347 28.0909 23.2039 27.4169 22.1731 26.7501C22.0434 26.6672 22.0001 26.5807 22.0361 26.4329C22.0794 26.2455 22.0686 26.0545 22.0289 25.8635C22.0109 25.777 22.0181 25.7085 22.1082 25.6508C23.2183 24.93 24.3248 24.2091 25.4457 23.4811Z" fill="white"/>
<path d="M13.8511 26.1482C13.8655 25.1931 14.0745 24.2885 14.4962 23.4306C14.5683 23.2793 14.6224 23.2324 14.7882 23.3405C15.7974 24.0145 16.8173 24.6777 17.8337 25.3409C17.9419 25.4094 17.9959 25.467 17.9455 25.6112C17.8518 25.8743 17.859 26.1554 17.8914 26.4294C17.9058 26.5519 17.8698 26.624 17.7653 26.6889C16.7128 27.352 15.6604 28.0188 14.6116 28.6928C14.4782 28.7793 14.4278 28.7613 14.3665 28.6171C14.0277 27.8314 13.8619 27.006 13.8511 26.1482Z" fill="white"/>
<path d="M20.508 22.1078C20.508 21.5023 20.5152 20.9004 20.5044 20.2949C20.5008 20.1255 20.5368 20.0642 20.7206 20.0894C22.3606 20.3201 23.7013 21.077 24.7502 22.3601C24.8511 22.4826 24.8547 22.5367 24.7105 22.6304C23.6761 23.2936 22.6453 23.964 21.6181 24.638C21.5064 24.71 21.4451 24.7281 21.3442 24.6055C21.1712 24.3929 20.9225 24.2775 20.6702 24.191C20.544 24.1478 20.5116 24.0865 20.5116 23.9604C20.5116 23.344 20.508 22.7277 20.508 22.1078Z" fill="#FFFEFE"/>
<path d="M19.4015 22.115C19.4015 22.7097 19.3943 23.308 19.4051 23.9027C19.4087 24.0685 19.3799 24.1766 19.1997 24.2163C19.106 24.2379 19.0014 24.2775 18.933 24.346C18.7059 24.5695 18.5293 24.4722 18.3058 24.3208C17.3471 23.6756 16.3812 23.0485 15.4116 22.425C15.2458 22.3204 15.2566 22.252 15.3756 22.1222C16.3992 20.9905 17.6643 20.3129 19.1744 20.0966C19.3582 20.0714 19.4051 20.1219 19.4015 20.3057C19.3943 20.9076 19.4015 21.5131 19.4015 22.115Z" fill="#FFFEFE"/>
<path d="M19.4016 30.2317C19.4016 30.8444 19.398 31.4572 19.4052 32.0663C19.4088 32.2177 19.3692 32.2681 19.2142 32.2429C17.5599 32.0014 16.2011 31.2409 15.1522 29.9326C15.0333 29.7848 15.0549 29.7271 15.2063 29.6298C16.2227 28.9919 17.2355 28.3503 18.2447 27.7016C18.3708 27.6187 18.4537 27.6006 18.5727 27.7196C18.7565 27.907 18.9835 28.0404 19.2322 28.1197C19.3656 28.1593 19.4016 28.2314 19.4016 28.3683C19.398 28.9919 19.4016 29.6118 19.4016 30.2317Z" fill="#FFFFFE"/>
<path d="M20.508 30.2102C20.508 29.6047 20.5116 29.0028 20.5044 28.3972C20.5008 28.2531 20.5368 28.1738 20.681 28.1305C20.9405 28.0548 21.1676 27.9071 21.3622 27.7196C21.4523 27.6331 21.5172 27.6404 21.6145 27.7052C22.6417 28.3828 23.6689 29.0568 24.6997 29.7272C24.8331 29.8137 24.8259 29.8714 24.7321 29.9867C23.6833 31.2698 22.3317 32.0123 20.6954 32.2465C20.5404 32.2682 20.5008 32.2177 20.5044 32.0663C20.5152 31.4464 20.508 30.8301 20.508 30.2102Z" fill="#FFFFFE"/>
<path d="M18.8896 26.1626C18.8896 25.5607 19.3618 25.0921 19.9673 25.0885C20.562 25.0885 21.0522 25.5787 21.045 26.1698C21.0414 26.7573 20.544 27.2474 19.9565 27.2474C19.3618 27.2474 18.8896 26.7681 18.8896 26.1626Z" fill="#FEFEFE"/>
<path d="M8.64648 9.52551C8.83389 10.4085 9.01411 11.2627 9.20873 12.1818C8.72937 12.1818 8.27885 12.1782 7.83192 12.1818C7.63369 12.1818 7.74542 12.0629 7.76344 12.0016C7.99051 11.3312 8.22478 10.6608 8.45906 9.99046C8.51312 9.84629 8.54195 9.6877 8.64648 9.52551Z" fill="#9D834A"/>
<path d="M19.7727 11.4177C19.7799 11.133 19.8015 10.8735 19.9061 10.632C19.9998 10.4158 20.1439 10.2428 20.3746 10.1563C20.7314 10.0265 21.0666 10.1599 21.1964 10.5167C21.4018 11.0862 21.2937 11.425 20.7603 11.5835C20.4827 11.6664 20.2196 11.7854 19.9529 11.8971C19.8412 11.944 19.8087 11.9187 19.8051 11.7998C19.8015 11.6664 19.7835 11.5295 19.7727 11.4177Z" fill="#9D834A"/>
<path d="M28.8157 12.863C28.8301 12.5206 29.0139 12.2575 29.3527 12.0881C29.5545 11.9872 29.7672 11.9367 29.9834 11.8862C30.0808 11.8646 30.1276 11.8862 30.1348 11.9908C30.1673 12.4161 30.1997 12.845 30.2357 13.2703C30.2393 13.3207 30.2213 13.3568 30.1889 13.3928C30.0159 13.6055 29.569 13.7064 29.277 13.6018C28.9959 13.5009 28.8157 13.227 28.8157 12.863Z" fill="#9D834A"/>
<path d="M25.2116 23.9424C25.4567 24.501 25.5865 25.0741 25.6477 25.6688C25.6586 25.7625 25.6477 25.8166 25.5252 25.831C24.5052 25.9571 23.4852 26.0941 22.4688 26.2311C22.3823 26.2419 22.3499 26.2239 22.3427 26.1301C22.3247 25.9319 22.3499 25.7877 22.5517 25.6616C23.3807 25.1462 24.1916 24.602 25.0098 24.0721C25.0711 24.0289 25.1359 23.9892 25.2116 23.9424Z" fill="#9D834A"/>
<path d="M25.2116 28.4009C24.2709 27.7845 23.341 27.1718 22.3643 26.5339C23.2221 26.4294 24.0222 26.332 24.8187 26.2347C25.0242 26.2095 25.226 26.1879 25.4278 26.1518C25.6045 26.1194 25.6837 26.1482 25.6729 26.3609C25.6369 27.0601 25.4927 27.7305 25.2116 28.4009Z" fill="#CB2127"/>
<path d="M14.262 26.1662C14.2728 25.3481 14.435 24.5624 14.7702 23.8127C14.8206 23.7009 14.8567 23.6649 14.9792 23.7442C15.8298 24.3101 16.6876 24.8687 17.5454 25.4274C17.6427 25.4922 17.6716 25.5499 17.6427 25.6689C17.5887 25.8995 17.5598 26.1374 17.5995 26.3717C17.6175 26.4798 17.5814 26.5375 17.4913 26.5951C16.6047 27.1502 15.7217 27.7088 14.8422 28.2711C14.7197 28.3504 14.6837 28.318 14.6404 28.199C14.3917 27.5466 14.2692 26.8691 14.262 26.1662Z" fill="#9D834A"/>
<path d="M24.3537 22.5512C23.449 23.1387 22.548 23.7261 21.6433 24.3172C21.564 24.3677 21.51 24.3605 21.4415 24.3028C21.3081 24.1875 21.1604 24.0866 20.9946 24.0253C20.818 23.9604 20.7639 23.8595 20.7675 23.6721C20.7783 22.6917 20.7747 21.715 20.7711 20.7346C20.7711 20.6121 20.7603 20.5112 20.9477 20.5436C22.2957 20.7959 23.4238 21.4375 24.3141 22.4827C24.3285 22.5007 24.3393 22.5223 24.3537 22.5512Z" fill="#9D834A"/>
<path d="M15.7649 22.3132C16.4569 21.56 17.2751 21.0374 18.2338 20.731C18.4717 20.6553 18.7204 20.6084 18.9654 20.5472C19.0916 20.5147 19.1384 20.5544 19.1384 20.6913C19.1348 21.7222 19.1348 22.753 19.1384 23.7874C19.1384 23.8811 19.106 23.9279 19.0267 23.9856C18.7456 24.1838 18.5221 24.1478 18.2374 23.9496C17.5093 23.4342 16.7488 22.962 16.0028 22.4754C15.9235 22.425 15.8514 22.3709 15.7649 22.3132Z" fill="#9D834A"/>
<path d="M19.1636 30.1164C19.1636 30.6282 19.1636 31.14 19.1636 31.6554C19.1636 31.7743 19.1564 31.8284 19.0014 31.8032C17.6102 31.5941 16.4964 30.9093 15.5918 29.8497C15.5053 29.7488 15.5774 29.7271 15.6422 29.6839C16.5181 29.118 17.3939 28.5522 18.2661 27.9827C18.3526 27.925 18.4103 27.9322 18.486 27.9971C18.6374 28.1233 18.7995 28.2494 18.9834 28.3143C19.1455 28.372 19.1708 28.4729 19.1672 28.6279C19.16 29.1252 19.1636 29.6226 19.1636 30.12C19.1708 30.1164 19.1672 30.1164 19.1636 30.1164Z" fill="#ED1E25"/>
<path d="M24.3682 29.7956C23.5428 30.794 22.53 31.4716 21.2685 31.7455C20.7567 31.8572 20.7567 31.8464 20.7567 31.3202C20.7567 30.4336 20.7567 29.5469 20.7495 28.6603C20.7459 28.4873 20.7784 28.3755 20.9586 28.3107C21.128 28.2494 21.2793 28.1377 21.4163 28.0187C21.4956 27.9502 21.5605 27.9502 21.6506 28.0115C22.5444 28.6026 23.4455 29.1901 24.3682 29.7956Z" fill="#CB2127"/>
<path d="M19.9639 26.9411C19.535 26.9411 19.189 26.6059 19.1818 26.1806C19.1745 25.7481 19.5205 25.3985 19.9639 25.3949C20.4 25.3877 20.7424 25.7373 20.7388 26.1806C20.7316 26.6095 20.3964 26.9411 19.9639 26.9411Z" fill="#9D834A"/>
<path d="M8.55633 10.7473C8.63562 11.1113 8.7005 11.4177 8.77258 11.7168C8.79421 11.8034 8.75096 11.825 8.68608 11.8394C8.52749 11.879 8.33287 11.9223 8.22114 11.8394C8.12022 11.7637 8.26078 11.5979 8.29682 11.4718C8.36891 11.2519 8.45541 11.032 8.55633 10.7473Z" fill="#EA2125"/>
<path d="M20.1007 11.288C20.1259 11.0789 20.144 10.8663 20.2485 10.6717C20.3386 10.5059 20.472 10.4302 20.6594 10.4446C20.8468 10.459 20.8828 10.6032 20.9189 10.7438C21.0162 11.1042 20.9765 11.1835 20.6341 11.3132C20.5188 11.3565 20.3963 11.3817 20.2881 11.4358C20.1115 11.5223 20.0755 11.4538 20.1007 11.288Z" fill="#D92126"/>
<path d="M29.8501 12.9639C29.8212 13.0252 29.9726 13.1982 29.7744 13.2883C29.6086 13.364 29.4392 13.3604 29.3022 13.2342C29.1617 13.1009 29.104 12.9351 29.1689 12.7332C29.259 12.4629 29.4788 12.3512 29.7203 12.2611C29.8176 12.225 29.8176 12.2935 29.8212 12.3548C29.8357 12.5386 29.8897 12.7188 29.8501 12.9639Z" fill="#D92126"/>
</svg>
