<svg width="41" height="41" viewBox="0 0 41 41" fill="none" xmlns="http://www.w3.org/2000/svg">
<path d="M20.5 0C9.19668 0 0 9.19668 0 20.5C0 31.8033 9.19668 41 20.5 41C31.8033 41 41 31.8033 41 20.5C40.9887 9.19668 31.8033 0 20.5 0Z" fill="#00285E"/>
<path d="M38.8594 20.5C38.8594 10.3633 30.6367 2.14062 20.4886 2.14062C10.3519 2.14062 2.11792 10.3633 2.11792 20.5C2.11792 30.6368 10.3406 38.8707 20.4886 38.8707C30.6367 38.8594 38.8594 30.6368 38.8594 20.5Z" fill="white"/>
<path d="M32.1883 20.5C32.1883 14.0442 26.9557 8.81165 20.4999 8.81165C14.0441 8.81165 8.81152 14.0442 8.81152 20.5C8.81152 26.9558 14.0441 32.1884 20.4999 32.1884C26.9557 32.1884 32.1883 26.9558 32.1883 20.5Z" fill="#6CADDF"/>
<path d="M20.4999 33.1171C13.5458 33.1171 7.88281 27.4541 7.88281 20.4999C7.88281 13.5458 13.5345 7.88281 20.4999 7.88281C27.4654 7.88281 33.1171 13.5345 33.1171 20.4999C33.1171 27.4541 27.4541 33.1171 20.4999 33.1171ZM20.4999 8.58502C13.9309 8.58502 8.58502 13.9309 8.58502 20.4999C8.58502 27.069 13.9309 32.4149 20.4999 32.4149C27.069 32.4149 32.4149 27.069 32.4149 20.4999C32.4149 13.9309 27.069 8.58502 20.4999 8.58502Z" fill="#00285E"/>
<path d="M20.5 40.1619C9.66106 40.1619 0.838135 31.339 0.838135 20.5C0.838135 9.66106 9.66106 0.838135 20.5 0.838135C31.339 0.838135 40.1619 9.66106 40.1619 20.5C40.1506 31.339 31.339 40.1619 20.5 40.1619ZM20.5 1.2572C9.88758 1.2572 1.26852 9.88758 1.26852 20.5C1.26852 31.1011 9.89891 39.7315 20.5 39.7315C31.1011 39.7315 39.7315 31.1011 39.7315 20.5C39.7315 9.88758 31.1011 1.2572 20.5 1.2572Z" fill="#6CADDF"/>
<path d="M4.08874 20.0478L3.76029 20.1271L3.66968 19.7873L4.22465 19.6288H4.5078V21.5542H4.10006V20.0478H4.08874Z" fill="#6CADDF"/>
<path d="M4.9834 21.021C4.9834 20.7831 5.09666 20.6472 5.2892 20.5566C5.14196 20.466 5.05135 20.3414 5.05135 20.1375V20.1262C5.05135 19.8317 5.32318 19.6052 5.71959 19.6052C6.116 19.6052 6.38782 19.8317 6.38782 20.1262V20.1375C6.38782 20.3414 6.29721 20.466 6.14997 20.5566C6.34251 20.6585 6.45577 20.7718 6.45577 21.0096V21.021C6.45577 21.3721 6.14997 21.5759 5.71959 21.5759C5.31185 21.5759 4.9834 21.3494 4.9834 21.021ZM6.04804 20.987C6.04804 20.8398 5.91213 20.7491 5.71959 20.7491C5.52704 20.7491 5.39113 20.8398 5.39113 20.9757C5.39113 21.1003 5.51572 21.2135 5.71959 21.2135C5.92345 21.2248 6.04804 21.1229 6.04804 20.987ZM5.99141 20.1942C5.99141 20.0696 5.88948 19.9677 5.71959 19.9677C5.5497 19.9677 5.44776 20.0696 5.44776 20.1828V20.1942C5.44776 20.3188 5.56102 20.4207 5.71959 20.4207C5.88948 20.4207 5.99141 20.3188 5.99141 20.1942Z" fill="#6CADDF"/>
<path d="M35.2011 20.7605C35.0992 20.8398 34.9859 20.8851 34.816 20.8851C34.4083 20.8851 34.1365 20.6585 34.1365 20.2735C34.1365 19.8884 34.4423 19.6052 34.8727 19.6052C35.1332 19.6052 35.2691 19.6619 35.4276 19.8204C35.5635 19.9563 35.6428 20.1602 35.6428 20.5453V20.5566C35.6428 21.1795 35.3484 21.5986 34.816 21.5986C34.5329 21.5986 34.3517 21.508 34.1818 21.3721L34.397 21.0549C34.5329 21.1682 34.6575 21.2135 34.816 21.2135C35.0992 21.1909 35.1785 20.919 35.2011 20.7605ZM35.2124 20.2621C35.2124 20.0922 35.0879 19.9563 34.884 19.9563C34.6688 19.9563 34.5669 20.0809 34.5669 20.2508V20.2621C34.5669 20.432 34.6914 20.5566 34.8953 20.5566C35.0992 20.5453 35.2124 20.4207 35.2124 20.2621Z" fill="#6CADDF"/>
<path d="M36.9793 21.1343H36.0506L35.9827 20.8285L37.0247 19.6166H37.3758V20.7832H37.6363V21.1229H37.3758V21.5307H36.9793V21.1343ZM36.9793 20.7945V20.2055L36.4697 20.7945H36.9793Z" fill="#6CADDF"/>
<path d="M20.5001 32.4149C13.9311 32.4149 8.58521 27.0691 8.58521 20.5C8.58521 13.9309 13.9311 8.58508 20.5001 8.58508C27.0692 8.58508 32.415 13.9309 32.415 20.5C32.415 27.0691 27.0692 32.4149 20.5001 32.4149ZM20.5001 9.0268C14.1689 9.0268 9.02692 14.1688 9.02692 20.5C9.02692 26.8312 14.1689 31.9732 20.5001 31.9732C26.8313 31.9732 31.9733 26.8312 31.9733 20.5C31.9733 14.1688 26.8313 9.0268 20.5001 9.0268Z" fill="white"/>
<path d="M20.2847 10.2386C14.4065 10.2386 11.0201 11.0088 11.0201 11.0088C11.0201 11.0088 9.66094 16.1621 10.4311 22.7652C10.7482 25.54 13.0021 31.4975 20.4659 33.5362C27.9297 31.5088 30.1836 25.54 30.5007 22.7652C31.2709 16.1621 29.9231 11.0088 29.9231 11.0088C29.9231 11.0088 26.5253 10.2386 20.6585 10.2386H20.2847Z" fill="#00285E"/>
<path d="M29.4814 21.2249C29.4134 23.2295 29.0963 29.2097 20.4659 32.5055C11.8922 29.3003 11.4504 23.105 11.4504 21.2249H29.4814Z" fill="#97C1E7"/>
<path d="M29.221 20.8964C29.4475 15.9356 28.6094 11.9036 28.6094 11.9036C28.6094 11.9036 25.3815 11.2806 20.4661 11.2806C15.5393 11.2806 12.2661 11.9602 12.2661 11.9602C12.2661 11.9602 11.3713 16.0036 11.6205 20.8737L29.221 20.8964Z" fill="white"/>
<path d="M20.7264 32.3356L11.609 21.3154C11.2806 23.5806 13.1267 30.2743 20.7264 32.3356Z" fill="#6CADDF"/>
<path d="M14.3386 21.2362L22.7765 31.4183C23.6259 31.0105 24.2602 30.6028 24.8605 30.1271L17.4986 21.2362H14.3386Z" fill="#6CADDF"/>
<path d="M20.1941 21.2476L26.4347 28.768C27.0463 28.0771 27.5673 27.4429 27.9411 26.786L23.354 21.2476H20.1941Z" fill="#6CADDF"/>
<path d="M29.3229 21.2475L26.2083 21.2362L28.8246 24.3848C29.2776 23.4221 29.3229 21.7912 29.3229 21.2475Z" fill="#6CADDF"/>
<path d="M24.1468 25.3701C24.1242 25.3022 24.0675 25.2456 23.9996 25.2116L23.4786 25.0304C23.4333 25.0077 23.388 25.019 23.3427 25.0304C23.2974 24.8491 23.2068 24.6906 23.0482 24.5773C23.0256 24.566 23.0029 24.5433 22.9916 24.532C22.9576 24.5094 22.9236 24.4867 22.8783 24.4754C22.8104 24.4414 22.7424 24.4301 22.6744 24.4074C22.5272 24.3621 22.3686 24.3055 22.1874 24.1809C22.0062 24.0563 21.9269 23.9317 21.8477 23.8185C21.825 23.7845 21.8024 23.7732 21.791 23.7392C21.7457 23.6599 21.6664 23.592 21.5985 23.524C21.4739 23.4334 21.304 23.3881 21.1454 23.3881C21.1001 23.3881 21.0775 23.3994 21.0322 23.3994C21.0322 23.3994 21.0322 23.3994 21.0322 23.3881C21.0435 23.3315 21.0209 23.2635 20.9869 23.2069L20.6698 22.7765C20.6245 22.7199 20.5452 22.6746 20.4659 22.6746C20.3866 22.6746 20.3187 22.7085 20.2733 22.7652L19.9336 23.1956C19.8883 23.2409 19.8769 23.3201 19.8883 23.3881C19.8543 23.3881 19.843 23.3768 19.809 23.3768C19.6504 23.3768 19.4919 23.4221 19.3559 23.5127C19.3333 23.524 19.3106 23.5467 19.3106 23.558C19.2767 23.592 19.254 23.6033 19.22 23.6486C19.1747 23.7052 19.1294 23.7619 19.0954 23.8185C18.9935 23.9431 18.9142 24.0677 18.7104 24.2036C18.5292 24.3282 18.3932 24.3735 18.2573 24.4188C18.2234 24.4301 18.2007 24.4414 18.1667 24.4527C18.0761 24.4754 17.9855 24.5094 17.9062 24.5773C17.7477 24.6906 17.6457 24.8605 17.6004 25.053C17.5551 25.0304 17.4872 25.0304 17.4305 25.0417L16.9209 25.2116C16.8529 25.2342 16.7963 25.2909 16.7623 25.3588C16.7397 25.4268 16.751 25.5061 16.7963 25.574L17.1021 26.027C17.1474 26.0724 17.1927 26.1063 17.2493 26.129C17.17 26.2989 17.1474 26.5141 17.204 26.684C17.2153 26.7066 17.2267 26.7293 17.2267 26.7406C17.238 26.7859 17.2606 26.8199 17.2833 26.8652C17.3286 26.9218 17.3626 26.9898 17.4079 27.0351C17.5098 27.1596 17.6004 27.2842 17.6684 27.5107C17.7363 27.7259 17.725 27.8619 17.725 27.9978C17.725 28.0317 17.725 28.0657 17.725 28.0997C17.7137 28.2016 17.725 28.2922 17.7703 28.3828C17.8269 28.5641 17.9629 28.7113 18.1101 28.8019C18.0874 28.8472 18.0648 28.8812 18.0761 28.9265V29.4701C18.0761 29.5494 18.1214 29.6174 18.178 29.6627C18.2347 29.708 18.314 29.7193 18.3932 29.708L18.9256 29.5607C18.9709 29.5494 19.0048 29.5154 19.0388 29.4815C19.1974 29.6287 19.4239 29.6967 19.6278 29.6967C19.6731 29.6967 19.707 29.6853 19.7524 29.674C19.8203 29.6514 19.8883 29.6287 19.9562 29.6174C20.1035 29.5721 20.262 29.5154 20.4999 29.5154C20.7151 29.5154 20.851 29.5607 20.9869 29.6061C21.0209 29.6174 21.0435 29.6287 21.0775 29.64C21.1681 29.6853 21.27 29.6853 21.3606 29.6853C21.5532 29.6853 21.7457 29.6061 21.8816 29.4701C21.9156 29.5154 21.9383 29.5268 21.9949 29.5494L22.5159 29.708C22.5838 29.7306 22.6631 29.7193 22.7311 29.674C22.7877 29.6287 22.833 29.5607 22.833 29.4815L22.8443 28.9378C22.8443 28.8925 22.833 28.8585 22.8104 28.8132C22.9689 28.7226 23.1048 28.5754 23.1501 28.3942C23.1615 28.3715 23.1615 28.3489 23.1728 28.3262C23.1841 28.2809 23.1954 28.2469 23.1954 28.2016C23.2068 28.1337 23.2068 28.0657 23.2068 27.9864C23.2068 27.8279 23.2068 27.6806 23.2747 27.4428C23.3427 27.2276 23.422 27.1257 23.5126 27.0124C23.5352 26.9784 23.5579 26.9671 23.5692 26.9331C23.6258 26.8652 23.6825 26.7746 23.7051 26.684C23.7617 26.4914 23.7504 26.2875 23.6598 26.1063C23.7051 26.0837 23.7504 26.061 23.7844 26.027L24.1015 25.5853C24.1582 25.5287 24.1695 25.4494 24.1468 25.3701Z" fill="#00285E"/>
<path d="M20.1829 26.5481C20.1829 26.3782 20.3188 26.2423 20.4887 26.2423C20.6586 26.2423 20.7945 26.3782 20.7945 26.5481C20.7945 26.718 20.6586 26.8539 20.4887 26.8539C20.3188 26.8426 20.1829 26.7067 20.1829 26.5481Z" fill="#FFC758"/>
<path d="M20.4775 23.9658C20.4322 23.7732 20.3076 23.6147 20.1603 23.5241L20.4775 23.1163L20.7833 23.5241C20.6247 23.626 20.5341 23.7732 20.4775 23.9658ZM18.031 25.744C17.8725 25.6307 17.7592 25.4948 17.7026 25.3249L17.2156 25.4835L17.5101 25.9025C17.646 25.8006 17.8385 25.744 18.031 25.744ZM18.9824 28.5755C18.8352 28.7 18.6653 28.7567 18.4728 28.7567V29.2663L18.9711 29.1191C18.9031 28.9605 18.9031 28.768 18.9824 28.5755ZM21.9838 28.5868C22.0518 28.768 22.0518 28.9492 21.9951 29.1191L22.4822 29.2663L22.4935 28.7567C22.3236 28.768 22.1424 28.7114 21.9838 28.5868ZM22.9125 25.7553C23.1164 25.744 23.2863 25.8006 23.4222 25.9025L23.728 25.4948L23.241 25.3249C23.1957 25.4835 23.0711 25.642 22.9125 25.7553ZM19.8545 28.5981C19.628 28.5981 19.4468 28.4169 19.4468 28.1904C19.4468 28.1564 19.4128 28.1451 19.4015 28.1677C19.2543 28.3489 19.141 28.5075 19.1297 28.7C19.1183 28.9832 19.3562 29.2097 19.6507 29.2097C19.6733 29.2097 19.696 29.2097 19.696 29.2097C19.7299 29.2097 19.7413 29.2097 19.7866 29.1984C19.9904 29.1531 20.1717 29.0511 20.5114 29.0511C20.8059 29.0511 20.9531 29.1304 21.1004 29.1757C21.157 29.1984 21.225 29.221 21.3043 29.221C21.5987 29.221 21.8252 28.9945 21.8252 28.7114C21.8252 28.5075 21.7007 28.3603 21.5534 28.179C21.5421 28.1564 21.5081 28.179 21.5081 28.2017C21.5081 28.4169 21.3156 28.6094 21.1004 28.6094C20.9305 28.6094 20.7153 28.4622 20.4888 28.4622C20.2962 28.4509 20.0244 28.5981 19.8545 28.5981ZM19.594 28.0318C19.594 28.2243 19.7413 28.3716 19.9338 28.3716C19.9565 28.3716 19.9791 28.3716 20.0018 28.3603C20.0131 28.3603 20.0244 28.3603 20.0357 28.3489H20.0471C20.1717 28.3036 20.2736 28.2583 20.4888 28.2583C20.704 28.2583 20.7946 28.315 20.9192 28.3489C20.9645 28.3603 20.9984 28.3716 21.0438 28.3716C21.2363 28.3716 21.3835 28.2243 21.3835 28.0318C21.3835 27.9865 21.3722 27.9299 21.3496 27.8959C21.3382 27.8732 21.3269 27.8506 21.3156 27.8506C21.3156 27.8506 20.738 27.0578 20.7153 27.0351C20.6813 26.9898 20.6473 27.0125 20.6247 27.0238C20.5907 27.0351 20.5228 27.0578 20.4775 27.0578C20.4322 27.0578 20.3642 27.0464 20.3415 27.0238C20.2962 27.0011 20.2736 26.9898 20.2509 27.0351C20.2283 27.0691 19.8092 27.6354 19.6846 27.8166C19.6167 27.8732 19.594 27.9525 19.594 28.0318ZM22.267 27.7713C22.199 27.9865 21.9612 28.0998 21.746 28.0318C21.712 28.0205 21.7007 28.0431 21.712 28.0771C21.8366 28.2697 21.9498 28.4282 22.1424 28.4962C22.4142 28.5868 22.7087 28.4395 22.788 28.1677C22.7993 28.1451 22.7993 28.1337 22.7993 28.1224C22.8106 28.0998 22.8106 28.0771 22.8219 28.0431C22.8446 27.8279 22.788 27.6467 22.9012 27.3069C22.9918 27.0351 23.1164 26.9219 23.207 26.7859C23.2523 26.7406 23.2863 26.6727 23.3089 26.6161C23.3996 26.3442 23.2523 26.0498 22.9805 25.9705C22.788 25.9138 22.5954 25.9818 22.3802 26.0611C22.3576 26.0724 22.3576 26.0951 22.3915 26.1064C22.6067 26.1743 22.7313 26.4122 22.6634 26.6274C22.6181 26.7859 22.4029 26.9445 22.3349 27.1597C22.267 27.3183 22.3236 27.6014 22.267 27.7713ZM21.644 27.8619C21.8252 27.9185 22.0291 27.8166 22.0857 27.6467C22.0971 27.6241 22.0971 27.6014 22.0971 27.5788C22.0971 27.5674 22.0971 27.5561 22.0971 27.5448V27.5221C22.0971 27.3976 22.0744 27.273 22.1424 27.0804C22.2103 26.8766 22.2896 26.7973 22.3576 26.6953C22.3802 26.6614 22.4029 26.6274 22.4142 26.5821C22.4708 26.4009 22.3689 26.2083 22.199 26.1517C22.1537 26.1404 22.0971 26.129 22.0631 26.1404C22.0404 26.1404 22.0178 26.1404 22.0065 26.1517C22.0065 26.1517 21.0664 26.4575 21.0324 26.4575C20.9871 26.4801 20.9871 26.5141 20.9871 26.5368C20.9871 26.5708 20.9758 26.6387 20.9645 26.684C20.9531 26.7293 20.9192 26.7859 20.8965 26.8086C20.8625 26.8426 20.8512 26.8652 20.8739 26.8992C20.9078 26.9332 21.3042 27.4995 21.4402 27.6807C21.4855 27.7713 21.5647 27.8279 21.644 27.8619ZM22.199 25.2343C22.3915 25.3589 22.4255 25.6194 22.2896 25.8006C22.267 25.8232 22.2896 25.8459 22.3236 25.8459C22.5501 25.7893 22.7313 25.7213 22.8559 25.5627C23.0258 25.3362 22.9805 25.0078 22.7426 24.8379C22.7313 24.8266 22.7087 24.8152 22.6973 24.8039C22.6747 24.7813 22.652 24.7699 22.6181 24.7586C22.4255 24.6793 22.233 24.6567 21.9498 24.4528C21.7233 24.2829 21.644 24.1357 21.5421 23.9998C21.5081 23.9545 21.4628 23.8978 21.4062 23.8525C21.1797 23.6826 20.8512 23.7279 20.6813 23.9658C20.5681 24.1243 20.5681 24.3282 20.5794 24.5547C20.5794 24.5774 20.6134 24.5887 20.6247 24.5547C20.7493 24.3735 21.0098 24.3395 21.2023 24.4641C21.3382 24.5661 21.4288 24.8152 21.6101 24.9398C21.7573 25.1097 22.0631 25.1324 22.199 25.2343ZM22.0971 25.8572C22.2103 25.71 22.1763 25.4835 22.0178 25.3815C22.0065 25.3702 21.9838 25.3475 21.9612 25.3362C21.9498 25.3362 21.9385 25.3249 21.9272 25.3249H21.9159C21.7913 25.2796 21.678 25.2683 21.5081 25.1437C21.3382 25.0191 21.2929 24.9172 21.2136 24.8266C21.191 24.7926 21.1683 24.7699 21.1344 24.7359C20.9871 24.6227 20.7606 24.6567 20.6587 24.8152C20.6247 24.8605 20.6134 24.8945 20.602 24.9398C20.602 24.9625 20.5907 24.9851 20.5907 24.9964C20.5907 24.9964 20.5907 25.9818 20.5907 26.0045C20.5907 26.0498 20.636 26.0498 20.6587 26.0611C20.6926 26.0724 20.7606 26.1064 20.7833 26.1177C20.8286 26.1517 20.8625 26.1857 20.8852 26.2197C20.9078 26.2536 20.9305 26.2763 20.9645 26.265C21.0098 26.2423 21.678 26.0384 21.8819 25.9592C21.9725 25.9705 22.0404 25.9138 22.0971 25.8572ZM19.7639 24.5094C19.9451 24.3848 20.2056 24.4188 20.3415 24.6C20.3642 24.6227 20.3868 24.6227 20.3868 24.5887C20.3982 24.3622 20.3982 24.1583 20.2849 23.9998C20.1263 23.7732 19.7979 23.7166 19.5601 23.8865C19.5374 23.8978 19.5261 23.9092 19.5147 23.9205C19.4921 23.9318 19.4694 23.9545 19.4581 23.9771C19.3222 24.1357 19.2429 24.3169 18.9598 24.5208C18.7333 24.6906 18.5634 24.7246 18.4048 24.7586C18.3482 24.7813 18.2802 24.8039 18.2236 24.8379C17.9971 25.0078 17.9291 25.3249 18.1103 25.5627C18.2349 25.7213 18.4161 25.7779 18.6426 25.8459C18.6653 25.8572 18.6766 25.8232 18.6653 25.8006C18.5407 25.6194 18.5747 25.3589 18.7559 25.2343C18.8918 25.1324 19.1523 25.121 19.3335 24.9964C19.4921 24.8945 19.6167 24.6114 19.7639 24.5094ZM20.3189 24.8152C20.2056 24.668 19.9904 24.6227 19.8432 24.7359C19.8205 24.7473 19.8092 24.7586 19.7979 24.7813C19.7866 24.7926 19.7866 24.7926 19.7752 24.8039L19.7639 24.8152C19.696 24.9172 19.6393 25.0304 19.4581 25.1437C19.2882 25.2683 19.1636 25.2683 19.0617 25.3249C19.0164 25.3362 18.9824 25.3589 18.9484 25.3702C18.8012 25.4835 18.7559 25.6873 18.8692 25.8459C18.9031 25.8912 18.9371 25.9138 18.9824 25.9365C19.0051 25.9478 19.0164 25.9592 19.0277 25.9592C19.0277 25.9592 19.9678 26.265 20.0018 26.265C20.0471 26.2763 20.0697 26.2423 20.081 26.2197C20.1037 26.197 20.1377 26.1404 20.183 26.1064C20.2283 26.0724 20.2736 26.0611 20.3076 26.0498C20.3529 26.0384 20.3755 26.0271 20.3755 25.9931C20.3755 25.9592 20.3755 25.2569 20.3755 25.0304C20.3868 24.9625 20.3642 24.8832 20.3189 24.8152ZM18.3142 26.6047C18.2462 26.3895 18.3595 26.1517 18.5747 26.0837C18.6087 26.0724 18.6087 26.0384 18.586 26.0384C18.3708 25.9592 18.1783 25.8912 17.9971 25.9478C17.7252 26.0271 17.578 26.3329 17.6686 26.5934C17.6686 26.6161 17.6799 26.6274 17.6913 26.6387C17.7026 26.6614 17.7139 26.684 17.7366 26.718C17.8498 26.8992 17.9971 27.0238 18.1103 27.3636C18.2009 27.6354 18.167 27.8053 18.167 27.9639C18.1556 28.0205 18.167 28.0884 18.1896 28.1677C18.2802 28.4395 18.5747 28.5868 18.8352 28.4962C19.0277 28.4395 19.141 28.281 19.2656 28.0771C19.2769 28.0545 19.2543 28.0318 19.2316 28.0431C19.0164 28.1111 18.7786 27.9978 18.7106 27.7826C18.6653 27.6241 18.7333 27.3749 18.6653 27.1597C18.5973 26.9785 18.3708 26.7633 18.3142 26.6047ZM18.7672 26.1743C18.586 26.231 18.4841 26.4235 18.552 26.6047C18.552 26.6274 18.5634 26.65 18.586 26.6614C18.5973 26.6727 18.5973 26.684 18.6087 26.684C18.6087 26.684 18.6087 26.6953 18.62 26.6953C18.688 26.7973 18.7786 26.8879 18.8465 27.0804C18.9145 27.2843 18.8918 27.3862 18.8918 27.5108C18.8918 27.5561 18.8918 27.5901 18.9145 27.6354C18.9711 27.8166 19.1636 27.9185 19.3449 27.8506C19.3902 27.8393 19.4355 27.8053 19.4694 27.7826C19.4808 27.7713 19.5034 27.7487 19.5147 27.7373C19.5147 27.7373 20.0924 26.9445 20.1037 26.9219C20.1377 26.8766 20.1037 26.8539 20.081 26.8313C20.0584 26.8086 20.0244 26.752 20.0131 26.7067C20.0018 26.6614 19.9904 26.6047 19.9904 26.5708C19.9904 26.5368 19.9904 26.5028 19.9451 26.4915C19.8998 26.4801 19.2316 26.265 19.0277 26.1857C18.9371 26.1517 18.8578 26.1404 18.7672 26.1743Z" fill="#EE3124"/>
<path d="M23.3655 15.9582L25.4721 15.222C25.4721 15.222 25.2909 16.1055 25.3475 16.785C25.4041 17.6685 25.9138 18.3367 25.9138 18.3367L23.3088 19.2428L23.3655 15.9582Z" fill="#FFC758"/>
<path d="M25.9138 18.3368C25.9138 18.3368 25.4494 17.6798 25.3701 16.9097C25.3135 16.3321 25.3701 15.8337 25.4721 15.2334C25.3815 15.6298 25.0417 16.7624 24.0903 17.8158C23.7052 18.2348 23.5353 18.6086 23.4674 18.8691L23.4221 13.897C23.4221 13.897 22.9237 14.0782 22.8671 14.0895C22.8105 14.1122 22.7765 14.1461 22.7765 14.1575C22.7765 14.1914 22.7538 14.2028 22.7199 14.2141C22.6859 14.2254 22.3914 14.3387 22.1875 14.3953C22.1422 14.4066 22.1649 14.4406 22.1875 14.4406C22.4254 14.4293 22.7652 14.3953 22.7991 14.3953C22.8444 14.384 22.8671 14.3613 22.8671 14.3387C22.8671 14.3387 22.8671 14.3387 22.8671 14.3274C22.8784 14.2821 22.9124 14.2594 22.9464 14.2594C22.9804 14.2594 23.1616 14.2368 23.2635 14.2141L23.2182 19.5713H23.456V19.1862L25.9138 18.3368Z" fill="#D4A11E"/>
<path d="M16.5585 19.3788C16.5585 19.3788 16.1734 19.0843 16.0602 18.5407C15.9469 17.9857 16.2301 17.6572 16.2301 17.6572L18.7897 16.7738C18.7897 16.7738 18.6312 17.2835 18.7784 17.8611C18.971 18.5973 19.356 19.0843 19.356 19.0843C19.356 19.0843 18.416 18.9031 17.5099 19.0277C16.6491 19.1409 16.5585 19.3788 16.5585 19.3788Z" fill="#FFC758"/>
<path d="M13.6138 18.7332C13.6138 18.7332 13.9309 17.8611 14.8596 16.9097C15.5732 16.1848 16.0262 15.981 16.0262 15.981C16.0262 15.981 15.6185 16.5699 15.4486 17.5439C15.3353 18.1442 15.4599 18.9031 15.4599 18.9031C15.4599 18.9031 14.9842 18.8011 14.4292 18.7445C13.9762 18.6992 13.6138 18.7332 13.6138 18.7332Z" fill="#FFC758"/>
<path d="M16.0375 15.981C16.0375 15.981 15.6411 16.5699 15.4712 17.5439C15.358 18.1442 15.4825 18.9031 15.4825 18.9031C15.4825 18.9031 15.358 18.8691 15.0861 18.8124C13.9309 18.5633 16.0375 15.981 16.0375 15.981Z" fill="#D4A11E"/>
<path d="M17.5326 16.6832L17.51 14.384C17.4646 14.4067 17.0116 14.5539 16.955 14.5766C16.8984 14.5992 16.8644 14.6332 16.8644 14.6559C16.8644 14.6898 16.8417 14.7012 16.8077 14.7125C16.7624 14.7238 16.4793 14.8257 16.2754 14.8937C16.2301 14.905 16.2528 14.939 16.2754 14.939C16.5019 14.9277 16.853 14.8937 16.887 14.8937C16.9323 14.8824 16.955 14.8597 16.9663 14.8371C16.9663 14.8371 16.9663 14.8371 16.9663 14.8257C16.9776 14.7804 17.0116 14.7578 17.0456 14.7578C17.0796 14.7578 17.2495 14.7351 17.3627 14.7238L17.3401 16.6832H17.5326Z" fill="#D4A11E"/>
<path d="M20.5226 14.5992H20.7038V12.3906C20.7038 12.3906 20.2055 12.5718 20.1488 12.5832C20.0922 12.6058 20.0582 12.6398 20.0582 12.6511C20.0582 12.6851 20.0356 12.6964 20.0016 12.7078C19.9563 12.7191 19.6731 12.821 19.4693 12.889C19.424 12.9003 19.4466 12.9343 19.4693 12.9343C19.7071 12.9229 20.0469 12.889 20.0809 12.889C20.1262 12.8776 20.1488 12.855 20.1602 12.8323C20.1715 12.787 20.2055 12.7644 20.2394 12.7644C20.2734 12.7644 20.432 12.7417 20.5452 12.7304L20.5226 14.5992Z" fill="#D4A11E"/>
<path d="M20.0696 12.9116C20.1262 12.9003 20.1489 12.8777 20.1489 12.855C20.1489 12.821 20.1715 12.8097 20.1942 12.7984L20.1375 12.6058C20.0809 12.6285 20.0582 12.6625 20.0582 12.6738C20.0582 12.7078 20.0356 12.7191 20.0129 12.7191L20.0696 12.9116Z" fill="#FFC758"/>
<path d="M16.887 14.8937C16.9436 14.8824 16.9662 14.8597 16.9662 14.8371C16.9776 14.8031 16.9889 14.7918 17.0115 14.7804L16.9549 14.5879C16.8983 14.6105 16.8756 14.6445 16.8756 14.6558C16.8756 14.6898 16.853 14.7012 16.8303 14.7012L16.887 14.8937Z" fill="#FFC758"/>
<path d="M22.7878 14.3953C22.8445 14.384 22.8671 14.3613 22.8671 14.3386C22.8784 14.3047 22.8898 14.2933 22.9124 14.282L22.8558 14.0895C22.7992 14.1121 22.7765 14.1461 22.7765 14.1574C22.7765 14.1914 22.7539 14.2027 22.7312 14.2027L22.7878 14.3953Z" fill="#FFC758"/>
<path d="M19.356 19.0843C19.356 19.0843 18.9483 18.484 18.7897 17.8384C18.6538 17.2834 18.7897 16.7625 18.7897 16.7625C18.7897 16.7625 18.5179 17.7025 17.8723 18.2122C17.4193 18.5746 16.3094 18.9031 16.5699 19.3674C16.6152 19.3108 16.7171 19.1862 17.1701 19.0729C17.2154 19.0616 17.2834 19.0503 17.34 19.039V19.7978H17.5779V19.005C18.4047 18.937 19.356 19.0843 19.356 19.0843Z" fill="#D4A11E"/>
<path d="M16.2868 17.4986C16.2868 17.4986 15.981 17.3174 16.0263 16.7397C16.0716 16.1395 16.3661 15.879 16.3661 15.8563L18.3595 15.1768C18.3595 15.1768 18.2122 15.4826 18.3142 15.9243C18.4387 16.4679 18.7898 16.7737 18.7898 16.7737C18.7898 16.7737 17.7932 16.785 16.8871 17.0908C16.4454 17.2494 16.2868 17.4986 16.2868 17.4986Z" fill="#FFC758"/>
<path d="M17.4647 16.2415C18.031 15.7658 18.3481 15.1655 18.3481 15.1655C18.3481 15.1655 18.2688 15.5506 18.3254 15.8904C18.4387 16.468 18.7785 16.7738 18.7785 16.7738C18.7785 16.7738 17.963 16.7851 17.1022 17.0343C16.5246 17.1929 16.3434 17.4194 16.2868 17.51C16.0942 17.0683 16.8871 16.7285 17.4647 16.2415Z" fill="#D4A11E"/>
<path d="M19.7412 19.5259C19.7412 19.5259 19.1862 19.1182 19.0617 18.348C18.9484 17.7364 19.3675 17.2947 19.3675 17.2947L22.4821 16.2188C22.4821 16.2188 22.3122 16.9096 22.4708 17.5665C22.652 18.3027 23.3315 19.2315 23.3315 19.2315C23.3315 19.2315 22.0404 18.8577 20.9191 19.0049C19.8431 19.1522 19.7412 19.5259 19.7412 19.5259Z" fill="#FFC758"/>
<path d="M19.1068 14.5991C19.0842 14.1235 19.4126 13.7497 19.424 13.727L21.6552 12.9456C21.6552 12.9456 21.5079 13.2967 21.5419 13.5911C21.6099 14.1574 21.927 14.4632 21.927 14.4632C21.927 14.4632 21.0436 14.4179 20.0129 14.769C19.4466 14.9729 19.3787 15.2447 19.3787 15.2447C19.3787 15.2447 19.1295 15.1768 19.1068 14.5991Z" fill="#FFC758"/>
<path d="M20.8738 13.9989C21.2702 13.6478 21.6666 12.9569 21.6666 12.9569C21.6666 12.9569 21.5194 13.308 21.5533 13.6025C21.6213 14.1688 21.9384 14.4746 21.9384 14.4746C21.9384 14.4746 20.987 14.4633 20.081 14.7804C19.6959 14.9163 19.4354 15.1315 19.4127 15.2561C19.2768 14.8144 20.3188 14.4746 20.8738 13.9989Z" fill="#D4A11E"/>
<path d="M19.424 17.1702C19.424 17.1702 19.1068 16.7964 19.0389 16.2188C18.9823 15.6185 19.3334 15.3807 19.356 15.358L21.9383 14.4633C21.9383 14.4633 21.8704 14.6558 21.927 15.1768C21.9836 15.6185 22.414 16.2188 22.414 16.2188C22.414 16.2188 21.0323 16.2641 20.1828 16.5925C19.6618 16.7964 19.424 17.1702 19.424 17.1702Z" fill="#FFC758"/>
<path d="M21.1455 15.6752C21.7005 15.1995 21.961 14.4746 21.961 14.4746C21.961 14.4746 21.893 14.8823 21.961 15.2108C22.0856 15.7658 22.4933 16.2415 22.4933 16.2415C22.4933 16.2415 21.2928 16.2641 20.4207 16.5473C19.8544 16.7398 19.5033 17.0796 19.4466 17.1815C19.3107 16.6832 20.5792 16.1508 21.1455 15.6752Z" fill="#D4A11E"/>
<path d="M23.3769 19.2881C23.3769 19.2881 22.6747 18.3821 22.4708 17.5779C22.3462 17.0456 22.4368 16.4453 22.4821 16.2415C22.4029 16.5246 22.1197 17.4307 21.4288 18.0763C20.7719 18.6879 19.4694 18.9823 19.7526 19.5486C19.7979 19.458 19.9564 19.2428 20.4888 19.1069L20.4774 19.8431H20.7266V19.0616C21.8592 18.8691 23.3769 19.2881 23.3769 19.2881Z" fill="#D4A11E"/>
<path d="M24.5774 20.9983C24.7359 20.9643 24.8945 20.9304 25.1323 20.8737C25.121 20.8624 25.0984 20.8511 25.087 20.8397C24.8265 20.5453 24.8719 20.2395 25.0304 20.0922C25.608 19.5486 25.5967 19.1522 25.5967 19.1522C25.5967 19.1522 24.181 19.4467 22.3235 19.5373C22.1989 19.5486 21.7685 19.7411 21.644 19.7411C21.3835 19.7525 21.123 19.7638 20.8511 19.7638C17.3401 19.7978 16.3547 19.5486 15.2108 19.3334C14.0442 19.1182 13.5346 18.8804 13.5346 18.8804L13.4893 19.0049C13.4893 19.0049 14.4067 19.3674 15.0749 19.6845C15.2108 19.7525 15.7658 20.5793 15.947 20.8511H11.7677C11.5412 16.0715 12.4586 12.1527 12.4586 12.1527C12.4586 12.1527 15.6525 11.4732 20.4547 11.4732V10.9635C15.358 10.9635 11.9716 11.6884 11.9716 11.6884C11.9716 11.6884 10.4879 16.9096 11.2694 23.1389C11.5978 25.7326 13.7384 30.5914 20.4434 32.8339L20.7379 32.4262L20.4434 32.0185C14.1348 29.9118 12.3 25.6306 11.9716 23.1955C11.9036 22.6519 11.847 22.1196 11.813 21.5986H20.4661V20.8624H16.0263C16.1282 20.5453 16.434 20.466 16.8304 20.5566C17.2268 20.6585 17.6346 20.7605 18.0083 20.7378C18.9597 20.6925 18.8238 20.432 18.9144 20.432C19.8998 20.4886 20.2622 20.7378 21.1116 20.7152C21.8931 20.7038 22.1649 20.5 22.2329 20.5C23.1843 20.4886 23.5467 20.9304 24.4981 21.0096C24.5207 20.9983 24.5547 20.9983 24.5774 20.9983Z" fill="#FFC758"/>
<path d="M28.9378 11.677C28.9378 11.677 25.5514 10.9521 20.4547 10.9521V11.4618C25.2569 11.4618 28.4395 12.1414 28.4395 12.1414C28.4395 12.1414 29.3682 16.0602 29.1304 20.8397H24.9511C24.6226 20.5226 24.8152 20.1035 24.9171 20.0016C25.4041 19.5599 25.4041 19.2654 25.4041 19.2654C25.4041 19.2654 24.2715 19.5486 22.4141 19.6278C22.2895 19.6278 21.7685 19.8657 21.6439 19.8657C21.3834 19.877 21.021 19.8883 20.7492 19.8883C18.3254 19.8883 17.1362 19.843 15.0295 19.39C15.0748 19.4353 15.0862 19.458 15.1315 19.5146C15.1428 19.5372 16.0489 19.7638 16.0602 19.7864C16.1961 19.9789 16.3773 20.1035 16.6039 20.2281C16.9436 20.4093 17.442 20.5566 17.8497 20.5905C18.8011 20.6472 18.6199 20.2847 18.7105 20.2847C19.6845 20.2621 20.3074 20.6132 21.1682 20.6019C21.9497 20.5905 21.9724 20.3414 22.0516 20.3414C22.8218 20.2961 23.6033 20.6359 24.2715 20.851H20.4434V21.5872H29.0738C29.0284 22.1196 28.9831 22.6519 28.9152 23.1842C28.5981 25.6306 26.7519 29.8892 20.4434 32.0071V32.8226C27.137 30.5687 29.2889 25.7212 29.6174 23.1276C30.4215 16.9096 28.9378 11.677 28.9378 11.677Z" fill="#D4A11E"/>
<path d="M4.82495 13.931L5.17606 13.2628L6.76169 13.1495L5.95755 11.7791L6.30865 11.1222L9.11749 12.6059L8.80037 13.2175L6.95423 12.2548L7.74705 13.6705L7.73573 13.6819L6.13876 13.8404L7.96225 14.8031L7.63379 15.4147L4.82495 13.931Z" fill="#00285E"/>
<path d="M8.0415 8.92491L8.48322 8.44922L11.7451 9.64977L11.2354 10.1934L10.5106 9.91027L9.59316 10.8956L9.91029 11.5978L9.42327 12.1188L8.0415 8.92491ZM9.91029 9.68375L8.8683 9.28734L9.33266 10.2954L9.91029 9.68375Z" fill="#00285E"/>
<path d="M10.5559 6.61437L11.1109 6.28592L13.3987 7.19199L12.3907 5.51575L12.9797 5.15332L14.6219 7.87155L14.1123 8.17735L11.7565 7.24862L12.7985 8.9815L12.2095 9.34393L10.5559 6.61437Z" fill="#00285E"/>
<path d="M14.8371 6.07072C14.588 5.18729 15.0297 4.29254 15.9697 4.02072C16.536 3.85083 16.9551 3.95276 17.3062 4.1453L17.0117 4.76823C16.7059 4.62099 16.4454 4.55304 16.1283 4.64365C15.6186 4.79088 15.3694 5.3232 15.5167 5.85552V5.86685C15.6639 6.38784 16.1623 6.7163 16.6833 6.56906C17.0344 6.46713 17.2043 6.26326 17.3855 5.98011L17.9404 6.28591C17.7252 6.7163 17.4308 7.0221 16.8531 7.19199C15.9584 7.45249 15.0863 6.94282 14.8371 6.07072Z" fill="#00285E"/>
<path d="M18.6426 3.51107L19.3335 3.48842L19.3788 4.75693L20.6586 4.72295L20.6246 3.46577L21.3268 3.44312L21.4061 6.62571L20.7152 6.64836L20.6813 5.36853L19.3901 5.40251L19.4241 6.67102L18.7332 6.69367L18.6426 3.51107Z" fill="#00285E"/>
<path d="M25.4495 7.05615L26.0271 6.773C26.1857 7.10145 26.4008 7.37328 26.7293 7.52051C26.9898 7.6451 27.1937 7.61112 27.2729 7.44123V7.42991C27.3522 7.27134 27.2843 7.13543 26.8652 6.79565C26.3555 6.37659 26.0497 6.04814 26.3102 5.47052V5.45919C26.5481 4.9382 27.1257 4.79096 27.726 5.06278C28.145 5.25532 28.4508 5.5498 28.6321 5.92355L28.0771 6.25201C27.9072 5.94621 27.692 5.73101 27.4542 5.61775C27.2163 5.50449 27.0351 5.56112 26.9671 5.69703V5.70836C26.8765 5.9009 26.9785 6.01416 27.4202 6.37659C27.9299 6.79565 28.1677 7.16941 27.9299 7.66775V7.70173C27.6694 8.26803 27.0804 8.39261 26.4575 8.10946C26.0271 7.88294 25.6533 7.53184 25.4495 7.05615Z" fill="#00285E"/>
<path d="M30.0931 7.24864L29.3229 6.65969L29.708 6.15002L31.8033 7.73566L31.4069 8.25665L30.6367 7.6677L29.1077 9.68373L28.5527 9.25334L30.0931 7.24864Z" fill="#00285E"/>
<path d="M35.1106 11.7563L35.7562 13.0588C35.9374 13.4213 35.9714 13.7497 35.8808 14.0329C35.8015 14.2707 35.6203 14.4633 35.3484 14.5992H35.3371C34.8727 14.8257 34.465 14.7238 34.1479 14.4293L33.4796 15.6298L33.1059 14.8936L33.7062 13.8177L33.457 13.3307L32.5509 13.795L32.2451 13.1721L35.1106 11.7563ZM34.3631 13.7157C34.5103 14.0215 34.7595 14.1121 35.0087 13.9989H35.02C35.2918 13.8743 35.3258 13.6138 35.1785 13.308L34.8727 12.6851L34.0573 13.0928L34.3631 13.7157Z" fill="#00285E"/>
<path d="M23.3203 5.64037L24.4982 5.90087L24.8266 5.33457L23.4675 5.04009L23.5921 4.40584L25.257 4.76827L25.3929 4.16799L23.0371 3.65833L22.3689 6.76164L24.7473 7.28264L24.8719 6.67103L23.1844 6.29728L23.3203 5.64037Z" fill="#00285E"/>
<path d="M32.7662 8.68701L30.3198 10.7257L31.8828 12.5831L32.3472 12.1867L31.2486 10.8616L31.7582 10.4312L32.5397 11.3599L33.174 11.1561L32.2452 10.0348L32.7323 9.61574L33.8196 10.9182L34.3066 10.5218L32.7662 8.68701Z" fill="#00285E"/>
<path d="M15.1089 35.7901C15.1089 34.8614 15.7998 34.1139 16.7965 34.1139C17.4081 34.1139 17.7705 34.3178 18.0763 34.6122L17.6233 35.1332C17.3741 34.9067 17.1249 34.7708 16.7965 34.7708C16.2415 34.7708 15.8564 35.2238 15.8564 35.7788V35.7901C15.8564 36.3451 16.2415 36.8095 16.7965 36.8095C17.1702 36.8095 17.3967 36.6622 17.6459 36.4244L18.0989 36.8888C17.7705 37.2512 17.3967 37.4664 16.7625 37.4664C15.8111 37.4551 15.1089 36.7189 15.1089 35.7901Z" fill="#00285E"/>
<path d="M18.7898 34.1592H19.5033V37.3871H18.7898V34.1592Z" fill="#00285E"/>
<path d="M21.1455 34.8274H20.1602V34.1705H22.8444V34.8274H21.859V37.4098H21.1455V34.8274Z" fill="#00285E"/>
<path d="M24.3962 36.1299L23.1504 34.1705H23.9772L24.7473 35.473L25.5288 34.1705H26.3443L25.0985 36.1073V37.3984H24.3849V36.1299H24.3962Z" fill="#00285E"/>
</svg>
