<svg width="31" height="26" viewBox="0 0 31 26" fill="none" xmlns="http://www.w3.org/2000/svg">
<path d="M12.9752 24.652L13.1532 24.741C14.0875 25.2305 15.1108 25.4974 16.1787 25.4974C17.4244 25.4974 18.6702 25.1415 19.7825 24.3851C21.4288 23.3173 24.0983 22.0715 27.6132 22.3829L27.9247 22.4274L28.1026 22.205C30.0603 19.6689 31.0836 16.5099 30.9947 13.3065C30.7277 6.00969 24.8547 0.181174 17.5579 0.00320422C11.3735 -0.130273 5.76741 3.91854 4.0322 9.88054C3.94321 10.192 3.98771 10.5479 4.12118 10.8149C4.29915 11.1263 4.56611 11.3043 4.87756 11.3933L7.23566 12.0162L6.79073 16.4209H1.27366C0.87323 16.4209 0.51729 16.5989 0.294828 16.8659C0.0723654 17.1773 -0.0611121 17.5332 0.0278729 17.9337L1.22917 24.5631H4.0322C5.8119 24.3851 7.28015 22.8723 7.45812 20.9592L7.81406 17.5332H9.86072C9.14884 20.2918 10.3946 23.2283 12.9752 24.652ZM6.34581 20.8702C6.21233 22.205 5.14451 23.3618 3.94321 23.4952H2.16351L1.58511 20.2473H6.43479L6.34581 20.8702ZM6.52378 19.0905H1.31816L1.09569 17.7557C1.09569 17.6667 1.09569 17.6222 1.14019 17.6222C1.14019 17.5777 1.18468 17.5777 1.27366 17.5777H6.65726L6.52378 19.0905ZM5.189 10.3255C5.14451 10.3255 5.10002 10.281 5.10002 10.281C5.10002 10.281 5.05553 10.2365 5.10002 10.192C6.65726 4.80839 11.6404 1.11552 17.2465 1.11552C17.3355 1.11552 17.4689 1.11552 17.5579 1.11552C24.2318 1.29349 29.6599 6.63259 29.8823 13.351C29.9713 16.1985 29.0815 19.0015 27.3908 21.3151C23.7424 21.0482 20.8949 22.3829 19.1596 23.5397C17.5134 24.652 15.4223 24.741 13.6871 23.8067L13.5091 23.7177C11.0175 22.3384 10.0387 19.3129 11.329 16.7324C11.8629 15.7091 11.8629 14.5078 11.3735 13.4399C10.884 12.3721 9.99419 11.6157 8.88188 11.3043L5.189 10.3255ZM9.77173 16.4209H7.90304L8.25899 12.8615L8.30348 12.2831L8.52594 12.3276C9.32681 12.5501 9.9497 13.084 10.3056 13.8404C10.6616 14.5967 10.6171 15.4421 10.2611 16.154C10.1277 16.3764 10.0387 16.6434 9.9497 16.8659V16.3764H9.77173V16.4209Z" fill="#7E819E"/>
<path d="M16.1342 21.76C17.6024 21.76 18.8037 20.5587 18.8037 19.0905C18.8037 17.6222 17.6024 16.4209 16.1342 16.4209C14.6659 16.4209 13.4646 17.6222 13.4646 19.0905C13.4646 20.5587 14.6659 21.76 16.1342 21.76ZM16.1342 17.5332C16.9795 17.5332 17.6914 18.2451 17.6914 19.0905C17.6914 19.9358 16.9795 20.6477 16.1342 20.6477C15.2888 20.6477 14.5769 19.9358 14.5769 19.0905C14.5769 18.2451 15.2888 17.5332 16.1342 17.5332Z" fill="#7E819E"/>
</svg>
