<svg width="17" height="19" viewBox="0 0 17 19" fill="none" xmlns="http://www.w3.org/2000/svg">
<path d="M0.330016 0.298291C0.132006 0.529302 0 0.892319 0 1.32134V17.5911C0 17.9541 0.0990048 18.2512 0.231011 18.4822L9.27345 9.34073L0.330016 0.298291Z" fill="white"/>
<path d="M9.60347 9.04371L12.4086 6.20558L1.88109 0.232287C1.41907 0.00127624 1.02305 -0.064727 0.726035 0.0672794L9.60347 9.04371Z" fill="white"/>
<path d="M9.60347 9.70375L0.561027 18.8122C0.891043 19.0102 1.35307 18.9772 1.84809 18.6802L12.4746 12.6409L9.60347 9.70375Z" fill="white"/>
<path d="M16.2368 8.41668L12.8046 6.46959L9.90048 9.37373L12.9036 12.4099L16.2038 10.5288C17.2598 9.93476 17.2598 8.97771 16.2368 8.41668Z" fill="white"/>
</svg>
