<svg width="16" height="18" viewBox="0 0 16 18" fill="none" xmlns="http://www.w3.org/2000/svg">
<path d="M13.1877 9.52447C13.1564 7.26867 15.0362 6.17211 15.1302 6.10945C14.065 4.57425 12.4358 4.35494 11.8405 4.32361C10.462 4.16696 9.11476 5.1382 8.42549 5.1382C7.70489 5.1382 6.60832 4.32361 5.4491 4.35494C3.94523 4.38627 2.53536 5.26352 1.7521 6.61073C0.154245 9.36782 1.3448 13.4408 2.88 15.6652C3.63193 16.7618 4.54051 17.9837 5.69974 17.921C6.82764 17.8584 7.26626 17.2004 8.6448 17.2004C10.0233 17.2004 10.3993 17.921 11.5899 17.8897C12.8118 17.8584 13.595 16.7931 14.3156 15.6966C15.1929 14.4433 15.5375 13.2215 15.5688 13.1588C15.5688 13.1588 13.2191 12.2502 13.1877 9.52447Z" fill="white"/>
<path d="M10.9319 2.8824C11.5585 2.09914 11.9658 1.06524 11.8405 0C10.9633 0.0313305 9.83536 0.626609 9.20875 1.37854C8.6448 2.03648 8.14351 3.13305 8.26883 4.13562C9.27141 4.19828 10.3053 3.63433 10.9319 2.8824Z" fill="white"/>
</svg>
