<svg width="17" height="16" viewBox="0 0 17 16" fill="none" xmlns="http://www.w3.org/2000/svg">
<path d="M1.82138 12.2807L7.55999 2.44128C7.66934 2.25492 7.81435 2.10866 7.98313 2.01194C8.15191 1.91522 8.34922 1.86568 8.57031 1.86568C8.78901 1.86568 8.9887 1.91758 9.15748 2.01194C9.32626 2.10866 9.47127 2.25256 9.58062 2.44128L15.3145 12.2807C15.4238 12.4671 15.4785 12.6652 15.4785 12.8587C15.4785 13.0545 15.4238 13.2526 15.3169 13.439C15.2099 13.623 15.0649 13.7693 14.8937 13.866C14.7249 13.9627 14.5276 14.0146 14.3089 14.0146H2.8317C2.61299 14.0146 2.41568 13.9627 2.2469 13.866C2.07574 13.7669 1.93073 13.623 1.82375 13.439C1.7144 13.2526 1.6621 13.0545 1.6621 12.8587C1.65735 12.6652 1.71203 12.4695 1.82138 12.2807ZM6.64713 1.91758L0.908525 11.757C0.706461 12.1038 0.604241 12.4812 0.604241 12.8587C0.604241 13.2361 0.704084 13.6112 0.906149 13.9604C1.11059 14.3095 1.38635 14.5855 1.7144 14.7742C2.04484 14.9653 2.42519 15.0667 2.82932 15.0667H14.3065C14.7107 15.0667 15.0886 14.9653 15.4215 14.7742C15.7495 14.5855 16.0276 14.3095 16.2297 13.9604C16.4318 13.6112 16.5316 13.2361 16.5316 12.8587C16.5316 12.4789 16.4294 12.1038 16.2273 11.757L10.4887 1.91758C10.2867 1.5708 10.0085 1.29716 9.67809 1.10844C9.34766 0.917356 8.96968 0.815918 8.56793 0.815918C8.16618 0.815918 7.7882 0.917356 7.45777 1.10608C7.12733 1.29716 6.8492 1.5708 6.64713 1.91758Z" fill="#CF142B"/>
<path fill-rule="evenodd" clip-rule="evenodd" d="M8.56793 10.1647C8.69392 10.1741 8.79852 10.0868 8.88172 9.90284C8.88172 9.90284 9.04575 9.0017 9.37618 7.19941C9.44512 6.82669 9.53546 6.41622 9.51406 6.06237C9.44275 4.9206 7.69311 4.90645 7.6218 6.06237C7.6004 6.41386 7.69073 6.82669 7.75967 7.19941C8.09011 9.0017 8.25414 9.90284 8.25414 9.90284C8.33734 10.0868 8.44194 10.1741 8.56793 10.1647Z" fill="#CF142B"/>
<path fill-rule="evenodd" clip-rule="evenodd" d="M8.57093 10.8987C8.16681 10.8987 7.84113 11.2219 7.84113 11.6229C7.84113 12.024 8.16681 12.3471 8.57093 12.3471C8.97506 12.3471 9.30074 12.024 9.30074 11.6229C9.30074 11.2242 8.97506 10.8987 8.57093 10.8987Z" fill="#CF142B"/>
<path d="M1.82138 12.2807L7.55999 2.44128C7.66934 2.25492 7.81435 2.10866 7.98313 2.01194C8.15191 1.91522 8.34922 1.86568 8.57031 1.86568C8.78901 1.86568 8.9887 1.91758 9.15748 2.01194C9.32626 2.10866 9.47127 2.25256 9.58062 2.44128L15.3145 12.2807C15.4238 12.4671 15.4785 12.6652 15.4785 12.8587C15.4785 13.0545 15.4238 13.2526 15.3169 13.439C15.2099 13.623 15.0649 13.7693 14.8937 13.866C14.7249 13.9627 14.5276 14.0146 14.3089 14.0146H2.8317C2.61299 14.0146 2.41568 13.9627 2.2469 13.866C2.07574 13.7669 1.93073 13.623 1.82375 13.439C1.7144 13.2526 1.6621 13.0545 1.6621 12.8587C1.65735 12.6652 1.71203 12.4695 1.82138 12.2807ZM6.64713 1.91758L0.908525 11.757C0.706461 12.1038 0.604241 12.4812 0.604241 12.8587C0.604241 13.2361 0.704084 13.6112 0.906149 13.9604C1.11059 14.3095 1.38635 14.5855 1.7144 14.7742C2.04484 14.9653 2.42519 15.0667 2.82932 15.0667H14.3065C14.7107 15.0667 15.0886 14.9653 15.4215 14.7742C15.7495 14.5855 16.0276 14.3095 16.2297 13.9604C16.4318 13.6112 16.5316 13.2361 16.5316 12.8587C16.5316 12.4789 16.4294 12.1038 16.2273 11.757L10.4887 1.91758C10.2867 1.5708 10.0085 1.29716 9.67809 1.10844C9.34766 0.917356 8.96968 0.815918 8.56793 0.815918C8.16618 0.815918 7.7882 0.917356 7.45777 1.10608C7.12733 1.29716 6.8492 1.5708 6.64713 1.91758Z" stroke="#CF142B" stroke-width="0.474576" stroke-miterlimit="10"/>
<path fill-rule="evenodd" clip-rule="evenodd" d="M8.56793 10.1647C8.69392 10.1741 8.79852 10.0868 8.88172 9.90284C8.88172 9.90284 9.04575 9.0017 9.37618 7.19941C9.44512 6.82669 9.53546 6.41622 9.51406 6.06237C9.44275 4.9206 7.69311 4.90645 7.6218 6.06237C7.6004 6.41386 7.69073 6.82669 7.75967 7.19941C8.09011 9.0017 8.25414 9.90284 8.25414 9.90284C8.33734 10.0868 8.44194 10.1741 8.56793 10.1647Z" stroke="#CF142B" stroke-width="0.474576" stroke-miterlimit="10"/>
<path fill-rule="evenodd" clip-rule="evenodd" d="M8.57093 10.8987C8.16681 10.8987 7.84113 11.2219 7.84113 11.6229C7.84113 12.024 8.16681 12.3471 8.57093 12.3471C8.97506 12.3471 9.30074 12.024 9.30074 11.6229C9.30074 11.2242 8.97506 10.8987 8.57093 10.8987Z" stroke="#CF142B" stroke-width="0.474576" stroke-miterlimit="10"/>
</svg>
