<svg width="36" height="32" viewBox="0 0 36 32" fill="none" xmlns="http://www.w3.org/2000/svg">
<path d="M24.1935 21.35L23.8997 20.6061L23.8965 20.6074L24.1935 21.35ZM9.77919 27.117L10.073 27.8609L10.0763 27.8596L9.77919 27.117ZM8.81823 26.752L9.55953 26.4517L9.55852 26.4493L8.81823 26.752ZM1.05665 7.77196L0.315354 8.07222L0.316365 8.07469L1.05665 7.77196ZM1.42625 6.82296L1.7201 7.56683L1.72334 7.56553L1.42625 6.82296ZM15.8406 1.05595L15.5468 0.312081L15.5435 0.313381L15.8406 1.05595ZM16.8016 1.42095L16.0602 1.72121L16.0627 1.72715L16.8016 1.42095ZM24.6371 20.328L25.4257 20.1949L25.4106 20.1055L25.3759 20.0218L24.6371 20.328ZM34.4684 10.035L34.7622 9.29111L34.7188 9.27394L34.6736 9.26195L34.4684 10.035ZM34.9858 10.911L35.7498 11.1477L35.7617 11.1092L35.7697 11.0697L34.9858 10.911ZM28.9244 30.475L29.6657 30.7753L29.6784 30.744L29.6884 30.7117L28.9244 30.475ZM28.0374 30.986L27.8193 31.7555L27.8505 31.7644L27.8824 31.7707L28.0374 30.986ZM12.5919 18.857C12.2229 19.0999 12.1207 19.5959 12.3636 19.9648C12.6065 20.3337 13.1025 20.4359 13.4715 20.193L12.5919 18.857ZM14.584 18.503L14.3062 17.753C14.2802 17.7626 14.2547 17.7736 14.2299 17.7859L14.584 18.503ZM16.432 18.9378C16.8737 18.9378 17.2318 18.5797 17.2318 18.138C17.2318 17.6963 16.8737 17.3382 16.432 17.3382V18.9378ZM13.6969 16.24L13.9673 15.4873C13.5875 15.3509 13.1656 15.5187 12.9834 15.8787L13.6969 16.24ZM16.358 15.437L15.7669 14.8983C15.7626 14.903 15.7583 14.9079 15.754 14.9127L16.358 15.437ZM16.7276 12.882L15.9864 13.1822C15.9916 13.1952 15.9972 13.208 16.0031 13.2206L16.7276 12.882ZM11.1097 9.96197L11.7109 9.43442C11.4815 9.173 11.1094 9.08982 10.7905 9.22865C10.4716 9.36749 10.279 9.6965 10.314 10.0425L11.1097 9.96197ZM11.2576 17.481L11.3448 16.686C11.3359 16.685 11.3271 16.6842 11.3182 16.6835L11.2576 17.481ZM23.8965 20.6074L9.4821 26.3744L10.0763 27.8596L24.4906 22.0926L23.8965 20.6074ZM9.48535 26.3731C9.48603 26.3729 9.48559 26.3731 9.48439 26.3732C9.48288 26.3732 9.48419 26.3728 9.48901 26.3745C9.494 26.3764 9.5059 26.3817 9.52047 26.3951C9.53603 26.4095 9.55042 26.4293 9.55953 26.4517L8.07694 27.0523C8.42021 27.8998 9.37538 28.1365 10.073 27.8609L9.48535 26.3731ZM9.55852 26.4493L1.79694 7.46923L0.316365 8.07469L8.07794 27.0547L9.55852 26.4493ZM1.79795 7.47171C1.79987 7.47645 1.80134 7.48261 1.79676 7.49489C1.79387 7.50264 1.78727 7.51581 1.77339 7.53051C1.75867 7.54611 1.73972 7.55907 1.72009 7.56682L1.13241 6.0791C0.28376 6.41434 0.0284945 7.36398 0.315358 8.07222L1.79795 7.47171ZM1.72334 7.56553L16.1377 1.79852L15.5435 0.313381L1.12916 6.08039L1.72334 7.56553ZM16.1345 1.79981C16.1338 1.80008 16.1342 1.79981 16.1354 1.79979C16.1369 1.79978 16.1356 1.80017 16.1308 1.79841C16.1258 1.7966 16.1139 1.79123 16.0993 1.77782C16.0838 1.7635 16.0694 1.74369 16.0603 1.7212L17.5429 1.1207C17.1996 0.273187 16.2444 0.0365002 15.5468 0.312088L16.1345 1.79981ZM16.0627 1.72715L23.8982 20.6342L25.3759 20.0218L17.5404 1.11475L16.0627 1.72715ZM23.8484 20.4611C23.8561 20.5066 23.8572 20.5478 23.8542 20.5818C23.8512 20.6161 23.8445 20.6379 23.8403 20.6482C23.8363 20.6582 23.8365 20.653 23.8479 20.6409C23.8606 20.6275 23.8792 20.6142 23.8997 20.6061L24.4874 22.0939C25.3593 21.7494 25.5308 20.8176 25.4257 20.1949L23.8484 20.4611ZM27.3886 8.98298L34.2632 10.808L34.6736 9.26195L27.7991 7.43695L27.3886 8.98298ZM34.1746 10.7788C34.1989 10.7884 34.2066 10.8006 34.2063 10.8001C34.206 10.7996 34.2033 10.7948 34.2016 10.7855C34.1997 10.7755 34.1996 10.7637 34.202 10.7522L35.7697 11.0697C35.9313 10.2719 35.4396 9.55867 34.7622 9.29111L34.1746 10.7788ZM34.2219 10.6743L28.1604 30.2383L29.6884 30.7117L35.7498 11.1477L34.2219 10.6743ZM28.1831 30.1748C28.1753 30.194 28.1648 30.2018 28.1623 30.2032C28.1614 30.2037 28.1637 30.2022 28.1698 30.2011C28.1763 30.1999 28.1844 30.1998 28.1924 30.2014L27.8824 31.7707C28.6693 31.9261 29.3902 31.4555 29.6657 30.7753L28.1831 30.1748ZM28.2555 30.2165L12.2888 25.6905L11.8526 27.2295L27.8193 31.7555L28.2555 30.2165ZM17.9843 3.89975H26.8547V2.30016H17.9843V3.89975ZM26.8547 3.89975C26.8777 3.89975 26.8821 3.90346 26.8733 3.9001C26.8637 3.89646 26.8464 3.88739 26.8286 3.86977C26.8107 3.85208 26.8003 3.83376 26.7955 3.82136C26.7909 3.80969 26.7941 3.81065 26.7941 3.82995H28.3937C28.3937 3.42617 28.2536 3.02892 27.9526 2.73163C27.6524 2.43523 27.2552 2.30016 26.8547 2.30016V3.89975ZM26.7941 3.82995V24.27H28.3937V3.82995H26.7941ZM26.7941 24.27C26.7941 24.2893 26.7909 24.2903 26.7955 24.2786C26.8003 24.2662 26.8107 24.2479 26.8286 24.2302C26.8464 24.2126 26.8637 24.2035 26.8733 24.1999C26.8821 24.1965 26.8777 24.2002 26.8547 24.2002V25.7998C27.2552 25.7998 27.6524 25.6647 27.9526 25.3683C28.2536 25.071 28.3937 24.6738 28.3937 24.27H26.7941ZM26.8547 24.2002H15.0275V25.7998H26.8547V24.2002ZM13.4715 20.193C13.5856 20.1179 13.895 19.8872 14.1282 19.7237C14.4087 19.5272 14.7 19.3377 14.9381 19.2201L14.2299 17.7859C13.8766 17.9603 13.5027 18.2088 13.2102 18.4138C12.8706 18.6518 12.6995 18.7861 12.5919 18.857L13.4715 20.193ZM14.8617 19.253C15.0942 19.1669 15.4303 19.0856 15.762 19.0252C16.1039 18.963 16.3595 18.9378 16.432 18.9378V17.3382C16.2087 17.3382 15.836 17.3859 15.4757 17.4515C15.1051 17.5189 14.6651 17.6201 14.3062 17.753L14.8617 19.253ZM13.4266 16.9927C14.0898 17.2309 14.8577 17.0899 15.4243 16.8966C15.9978 16.7009 16.6096 16.3674 16.9621 15.9612L15.754 14.9127C15.663 15.0176 15.3508 15.2316 14.9079 15.3827C14.4581 15.5361 14.1172 15.5411 13.9673 15.4873L13.4266 16.9927ZM16.9492 15.9757C17.3713 15.5125 17.6577 14.9696 17.7495 14.3609C17.8413 13.7522 17.7296 13.1369 17.4522 12.5433L16.0031 13.2206C16.1692 13.576 16.2054 13.8733 16.1678 14.1223C16.1302 14.3713 16.0101 14.6315 15.7669 14.8983L16.9492 15.9757ZM17.4689 12.5817C17.1887 11.8898 16.6313 11.4314 16.0655 11.1128C15.4994 10.7941 14.8402 10.5685 14.236 10.3835C13.5954 10.1873 13.0507 10.0453 12.5566 9.86984C12.0471 9.68891 11.8023 9.53855 11.7109 9.43442L10.5086 10.4895C10.8977 10.9329 11.503 11.1932 12.0214 11.3772C12.5553 11.5668 13.2164 11.7441 13.7677 11.913C14.3555 12.093 14.8744 12.2779 15.2808 12.5067C15.6875 12.7357 15.897 12.9617 15.9864 13.1822L17.4689 12.5817ZM10.314 10.0425C10.3267 10.1681 10.273 10.429 10.0468 10.9003C9.82805 11.3561 9.54327 11.828 9.226 12.4057C8.92644 12.9512 8.61266 13.5674 8.42954 14.1924C8.24562 14.8201 8.16943 15.5369 8.44256 16.2382L9.9331 15.6577C9.83663 15.41 9.83436 15.0866 9.96459 14.6421C10.0956 14.1949 10.3363 13.707 10.6281 13.1757C10.9021 12.6767 11.2457 12.0992 11.4889 11.5924C11.7248 11.1009 11.9667 10.4858 11.9055 9.88139L10.314 10.0425ZM8.44256 16.2382C8.92771 17.4839 9.94007 18.183 11.197 18.2785L11.3182 16.6835C10.6532 16.633 10.1872 16.3101 9.9331 15.6577L8.44256 16.2382ZM11.1703 18.276C11.7182 18.3361 12.3959 18.1382 12.9312 17.8841C13.4621 17.632 14.1042 17.2063 14.4105 16.6013L12.9834 15.8787C12.9201 16.0037 12.6751 16.235 12.2451 16.4391C11.8194 16.6412 11.4622 16.6988 11.3448 16.686L11.1703 18.276Z" fill="#807D9B"/>
</svg>
