<svg width="20" height="20" viewBox="0 0 20 20" fill="none" xmlns="http://www.w3.org/2000/svg">
<path d="M10 20C15.5282 20 20 15.5282 20 10C20 4.47183 15.5282 0 10 0C4.47183 0 0 4.47183 0 10C0 15.5282 4.47183 20 10 20ZM15.8099 17.0423C15.4577 17.3239 15.1056 17.5704 14.7535 17.8169C14.6127 17.8873 14.507 17.9577 14.3662 18.0282C14.1197 18.169 13.838 18.3099 13.5563 18.4155C12.4648 18.8732 11.2676 19.1197 10 19.1197C8.73239 19.1197 7.53521 18.8732 6.44366 18.4155C6.16197 18.3099 5.91549 18.169 5.6338 18.0282C5.49296 17.9577 5.38732 17.8873 5.24648 17.8169C4.85915 17.6056 4.50704 17.3239 4.19014 17.0423C4.19014 17.0423 4.19014 17.0423 4.15493 17.0423L4.22535 16.9366C5.42254 15 6.05634 12.7465 6.09155 10.3873H9.61268V19.1197H10.3169V10.3521H13.838C13.9085 12.7465 14.5423 15 15.7042 16.9014L15.8099 17.0423ZM19.1197 10.493C19.1197 10.5282 19.1197 10.5634 19.1197 10.6338C19.1197 10.669 19.1197 10.669 19.1197 10.7042C19.1197 10.8099 19.1197 10.8803 19.0845 10.9859C19.0845 11.0211 19.0845 11.0915 19.0493 11.1268C19.0493 11.2324 19.0141 11.338 19.0141 11.4437C19.0141 11.4789 19.0141 11.5141 18.9789 11.5845C18.9437 11.6901 18.9437 11.7958 18.9085 11.9014C18.9085 11.9366 18.8732 11.9718 18.8732 12.007V12.0423C18.838 12.1479 18.838 12.2183 18.8028 12.3239C18.8028 12.3592 18.7676 12.3944 18.7676 12.4296C18.7324 12.5352 18.6972 12.6408 18.662 12.7817C18.662 12.8169 18.6268 12.8521 18.6268 12.8521C18.6268 12.8873 18.5915 12.9225 18.5915 12.9577C18.5563 13.0282 18.5211 13.1338 18.5211 13.2042C18.5211 13.2394 18.4859 13.2394 18.4859 13.2746C18.4859 13.3099 18.4507 13.3803 18.4155 13.4155C18.3803 13.4859 18.3451 13.5563 18.3099 13.6268C18.3099 13.6268 18.3099 13.662 18.2746 13.662C18.2042 13.7676 18.169 13.9085 18.0986 14.0141C18.0986 14.0141 18.0986 14.0493 18.0634 14.0493C18.0282 14.1549 17.9577 14.2254 17.9225 14.331C17.9225 14.3662 17.8873 14.4014 17.8873 14.4014C17.8873 14.4014 17.8873 14.4014 17.8873 14.4366C17.8169 14.5775 17.7465 14.6831 17.6761 14.7887C17.6408 14.8592 17.5704 14.9296 17.5352 15C17.5 15.0352 17.4648 15.1056 17.4296 15.1408C17.2535 15.3873 17.1127 15.5986 16.9366 15.8099C16.9014 15.8451 16.8662 15.8803 16.831 15.9155C16.6549 16.1268 16.4789 16.3028 16.2676 16.5141C15.1761 14.7887 14.5423 12.6408 14.4718 10.3169H19.0141C19.1197 10.3873 19.1197 10.4225 19.1197 10.493ZM16.3732 3.48592C16.7958 3.90845 17.1479 4.33099 17.5 4.82394C17.5704 4.92958 17.6408 5.03521 17.7113 5.14085L17.7465 5.17606C17.8169 5.3169 17.8873 5.42254 17.9577 5.56338C17.9577 5.56338 17.9577 5.56338 17.9577 5.59859C18.0282 5.70423 18.0986 5.84507 18.1338 5.9507V5.98592C18.2042 6.09155 18.2394 6.23239 18.3099 6.33803C18.3099 6.33803 18.3099 6.37324 18.3451 6.37324C18.3803 6.44366 18.4155 6.51408 18.4507 6.58451C18.4859 6.61972 18.4859 6.69014 18.5211 6.72535C18.5211 6.76056 18.5563 6.76056 18.5563 6.79577C18.5915 6.90141 18.6268 7.04225 18.662 7.14789C18.662 7.1831 18.6972 7.21831 18.6972 7.21831C18.7324 7.32394 18.7676 7.42958 18.8028 7.57042C18.8028 7.60563 18.838 7.64084 18.838 7.67606C18.838 7.74648 18.8732 7.78169 18.8732 7.85211C18.8732 7.88732 18.9085 7.95775 18.9085 7.99296C18.9085 8.02817 18.9437 8.06338 18.9437 8.09859C18.9789 8.20423 18.9789 8.30986 19.0141 8.41549C19.0141 8.4507 19.0141 8.48592 19.0493 8.55634C19.0493 8.62676 19.0845 8.73239 19.0845 8.80282C19.0845 8.83803 19.0845 8.83803 19.0845 8.87324C19.0845 8.90845 19.0845 8.97887 19.1197 9.01408C19.1197 9.0493 19.1197 9.0493 19.1197 9.08451C19.1197 9.19014 19.1197 9.26056 19.1549 9.3662C19.1549 9.40141 19.1549 9.43662 19.1549 9.50704C19.1549 9.54225 19.1549 9.57747 19.1549 9.61268H14.5775C14.6479 7.32394 15.2817 5.21127 16.3732 3.48592ZM4.19014 2.95775C4.64789 2.57042 5.14085 2.25352 5.6338 1.97183C5.88028 1.83099 6.16197 1.69014 6.44366 1.58451C7.53521 1.12676 8.73239 0.880282 10 0.880282C12.2183 0.880282 14.2254 1.65493 15.8099 2.99296L15.7394 3.09859C14.5423 5.03521 13.9085 7.28873 13.8732 9.64789H10.3521V0.915493H9.64789V9.64789H6.12676C6.05634 7.25352 5.42254 5 4.26056 3.09859L4.19014 2.95775ZM0.880282 9.54225C0.880282 9.50704 0.880282 9.47183 0.880282 9.43662C0.880282 9.3662 0.880282 9.33099 0.880282 9.26056C0.880282 9.19014 0.880282 9.11972 0.880282 9.08451C0.880282 9.0493 0.880282 8.97887 0.880282 8.94366C0.880282 8.87324 0.915493 8.80282 0.915493 8.73239C0.915493 8.69718 0.915493 8.66197 0.915493 8.62676C0.915493 8.59155 0.915493 8.55634 0.950704 8.48592C0.950704 8.41549 0.985915 8.30986 0.985915 8.23944C0.985915 8.20423 0.985915 8.16901 0.985915 8.16901C0.985915 8.1338 1.02113 8.09859 1.02113 8.06338C1.02113 8.02817 1.02113 7.99296 1.05634 7.95775C1.05634 7.88732 1.09155 7.8169 1.12676 7.71127C1.12676 7.67606 1.16197 7.64085 1.16197 7.60563C1.16197 7.57042 1.16197 7.57042 1.19718 7.53521C1.23239 7.42958 1.23239 7.35916 1.26761 7.25352C1.26761 7.21831 1.30282 7.21831 1.30282 7.1831C1.33803 7.07746 1.37324 6.93662 1.40845 6.83099C1.40845 6.79577 1.40845 6.79577 1.44366 6.76056C1.47887 6.65493 1.51408 6.5493 1.58451 6.44366C1.58451 6.44366 1.58451 6.40845 1.61972 6.40845C1.61972 6.40845 1.61972 6.37324 1.65493 6.37324C1.72535 6.23239 1.76056 6.12676 1.83099 6.02113V5.98592C1.90141 5.84507 1.97183 5.73944 2.00704 5.6338C2.00704 5.6338 2.00704 5.6338 2.00704 5.59859C2.04225 5.52817 2.07746 5.45775 2.14789 5.38732C2.1831 5.35211 2.21831 5.28169 2.25352 5.24648C2.28873 5.17606 2.35915 5.10563 2.39437 5.03521C2.42958 4.92958 2.46479 4.85915 2.5 4.82394C2.8169 4.33099 3.20423 3.90845 3.62676 3.48592L3.66197 3.4507C4.71831 5.17606 5.38732 7.32394 5.42253 9.64789H0.880282C0.880282 9.61268 0.880282 9.57747 0.880282 9.54225ZM2.5 15.1761C2.42958 15.0704 2.32394 14.9296 2.25352 14.8239C2.1831 14.6831 2.11268 14.5775 2.04225 14.4366C2.04225 14.4366 2.04225 14.4366 2.04225 14.4014C2.00704 14.2958 1.93662 14.2254 1.90141 14.1197C1.90141 14.0845 1.8662 14.0493 1.8662 14.0141V13.9789C1.79577 13.8732 1.76056 13.7324 1.69014 13.6268C1.69014 13.6268 1.69014 13.5915 1.65493 13.5915C1.61972 13.4859 1.5493 13.3451 1.51408 13.2394C1.51408 13.2042 1.47887 13.2042 1.47887 13.169C1.44366 13.0634 1.40845 12.9225 1.37324 12.8169C1.37324 12.7817 1.33803 12.7465 1.33803 12.7465C1.30282 12.6408 1.26761 12.5352 1.23239 12.3944C1.23239 12.3592 1.19718 12.3239 1.19718 12.2887C1.16197 12.1831 1.12676 12.0775 1.12676 11.9718C1.12676 11.9366 1.09155 11.9014 1.09155 11.8662C1.09155 11.831 1.09155 11.7958 1.09155 11.7958C1.09155 11.7254 1.05634 11.6197 1.05634 11.5493C1.05634 11.5141 1.05634 11.4789 1.02113 11.4085C1.02113 11.3028 0.985915 11.2324 0.985915 11.1268C0.985915 11.0915 0.985915 11.0915 0.985915 11.0563C0.985915 11.0211 0.985915 10.9507 0.985915 10.9155C0.985915 10.8451 0.985916 10.7394 0.950704 10.669C0.950704 10.6338 0.950704 10.5986 0.950704 10.5634C0.950704 10.5282 0.950704 10.493 0.950704 10.4577C0.950704 10.4225 0.950704 10.3873 0.950704 10.3521H5.49296C5.42254 12.6761 4.78873 14.7887 3.73239 16.5493C3.69718 16.5141 3.69718 16.5141 3.66197 16.4789C3.55634 16.3732 3.4507 16.2324 3.34507 16.1268C3.23944 16.0211 3.1338 15.9155 3.06338 15.8099C2.8169 15.5986 2.64085 15.4225 2.5 15.1761Z" fill="white"/>
</svg>
