<svg width="29" height="29" viewBox="0 0 29 29" fill="none" xmlns="http://www.w3.org/2000/svg">
<path d="M24.0488 28H4.95122C2.77805 28 1 26.1308 1 23.8462V5.15385C1 2.86923 2.77805 1 4.95122 1H24.0488C26.222 1 28 2.86923 28 5.15385V23.8462C28 26.1308 26.222 28 24.0488 28Z" stroke="#807D9B" stroke-width="1.59959" stroke-miterlimit="10"/>
<path d="M10.2195 7.57692C10.2195 8.89231 9.16585 10 7.91463 10C6.66341 10 5.60976 8.89231 5.60976 7.57692C5.60976 6.26154 6.66341 5.15385 7.91463 5.15385C9.16585 5.15385 10.2195 6.26154 10.2195 7.57692Z" stroke="#807D9B" stroke-width="1.59959" stroke-miterlimit="10"/>
<path d="M10.2195 21.4231C10.2195 22.7385 9.16585 23.8462 7.91463 23.8462C6.66341 23.8462 5.60976 22.7385 5.60976 21.4231C5.60976 20.1077 6.66341 19 7.91463 19C9.16585 19 10.2195 20.1077 10.2195 21.4231Z" stroke="#807D9B" stroke-width="1.59959" stroke-miterlimit="10"/>
<path d="M23.3902 7.57692C23.3902 8.89231 22.3366 10 21.0854 10C19.8341 10 18.7805 8.89231 18.7805 7.57692C18.7805 6.26154 19.8341 5.15385 21.0854 5.15385C22.3366 5.15385 23.3902 6.26154 23.3902 7.57692Z" stroke="#807D9B" stroke-width="1.59959" stroke-miterlimit="10"/>
<path d="M23.3902 21.4231C23.3902 22.7385 22.3366 23.8462 21.0854 23.8462C19.8341 23.8462 18.7805 22.7385 18.7805 21.4231C18.7805 20.1077 19.8341 19 21.0854 19C22.3366 19 23.3902 20.1077 23.3902 21.4231Z" stroke="#807D9B" stroke-width="1.59959" stroke-miterlimit="10"/>
<path d="M16.8049 14.5C16.8049 15.8154 15.7512 16.9231 14.5 16.9231C13.2488 16.9231 12.1951 15.8154 12.1951 14.5C12.1951 13.1846 13.2488 12.0769 14.5 12.0769C15.7512 12.0769 16.8049 13.1846 16.8049 14.5Z" stroke="#807D9B" stroke-width="1.59959" stroke-miterlimit="10"/>
</svg>
