<svg width="18" height="22" viewBox="0 0 18 22" fill="none" xmlns="http://www.w3.org/2000/svg">
<path d="M15.962 3.17032C15.3508 2.66595 14.7037 2.5939 14.3083 2.5939C14.3083 2.55787 14.3083 2.52184 14.2723 2.48582V2.44979C13.9488 1.08079 13.1219 0.252184 11.8277 0.0360263H11.7917C11.6839 0.0360263 11.576 0 11.4682 0C11.4322 0 11.4322 0 11.3963 0C11.2884 0 11.1446 0 11.0368 0H3.37934C1.61777 0 0.503306 0.864632 0.143802 2.48582C0.143802 2.52184 0.143802 2.52184 0.143802 2.55787C0.107851 2.5939 0.0719008 2.66595 0.0719008 2.77403C0.0719008 2.81005 0.0719008 2.88211 0.0359504 2.91813C0.0359504 2.99019 0.0359504 3.02621 0.0359504 3.09826C0.0359504 3.20634 0 3.2784 0 3.38648C0 3.38648 0 3.38648 0 3.4225C0 3.53058 0 3.63866 0 3.74674V6.98911C0 12.4291 1.07851 14.7348 2.30083 16.0677V21.2195H13.2298V16.1398C14.6318 15.1671 17.4 12.6092 17.4 7.31335C17.364 5.3319 16.8967 3.92687 15.962 3.17032ZM1.22231 1.83734C1.29421 1.76529 1.33017 1.69324 1.36612 1.62119C1.40207 1.54913 1.47397 1.51311 1.50992 1.44105C1.58182 1.40503 1.61777 1.33297 1.68967 1.29695C1.68967 1.29695 1.68967 1.29695 1.72562 1.26092C1.76157 1.2249 1.79752 1.18887 1.86942 1.15284C1.86942 1.15284 1.90537 1.15284 1.90537 1.11682C1.94132 1.11682 2.01322 1.08079 2.04917 1.04476C2.08512 1.04476 2.08512 1.04476 2.12107 1.00874C2.15702 0.972711 2.22893 0.972711 2.30083 0.936685C2.33678 0.936685 2.37273 0.936685 2.37273 0.900658C2.40868 0.900658 2.48058 0.864632 2.51653 0.864632C2.55248 0.864632 2.58843 0.864632 2.62438 0.828606C2.66033 0.828606 2.73223 0.792579 2.76818 0.792579C2.80413 0.792579 2.87603 0.792579 2.91198 0.756553C2.94793 0.756553 2.98388 0.756553 3.01983 0.756553C3.12769 0.756553 3.19959 0.756553 3.30744 0.756553H10.9649C11.0727 0.756553 11.1806 0.756553 11.2525 0.756553C11.2884 0.756553 11.3244 0.756553 11.3603 0.756553C11.3963 0.756553 11.4682 0.756553 11.5041 0.792579C11.5401 0.792579 11.612 0.828606 11.6479 0.828606C11.6839 0.828606 11.7198 0.828606 11.7558 0.864632C11.8277 0.864632 11.8636 0.900658 11.9355 0.900658C11.9715 0.900658 11.9715 0.900658 12.0074 0.936685C12.0793 0.972711 12.1153 0.972711 12.1872 1.00874C12.1872 1.00874 12.2231 1.00874 12.2231 1.04476C12.295 1.08079 12.331 1.11682 12.4029 1.15284C12.4029 1.15284 12.4388 1.15284 12.4388 1.18887C12.5107 1.2249 12.5467 1.26092 12.6186 1.29695C12.6905 1.33297 12.7264 1.40503 12.7983 1.44105C13.2657 1.94542 13.5174 2.70198 13.5174 3.71071C13.5174 5.69216 13.5174 7.81772 11.4322 8.97056C11.3963 9.00658 11.3603 9.00658 11.2884 9.04261C11.1806 9.11466 11.0368 9.15069 10.893 9.22274C10.7851 9.25877 10.6413 9.33082 10.5335 9.36685C9.67066 9.65506 8.5562 9.79916 7.11818 9.79916C0.719008 9.79916 0.719008 6.55679 0.719008 3.71071C0.826859 2.91813 0.970661 2.30569 1.22231 1.83734ZM0.826859 8.14195C1.68967 9.54698 3.48719 10.6278 7.19008 10.6278C8.5562 10.6278 9.67066 10.4837 10.5694 10.2315C10.5694 11.7806 10.893 13.7981 12.0793 15.7075H3.09174C2.01322 14.5907 0.970661 12.7173 0.826859 8.14195ZM10.5694 19.5983C10.5694 19.9946 10.3178 20.3189 9.95826 20.4269C9.88636 20.463 9.77851 20.463 9.70661 20.463H3.05578V16.464H9.70661C9.81446 16.464 9.88636 16.5001 9.95826 16.5001C10.0661 16.5361 10.174 16.6081 10.2818 16.6802C10.4616 16.8243 10.5694 17.0765 10.5694 17.3287V19.5983ZM12.4029 20.4269H11.0727C11.2165 20.1747 11.3244 19.9226 11.3244 19.5983V17.3287C11.3244 17.1125 11.2884 16.8964 11.1806 16.6802C11.1446 16.6081 11.1087 16.5721 11.0727 16.5001H12.4029V20.4269ZM14.3083 14.0503C13.769 14.6987 13.1938 15.1671 12.7983 15.4553C12.7624 15.3832 12.6905 15.2752 12.6545 15.2031C11.5401 13.4018 11.2884 11.4203 11.3244 9.97929C11.4322 9.94327 11.5401 9.87122 11.6479 9.83519C14.3802 8.50222 14.3802 5.83627 14.3802 3.71071C14.3802 3.60263 14.3802 3.49455 14.3802 3.38648C14.6678 3.38648 15.0632 3.49455 15.4587 3.78277C16.1777 4.35919 16.5372 5.58408 16.5372 7.27732C16.5731 10.0153 15.8182 12.285 14.3083 14.0503Z" fill="white"/>
</svg>
