<svg width="18" height="14" viewBox="0 0 18 14" fill="none" xmlns="http://www.w3.org/2000/svg">
<path d="M0 0.73913C0 0.33092 0.350386 0 0.782609 0H17.2174C17.6496 0 18 0.33092 18 0.73913C18 1.14734 17.6496 1.47826 17.2174 1.47826H0.782609C0.350386 1.47826 0 1.14734 0 0.73913Z" fill="white"/>
<path d="M0 6.65217C0 6.24396 0.350386 5.91304 0.782609 5.91304H17.2174C17.6496 5.91304 18 6.24396 18 6.65217C18 7.06038 17.6496 7.3913 17.2174 7.3913H0.782609C0.350386 7.3913 0 7.06038 0 6.65217Z" fill="white"/>
<path d="M0 12.5652C0 12.157 0.350386 11.8261 0.782609 11.8261H17.2174C17.6496 11.8261 18 12.157 18 12.5652C18 12.9734 17.6496 13.3043 17.2174 13.3043H0.782609C0.350386 13.3043 0 12.9734 0 12.5652Z" fill="white"/>
</svg>
