<svg width="10" height="11" viewBox="0 0 10 11" fill="none" xmlns="http://www.w3.org/2000/svg">
<path d="M9.33189 10.0014C9.1645 10.0014 8.99134 9.93795 8.86436 9.8052L0.194805 1.13564C-0.0649351 0.875902 -0.0649351 0.454545 0.194805 0.194805C0.454545 -0.0649351 0.875902 -0.0649351 1.13564 0.194805L9.80519 8.86436C10.0649 9.1241 10.0649 9.54546 9.80519 9.8052C9.67244 9.93795 9.50505 10.0014 9.33189 10.0014Z" fill="#281D34"/>
<path d="M0.662338 10.0014C0.49495 10.0014 0.321789 9.93795 0.194805 9.8052C-0.0649351 9.54546 -0.0649351 9.1241 0.194805 8.86436L8.86436 0.200577C9.1241 -0.059163 9.54545 -0.059163 9.80519 0.200577C10.0649 0.460317 10.0649 0.881674 9.80519 1.14141L1.12987 9.81097C1.00289 9.93795 0.829726 10.0014 0.662338 10.0014Z" fill="#281D34"/>
</svg>
