<svg width="50" height="56" viewBox="0 0 50 56" fill="none" xmlns="http://www.w3.org/2000/svg">
<path d="M38.9987 33.9994C32.9327 33.9994 27.9974 38.9418 27.9974 45.0007C27.9974 51.0596 32.9327 55.9949 38.9987 55.9949C45.0647 55.9949 50 51.0596 50 45.0007C50 38.9418 45.0647 33.9994 38.9987 33.9994ZM38.9987 35.9977C43.9838 35.9977 47.9946 40.0228 47.9946 45.0007C47.9946 49.9787 43.9767 53.9966 38.9987 53.9966C34.0208 53.9966 29.9957 49.9787 29.9957 45.0007C29.9957 40.0228 34.0208 35.9977 38.9987 35.9977ZM44.318 41.2388C44.0549 41.2459 43.8131 41.3526 43.6282 41.5446L37.3916 47.7813L33.7079 44.0905C33.523 43.8913 33.267 43.7705 32.9896 43.7633C32.7194 43.7562 32.4492 43.8629 32.2571 44.0549C32.0651 44.2469 31.9585 44.51 31.9656 44.7874C31.9727 45.0576 32.0865 45.3207 32.2927 45.5056L36.6804 49.9005C36.8653 50.0925 37.1213 50.192 37.3916 50.192C37.6618 50.192 37.9107 50.0854 38.1027 49.9005L45.0434 42.9598C45.3421 42.6753 45.4274 42.2344 45.2709 41.8504C45.1074 41.4664 44.7305 41.2246 44.318 41.2388Z" fill="#36BC84"/>
<path d="M20.9927 0C14.9339 0 9.99858 4.93529 9.99858 11.0013C9.99858 17.0673 14.9339 22.0026 20.9927 22.0026C27.0516 22.0026 31.994 17.0673 31.994 11.0013C31.994 4.93529 27.0516 0 20.9927 0ZM20.9927 1.99118C25.9778 1.99118 29.9957 6.01622 29.9957 11.0013C29.9957 15.9864 25.9707 20.0043 20.9927 20.0043C16.0148 20.0043 11.9969 15.9864 11.9969 11.0013C11.9969 6.01622 16.0077 1.99118 20.9927 1.99118Z" fill="#36BC84"/>
<path d="M17.0033 24.0009C7.60205 24.0009 0 31.6029 0 41.0041V48.9973C0 49.552 0.440905 50 0.995591 50H25.5867C26.1414 50 26.5894 49.552 26.5894 48.9973C26.5894 48.4426 26.1414 47.9946 25.5867 47.9946H1.99829V40.997C1.99829 32.6696 8.67586 25.992 17.0033 25.992H24.9964C29.8037 25.992 34.0563 28.2179 36.7942 31.6954C37.1427 32.122 37.7685 32.1932 38.1951 31.8447C38.6218 31.4962 38.6787 30.8633 38.3302 30.4366C35.2155 26.5112 30.4082 23.9937 24.9964 23.9937H17.0033V24.0009Z" fill="#36BC84"/>
</svg>
