<svg width="33" height="34" viewBox="0 0 33 34" fill="none" xmlns="http://www.w3.org/2000/svg">
<path d="M32.6551 28.8606C32.1951 28.4007 31.4669 28.3624 30.9686 28.784L21.9617 19.777C21.1951 19.0105 20.4286 18.1672 19.7387 17.324L14.5261 10.5401C14.1045 10.0418 13.6829 9.54355 13.223 9.08362L4.94425 0.843206C4.40767 0.30662 3.67944 0 2.91289 0C2.14634 0 1.41812 0.30662 0.881533 0.843206C0.30662 1.41812 0 2.18467 0 2.98955C0 3.79443 0.30662 4.56098 0.881533 5.13589L9.0453 13.2997C9.50523 13.7596 10.0035 14.1812 10.5017 14.6028L17.2474 19.8153C18.0906 20.5052 18.9338 21.2718 19.7387 22.0383L28.7073 31.0453C28.2857 31.5052 28.2857 32.2335 28.784 32.7317C29.0139 32.9617 29.3206 33.0767 29.6272 33.0767C29.9338 33.0767 30.2404 32.9617 30.4704 32.7317L32.6551 30.547C33.115 30.0871 33.115 29.3206 32.6551 28.8606ZM22.6132 23.7247L20.3136 21.4251C19.5087 20.6202 18.6655 19.8537 17.784 19.1254L11.0383 13.9129C10.5784 13.5296 10.0801 13.108 9.65854 12.6864L1.49477 4.52265C0.689896 3.67944 0.689896 2.29965 1.49477 1.45645C1.87805 1.07317 2.37631 0.881533 2.91289 0.881533C3.44948 0.881533 3.94774 1.07317 4.33101 1.45645L12.6098 9.73519C13.0314 10.1568 13.453 10.6167 13.8362 11.115L19.0871 17.8606C19.8153 18.7422 20.5819 19.5854 21.3868 20.3902L23.6864 22.6899L22.7282 23.6481L22.6132 23.7247ZM23.1882 24.2613L24.1847 23.2648L30.3937 29.4739L29.3972 30.4704L23.1882 24.2613ZM32.0418 29.9338L29.8571 32.1185C29.7422 32.2335 29.5122 32.2335 29.3972 32.1185C29.2822 32.0035 29.2822 31.7735 29.3972 31.6585L31.5436 29.5122C31.6202 29.4355 31.6969 29.3972 31.7735 29.3972C31.8502 29.3972 31.9652 29.4355 32.0418 29.5122C32.1568 29.5889 32.1568 29.8188 32.0418 29.9338Z" fill="#7E819E"/>
<path d="M8.08711 22.4216C5.40418 22.4216 3.21951 24.6063 3.21951 27.2892C3.21951 29.9721 5.40418 32.1568 8.08711 32.1568C10.77 32.1568 12.9547 29.9721 12.9547 27.2892C12.9547 24.6063 10.77 22.4216 8.08711 22.4216ZM5.13589 30.1254C4.40767 29.3972 3.98606 28.4007 3.98606 27.2892C3.98606 26.1777 4.44599 25.1812 5.13589 24.453C5.17422 24.4913 5.21254 24.5296 5.25087 24.5679C5.90244 25.2962 6.24739 26.2544 6.24739 27.2892C6.24739 28.324 5.90244 29.3206 5.25087 30.0105C5.21254 30.0488 5.17422 30.0871 5.13589 30.1254ZM8.08711 31.3902C7.16725 31.3902 6.32404 31.0836 5.63415 30.5854C6.43902 29.7422 6.93728 28.554 6.93728 27.2892C6.93728 26.0244 6.47735 24.8362 5.63415 23.993C6.32404 23.4948 7.16725 23.1882 8.08711 23.1882C9.00697 23.1882 9.85017 23.4948 10.5401 23.993C9.73519 24.8362 9.23693 26.0244 9.23693 27.2892C9.23693 28.554 9.69686 29.7422 10.5401 30.5854C9.85017 31.0836 9.00697 31.3902 8.08711 31.3902ZM11.0383 30.1254C11 30.0871 10.9617 30.0488 10.9233 30.0105C10.2718 29.2822 9.92683 28.324 9.92683 27.2892C9.92683 26.2544 10.2718 25.2578 10.9233 24.5679C10.9617 24.5296 11 24.4913 11.0383 24.453C11.7666 25.1812 12.1882 26.1777 12.1882 27.2892C12.1882 28.4007 11.7666 29.3972 11.0383 30.1254Z" fill="#7E819E"/>
</svg>
