<svg width="31" height="32" viewBox="0 0 31 32" fill="none" xmlns="http://www.w3.org/2000/svg">
<path d="M27.5191 16.3027C31.6763 12.1455 32.1816 5.88652 28.6475 2.35247C25.1135 -1.18158 18.8545 -0.676272 14.6973 3.48089C12.4994 5.67882 11.3245 8.46266 11.2253 11.1194C11.2191 11.1597 11.2129 11.1969 11.216 11.2403C11.216 11.293 11.3121 16.529 7.42151 20.4195L0.167402 27.6736C-0.0558008 27.8968 -0.0558008 28.2565 0.167402 28.4797L2.52344 30.8357C2.63504 30.9473 2.78074 31.0031 2.92644 31.0031C3.07215 31.0031 3.21785 30.9473 3.32945 30.8357L10.5805 23.5847C14.4586 19.7065 19.707 19.7871 19.7597 19.7902C19.8062 19.7902 19.8496 19.7871 19.8899 19.7778C22.5466 19.6693 25.3243 18.4975 27.5191 16.3027ZM15.5033 4.2869C17.5804 2.20677 20.2309 1.13415 22.7047 1.13415C24.6485 1.13415 26.4837 1.79756 27.8446 3.15848C30.9354 6.24923 30.4301 11.7859 26.7162 15.4998C23.0023 19.2136 17.4657 19.7189 14.3749 16.6282C11.2811 13.5374 11.7895 8.00076 15.5033 4.2869ZM11.8484 14.8271C12.239 15.7881 12.8094 16.6747 13.5689 17.4311C14.3284 18.1906 15.2119 18.761 16.1729 19.1516C14.3718 19.6321 12.1646 20.5683 10.1868 22.385L8.61503 20.8132C10.4317 18.8354 11.3679 16.6282 11.8484 14.8271ZM2.92644 29.6267L1.37332 28.0736L7.82142 21.6255L9.37454 23.1786L2.92644 29.6267Z" fill="#7E819E"/>
<path d="M25.687 21.7836C23.1449 21.7836 21.0772 23.8513 21.0772 26.3933C21.0772 28.9354 23.1449 31.0031 25.687 31.0031C28.229 31.0031 30.2968 28.9354 30.2968 26.3933C30.2968 23.8513 28.229 21.7836 25.687 21.7836ZM25.687 29.8623C23.7743 29.8623 22.218 28.3061 22.218 26.3933C22.218 24.4806 23.7743 22.9244 25.687 22.9244C27.5997 22.9244 29.159 24.4806 29.159 26.3933C29.159 28.3061 27.5997 29.8623 25.687 29.8623Z" fill="#7E819E"/>
</svg>
