<?xml version="1.0" encoding="iso-8859-1"?>
<!-- Generator: Adobe Illustrator 19.0.0, SVG Export Plug-In . SVG Version: 6.00 Build 0)  -->
<svg version="1.1" id="Capa_1" xmlns="http://www.w3.org/2000/svg" xmlns:xlink="http://www.w3.org/1999/xlink" x="0px" y="0px"
	 viewBox="0 0 490 490" style="enable-background:new 0 0 490 490;" xml:space="preserve">
<g id="Business_1_Bold_34_">
	<path d="M265.526,490v-51.236c35.601-5.099,63.409-18.988,83.422-41.635c19.983-22.647,29.982-50.501,29.982-83.53
		c0-29.584-7.947-53.839-23.826-72.734c-15.894-18.896-45.738-34.3-89.578-46.167V87.649c17.716,7.672,28.665,22.28,32.861,43.809
		l69.304-9.05c-4.762-27.379-15.711-49.245-32.861-65.584c-17.181-16.354-40.287-26.261-69.32-29.721V0h-39.69v27.103
		c-31.406,3.108-56.58,14.838-75.475,35.219c-18.88,20.335-28.344,45.478-28.344,75.429c0,29.584,8.376,54.727,25.082,75.475
		c16.69,20.718,42.936,36.199,78.752,46.412v114.767c-9.877-4.762-18.819-12.434-26.843-23.015
		c-8.039-10.581-13.521-23.183-16.43-37.791l-71.494,7.672c5.482,35.969,18.084,63.792,37.791,83.53
		c19.738,19.707,45.371,31.498,76.976,35.326v49.858h39.69V490z M265.526,271.414c16.43,4.762,28.267,11.561,35.464,20.412
		c7.228,8.85,10.841,19.401,10.841,31.636c0,13.689-4.318,25.618-12.878,35.755c-8.59,10.137-19.738,16.492-33.427,19.034V271.414z
		 M199.238,161.44c-5.819-8.284-8.759-17.272-8.759-26.965c0-10.581,3.185-20.274,9.601-29.032
		c6.385-8.789,14.976-14.976,25.756-18.651v94.784C213.939,176.461,205.088,169.754,199.238,161.44z"/>
</g>
<g>
</g>
<g>
</g>
<g>
</g>
<g>
</g>
<g>
</g>
<g>
</g>
<g>
</g>
<g>
</g>
<g>
</g>
<g>
</g>
<g>
</g>
<g>
</g>
<g>
</g>
<g>
</g>
<g>
</g>
</svg>
