<svg width="20" height="9" viewBox="0 0 20 9" fill="none" xmlns="http://www.w3.org/2000/svg">
<path opacity="0.6" d="M18.1569 2.43447C19.0705 1.58206 19.5252 0.869533 19.5689 0.79522C19.7219 0.550425 19.6432 0.226946 19.3984 0.0783201C19.1536 -0.0746769 18.8301 0.00400723 18.6815 0.248802C18.6553 0.292516 16.0325 4.45403 9.99126 4.45403C3.98066 4.45403 1.41031 0.419285 1.30103 0.248802C1.1524 0.00400723 0.828922 -0.0746769 0.584127 0.0783201C0.339332 0.226946 0.260647 0.550425 0.413644 0.79522C0.457358 0.869533 0.911977 1.58643 1.82559 2.43447L0.10765 4.1699C-0.0366039 4.31852 -0.0366039 4.55458 0.112022 4.69883C0.186335 4.77314 0.278133 4.80811 0.374302 4.80811C0.470472 4.80811 0.566641 4.77314 0.640954 4.69883L2.38949 2.92844C2.74794 3.21694 3.15448 3.50982 3.61347 3.78959L2.37638 5.86161C2.27147 6.03646 2.32829 6.26814 2.50315 6.37305C2.56435 6.40803 2.62992 6.42551 2.69549 6.42551C2.82225 6.42551 2.94465 6.35994 3.01459 6.24191L4.2648 4.15241C4.65385 4.35349 5.0735 4.54583 5.52812 4.71632L4.7981 7.0375C4.7369 7.23421 4.84619 7.44403 5.0429 7.50523C5.08224 7.51835 5.11721 7.52272 5.15655 7.52272C5.31392 7.52272 5.46255 7.42218 5.51063 7.26044L6.23627 4.95674C6.66904 5.08788 7.12366 5.19716 7.60888 5.28459L7.25042 7.70631C7.21983 7.91177 7.35971 8.09974 7.56516 8.13033C7.58265 8.13471 7.60013 8.13471 7.62199 8.13471C7.80558 8.13471 7.96295 7.99919 7.98918 7.8156L8.34763 5.39387C8.75417 5.44196 9.17819 5.47256 9.61969 5.48567V7.92051C9.61969 8.12596 9.7858 8.29207 9.99126 8.29207C10.1967 8.29207 10.3628 8.12596 10.3628 7.92051V5.48567C10.8131 5.47256 11.2502 5.44196 11.6655 5.3895L12.1594 7.83308C12.1944 8.01231 12.3518 8.13471 12.5266 8.13471C12.5529 8.13471 12.5747 8.13033 12.6009 8.12596C12.802 8.08662 12.9332 7.88991 12.8938 7.68446L12.4086 5.27585C12.8589 5.19279 13.2872 5.08788 13.6938 4.96985L14.485 7.26481C14.5375 7.41781 14.6817 7.51835 14.8391 7.51835C14.8784 7.51835 14.9221 7.5096 14.9615 7.49649C15.1582 7.43092 15.2587 7.21672 15.1932 7.02001L14.4063 4.72943C14.8828 4.55458 15.3243 4.35349 15.7308 4.14367L16.981 6.23317C17.051 6.3512 17.1734 6.41677 17.3001 6.41677C17.3657 6.41677 17.4313 6.39928 17.4925 6.36431C17.6673 6.2594 17.7285 6.02772 17.6192 5.85286L16.3822 3.78085C16.8412 3.50108 17.2477 3.2082 17.6061 2.91969L19.359 4.69009C19.4334 4.7644 19.5295 4.79937 19.6257 4.79937C19.7219 4.79937 19.8137 4.7644 19.888 4.69009C20.0366 4.54583 20.0366 4.30978 19.8923 4.16115L18.1569 2.43447Z" fill="#BAACCA"/>
</svg>
