<svg width="9" height="17" viewBox="0 0 9 17" fill="none" xmlns="http://www.w3.org/2000/svg">
<path d="M2.53457 3.56147C2.53457 3.96491 2.53457 5.7729 2.53457 5.7729H0.906006V8.47742H2.53457V16.5163H5.878V8.47742H8.12197C8.12197 8.47742 8.3321 7.18119 8.43342 5.7617C8.14073 5.7617 5.88926 5.7617 5.88926 5.7617C5.88926 5.7617 5.88926 4.18904 5.88926 3.91261C5.88926 3.63618 6.25325 3.26263 6.61348 3.26263C6.97372 3.26263 7.73171 3.26263 8.43717 3.26263C8.43717 2.89281 8.43717 1.62273 8.43717 0.446045C7.49906 0.446045 6.42961 0.446045 5.96056 0.446045C2.45202 0.44978 2.53457 3.15804 2.53457 3.56147Z" fill="white"/>
</svg>
