<svg width="27" height="25" viewBox="0 0 27 25" fill="none" xmlns="http://www.w3.org/2000/svg">
<path d="M25.7353 12.4438C26.0908 12.8016 26.0908 13.3545 25.7353 13.7122C25.3797 14.0699 24.8302 14.0699 24.4747 13.7122L23.0525 12.2812V19.5418C23.0525 20.859 22.5353 22.0379 21.6787 22.916H21.6545C20.7979 23.7778 19.6262 24.3144 18.3171 24.3144H16.3211C15.8363 24.3144 15.4323 23.9079 15.4323 23.4201V16.4847C15.4323 15.8099 15.1656 15.2001 14.7292 14.761H14.7131C14.2767 14.3057 13.6706 14.0374 12.9999 14.0374C12.3292 14.0374 11.707 14.3057 11.2706 14.7448V14.761C10.8181 15.2001 10.5514 15.8099 10.5514 16.4847V23.0867C10.5999 23.1843 10.6161 23.3063 10.6161 23.4282C10.6161 23.9161 10.2121 24.3226 9.72721 24.3226H7.6666C6.37367 24.3226 5.18579 23.786 4.32923 22.9241C3.47266 22.0623 2.93933 20.8671 2.93933 19.5499V12.2893L1.5171 13.7203C1.16155 14.0781 0.612054 14.0781 0.256499 13.7203C-0.0828954 13.3626 -0.0828954 12.8097 0.256499 12.452L12.3615 0.256113C12.7171 -0.0853709 13.2666 -0.0853709 13.6222 0.256113L25.7353 12.4438ZM17.21 22.5257H18.3171C19.1413 22.5257 19.8767 22.1842 20.4181 21.6476C20.9514 21.111 21.2908 20.363 21.2908 19.5337V10.4844L12.9999 2.15053L4.70902 10.4844V19.5337C4.70902 20.363 5.04842 21.1029 5.58175 21.6476C6.11508 22.1842 6.85852 22.5257 7.65852 22.5257H8.76559V16.4847C8.76559 15.3383 9.25044 14.2732 10.01 13.5008C10.7858 12.7203 11.8363 12.2487 12.9999 12.2487C14.1555 12.2487 15.2141 12.7203 15.9656 13.5008C16.7413 14.2813 17.21 15.322 17.21 16.4847V22.5257Z" fill="#857797"/>
</svg>
