<svg width="32" height="22" viewBox="0 0 32 22" fill="none" xmlns="http://www.w3.org/2000/svg">
<path d="M16 13.79C7.58307 13.79 1 10.9686 1 7.39498C1 3.82132 7.58307 1 16 1C24.4169 1 31 3.82132 31 7.39498C31 11.0157 24.3699 13.79 16 13.79ZM16 1.89342C8.33542 1.89342 1.89342 4.4326 1.89342 7.39498C1.89342 10.4044 8.38245 12.8965 16 12.8965C23.6176 12.8965 30.1066 10.3574 30.1066 7.39498C30.1066 4.4326 23.6176 1.89342 16 1.89342Z" fill="#7E819E"/>
<path d="M16 21.1724C7.58307 21.1724 1 18.3511 1 14.7774C1 14.5423 1.18809 14.3542 1.4232 14.3542C1.65831 14.3542 1.84639 14.5423 1.84639 14.7774C1.84639 17.7868 8.33542 20.279 15.953 20.279C23.5705 20.279 30.0596 17.7398 30.0596 14.7774C30.0596 14.5423 30.2476 14.3542 30.4828 14.3542C30.7179 14.3542 30.906 14.5423 30.906 14.7774C31 18.3511 24.3699 21.1724 16 21.1724Z" fill="#7E819E"/>
<path d="M1.4232 15.2006C1.18809 15.2006 1 15.0125 1 14.7774V7.39498C1 7.15987 1.18809 6.97179 1.4232 6.97179C1.65831 6.97179 1.84639 7.15987 1.84639 7.39498V14.7774C1.84639 15.0125 1.65831 15.2006 1.4232 15.2006Z" fill="#7E819E"/>
<path d="M30.5298 15.2006C30.2947 15.2006 30.1066 15.0125 30.1066 14.7774V7.39498C30.1066 7.15987 30.2947 6.97179 30.5298 6.97179C30.7649 6.97179 30.953 7.15987 30.953 7.39498V14.7774C31 15.0125 30.7649 15.2006 30.5298 15.2006Z" fill="#7E819E"/>
<path d="M6.92476 19.6207C6.68965 19.6207 6.50157 19.4326 6.50157 19.1975V15.953C6.50157 15.7179 6.68965 15.5298 6.92476 15.5298C7.15987 15.5298 7.34796 15.7179 7.34796 15.953V19.1975C7.34796 19.4326 7.15987 19.6207 6.92476 19.6207Z" fill="#7E819E"/>
<path d="M10.3103 20.6552C10.0752 20.6552 9.88715 20.4671 9.88715 20.232V18.5392C9.88715 18.3041 10.0752 18.116 10.3103 18.116C10.5455 18.116 10.7335 18.3041 10.7335 18.5392V20.1849C10.7335 20.4201 10.5455 20.6552 10.3103 20.6552Z" fill="#7E819E"/>
<path d="M3.49216 18.21C3.25705 18.21 3.06897 18.0219 3.06897 17.7868V13.4138C3.06897 13.1787 3.25705 12.9906 3.49216 12.9906C3.72727 12.9906 3.91536 13.1787 3.91536 13.4138V17.7868C3.96238 17.9749 3.77429 18.21 3.49216 18.21Z" fill="#7E819E"/>
<path d="M1 7.39498C1 10.9686 7.58307 13.79 16 13.79C24.3699 13.79 31 11.0157 31 7.39498C31 3.82132 24.4169 1 16 1C7.58307 1 1 3.82132 1 7.39498ZM1 7.39498V14.7774M1 7.39498C1 7.15987 1.18809 6.97179 1.4232 6.97179C1.65831 6.97179 1.84639 7.15987 1.84639 7.39498V14.7774M30.1066 7.39498C30.1066 10.3574 23.6176 12.8965 16 12.8965C8.38245 12.8965 1.89342 10.4044 1.89342 7.39498C1.89342 4.4326 8.33542 1.89342 16 1.89342C23.6176 1.89342 30.1066 4.4326 30.1066 7.39498ZM30.1066 7.39498V14.7774C30.1066 15.0125 30.2947 15.2006 30.5298 15.2006C30.7649 15.2006 31 15.0125 30.953 14.7774V7.39498C30.953 7.15987 30.7649 6.97179 30.5298 6.97179C30.2947 6.97179 30.1066 7.15987 30.1066 7.39498ZM1 14.7774C1 18.3511 7.58307 21.1724 16 21.1724C24.3699 21.1724 31 18.3511 30.906 14.7774C30.906 14.5423 30.7179 14.3542 30.4828 14.3542C30.2476 14.3542 30.0596 14.5423 30.0596 14.7774C30.0596 17.7398 23.5705 20.279 15.953 20.279C8.33542 20.279 1.84639 17.7868 1.84639 14.7774M1 14.7774C1 14.5423 1.18809 14.3542 1.4232 14.3542C1.65831 14.3542 1.84639 14.5423 1.84639 14.7774M1 14.7774C1 15.0125 1.18809 15.2006 1.4232 15.2006C1.65831 15.2006 1.84639 15.0125 1.84639 14.7774M6.92476 19.6207C6.68965 19.6207 6.50157 19.4326 6.50157 19.1975V15.953C6.50157 15.7179 6.68965 15.5298 6.92476 15.5298C7.15987 15.5298 7.34796 15.7179 7.34796 15.953V19.1975C7.34796 19.4326 7.15987 19.6207 6.92476 19.6207ZM10.3103 20.6552C10.0752 20.6552 9.88715 20.4671 9.88715 20.232V18.5392C9.88715 18.3041 10.0752 18.116 10.3103 18.116C10.5455 18.116 10.7335 18.3041 10.7335 18.5392V20.1849C10.7335 20.4201 10.5455 20.6552 10.3103 20.6552ZM3.49216 18.21C3.25705 18.21 3.06897 18.0219 3.06897 17.7868V13.4138C3.06897 13.1787 3.25705 12.9906 3.49216 12.9906C3.72727 12.9906 3.91536 13.1787 3.91536 13.4138V17.7868C3.96238 17.9749 3.77429 18.21 3.49216 18.21Z" stroke="#7E819E" stroke-width="0.3" stroke-miterlimit="10"/>
</svg>
