<svg width="17" height="17" viewBox="0 0 17 17" fill="none" xmlns="http://www.w3.org/2000/svg">
<path d="M12.7629 0.220215H4.47866C2.38667 0.220215 0.629395 1.97749 0.629395 4.06948V12.3538C0.629395 14.5294 2.38667 16.203 4.47866 16.203H12.7629C14.9386 16.203 16.6122 14.4458 16.6122 12.3538V4.06948C16.6959 1.97749 14.9386 0.220215 12.7629 0.220215ZM11.7588 10.5128C11.0057 12.3538 8.99736 13.1906 7.15641 12.4374C5.31545 11.6843 4.47866 9.67601 5.23177 7.83506C5.98489 5.99411 7.9932 5.15731 9.83415 5.91043C11.5914 6.66355 12.5119 8.67186 11.7588 10.5128ZM13.0977 4.82259C12.3445 4.82259 11.7588 4.23684 11.7588 3.48372C11.7588 2.7306 12.3445 2.14485 13.0977 2.14485C13.8508 2.14485 14.4365 2.7306 14.4365 3.48372C14.4365 4.23684 13.8508 4.82259 13.0977 4.82259Z" fill="white"/>
</svg>
