<svg width="28" height="33" viewBox="0 0 28 33" fill="none" xmlns="http://www.w3.org/2000/svg">
<path d="M16.9955 25.809C16.62 25.901 16.3903 26.28 16.4823 26.6555C16.5743 27.031 16.9533 27.2608 17.3288 27.1688L16.9955 25.809ZM20.509 27.1688C20.8845 27.2608 21.2635 27.031 21.3556 26.6555C21.4476 26.28 21.2178 25.901 20.8423 25.809L20.509 27.1688ZM18.9189 23.8711L19.3788 23.3434C19.1152 23.1137 18.7226 23.1137 18.459 23.3434L18.9189 23.8711ZM18.9189 17.5333L19.5852 17.3187C19.492 17.0294 19.2228 16.8333 18.9189 16.8333C18.615 16.8333 18.3458 17.0294 18.2526 17.3187L18.9189 17.5333ZM6.62162 18.9111H5.92162V19.6111H6.62162V18.9111ZM4.51351 16.8444H3.81351V17.5444H4.51351V16.8444ZM4.51351 6.51111V5.81111H3.81351V6.51111H4.51351ZM6.62162 4.44444V3.74444H5.92162V4.44444H6.62162ZM11.5405 4.44444H12.2405V3.74444H11.5405V4.44444ZM13.6486 6.51111H14.3486V5.81111H13.6486V6.51111ZM26.2973 31.3H11.5405V32.7H26.2973V31.3ZM11.5405 31.3C11.5114 31.3 11.4993 31.2953 11.4998 31.2955C11.5 31.2956 11.5026 31.2966 11.5068 31.2992C11.511 31.3019 11.516 31.3057 11.5211 31.3107C11.5262 31.3157 11.5305 31.321 11.5339 31.3262C11.5373 31.3314 11.5392 31.3354 11.54 31.3375C11.5418 31.342 11.5378 31.3349 11.5378 31.3111H10.1378C10.1378 31.6811 10.2671 32.0418 10.541 32.3104C10.8138 32.5778 11.1748 32.7 11.5405 32.7V31.3ZM11.5378 31.3111V12.0222H10.1378V31.3111H11.5378ZM11.5378 12.0222C11.5378 11.9985 11.5418 11.9913 11.54 11.9959C11.5392 11.998 11.5373 12.002 11.5339 12.0071C11.5305 12.0123 11.5262 12.0176 11.5211 12.0226C11.516 12.0276 11.511 12.0314 11.5068 12.0341C11.5026 12.0368 11.5 12.0378 11.4998 12.0378C11.4993 12.038 11.5114 12.0333 11.5405 12.0333V10.6333C11.1748 10.6333 10.8138 10.7555 10.541 11.0229C10.2671 11.2915 10.1378 11.6523 10.1378 12.0222H11.5378ZM11.5405 12.0333H26.2973V10.6333H11.5405V12.0333ZM26.2973 12.0333C26.3264 12.0333 26.3385 12.038 26.338 12.0378C26.3378 12.0378 26.3352 12.0368 26.331 12.0341C26.3268 12.0314 26.3218 12.0276 26.3167 12.0226C26.3116 12.0176 26.3073 12.0123 26.3039 12.0071C26.3005 12.002 26.2987 11.998 26.2978 11.9959C26.2961 11.9913 26.3 11.9985 26.3 12.0222H27.7C27.7 11.6523 27.5708 11.2915 27.2968 11.0229C27.0241 10.7555 26.6631 10.6333 26.2973 10.6333V12.0333ZM26.3 12.0222V31.3111H27.7V12.0222H26.3ZM26.3 31.3111C26.3 31.3349 26.2961 31.342 26.2978 31.3375C26.2987 31.3354 26.3005 31.3314 26.3039 31.3262C26.3073 31.321 26.3116 31.3157 26.3167 31.3107C26.3218 31.3057 26.3268 31.3019 26.331 31.2992C26.3352 31.2966 26.3378 31.2956 26.338 31.2955C26.3385 31.2953 26.3264 31.3 26.2973 31.3V32.7C26.6631 32.7 27.0241 32.5778 27.2968 32.3104C27.5708 32.0418 27.7 31.6811 27.7 31.3111H26.3ZM8.72973 21.6556H1.7027V23.0556H8.72973V21.6556ZM1.7027 21.6556C1.67357 21.6556 1.66147 21.6509 1.662 21.6511C1.66216 21.6511 1.66476 21.6521 1.66896 21.6548C1.67319 21.6575 1.67818 21.6613 1.68328 21.6662C1.68838 21.6713 1.6927 21.6766 1.6961 21.6818C1.69949 21.6869 1.70133 21.6909 1.70215 21.693C1.70394 21.6976 1.7 21.6904 1.7 21.6667H0.3C0.3 22.0366 0.429234 22.3974 0.703206 22.666C0.975937 22.9333 1.33694 23.0556 1.7027 23.0556V21.6556ZM1.7 21.6667V1.68889H0.3V21.6667H1.7ZM1.7 1.68889C1.7 1.66512 1.70394 1.65797 1.70215 1.66253C1.70133 1.66463 1.69949 1.66865 1.6961 1.6738C1.6927 1.67897 1.68838 1.68431 1.68328 1.68931C1.67818 1.6943 1.67319 1.6981 1.66896 1.70077C1.66476 1.70343 1.66216 1.70444 1.662 1.7045C1.66147 1.7047 1.67357 1.7 1.7027 1.7V0.3C1.33694 0.3 0.975937 0.422212 0.703206 0.689581C0.429234 0.958168 0.3 1.31892 0.3 1.68889H1.7ZM1.7027 1.7H16.4595V0.3H1.7027V1.7ZM16.4595 1.7C16.4886 1.7 16.5007 1.7047 16.5002 1.7045C16.5 1.70444 16.4974 1.70343 16.4932 1.70077C16.489 1.6981 16.484 1.6943 16.4789 1.68931C16.4738 1.68431 16.4695 1.67897 16.4661 1.6738C16.4627 1.66865 16.4608 1.66463 16.46 1.66253C16.4582 1.65797 16.4622 1.66512 16.4622 1.68889H17.8622C17.8622 1.31892 17.7329 0.958168 17.459 0.689581C17.1862 0.422212 16.8252 0.3 16.4595 0.3V1.7ZM16.4622 1.68889V9.26667H17.8622V1.68889H16.4622ZM17.3288 27.1688C17.6281 27.0954 18.3865 26.9133 18.9189 26.9133V25.5133C18.1865 25.5133 17.2584 25.7446 16.9955 25.809L17.3288 27.1688ZM18.9189 26.9133C19.4514 26.9133 20.2097 27.0954 20.509 27.1688L20.8423 25.809C20.5795 25.7446 19.6513 25.5133 18.9189 25.5133V26.9133ZM18.459 24.3989C18.9447 24.8221 19.637 24.9787 20.1972 25.0172C20.759 25.0559 21.3907 24.9891 21.827 24.7752L21.2108 23.5181C21.085 23.5798 20.7329 23.6508 20.2933 23.6205C19.8521 23.5902 19.5255 23.4712 19.3788 23.3434L18.459 24.3989ZM21.827 24.7752C22.3482 24.5198 22.7737 24.1607 23.0646 23.6854C23.3548 23.2113 23.4838 22.666 23.4838 22.08H22.0838C22.0838 22.4585 22.002 22.7398 21.8705 22.9546C21.7398 23.1682 21.5329 23.3602 21.2108 23.5181L21.827 24.7752ZM23.4838 22.08C23.4838 21.3914 23.1648 20.8047 22.7855 20.3313C22.4061 19.8577 21.9122 19.4307 21.4503 19.0562C20.9632 18.6614 20.5336 18.3407 20.1677 18.013C19.7896 17.6742 19.6278 17.451 19.5852 17.3187L18.2526 17.748C18.4208 18.2701 18.8476 18.7099 19.2336 19.0558C19.6319 19.4126 20.1422 19.7981 20.5686 20.1438C21.0202 20.5098 21.4135 20.8579 21.6929 21.2066C21.9724 21.5556 22.0838 21.8386 22.0838 22.08H23.4838ZM18.2526 17.3187C18.2109 17.4482 18.052 17.6665 17.6742 17.9996C17.3071 18.3233 16.8808 18.6352 16.3907 19.0279C15.9275 19.399 15.4317 19.8249 15.0507 20.3043C14.6679 20.7859 14.3541 21.3798 14.3541 22.08H15.7541C15.7541 21.8157 15.8706 21.5227 16.1466 21.1755C16.4244 20.826 16.8157 20.4813 17.2661 20.1204C17.6895 19.7812 18.203 19.3999 18.6001 19.0497C18.9865 18.7091 19.4161 18.2729 19.5852 17.748L18.2526 17.3187ZM14.3541 22.08C14.3541 22.666 14.483 23.2113 14.7732 23.6854C15.0641 24.1607 15.4897 24.5198 16.0108 24.7752L16.627 23.5181C16.3049 23.3602 16.0981 23.1682 15.9673 22.9546C15.8359 22.7398 15.7541 22.4585 15.7541 22.08H14.3541ZM16.0108 24.7752C16.4471 24.9891 17.0788 25.0559 17.6406 25.0172C18.2008 24.9787 18.8931 24.8221 19.3788 24.3989L18.459 23.3434C18.3123 23.4712 17.9857 23.5902 17.5445 23.6205C17.1049 23.6508 16.7529 23.5798 16.627 23.5181L16.0108 24.7752ZM8.72973 18.2111H6.62162V19.6111H8.72973V18.2111ZM7.32162 18.9111C7.32162 17.3404 6.08154 16.1444 4.51351 16.1444V17.5444C5.33468 17.5444 5.92162 18.1396 5.92162 18.9111H7.32162ZM5.21351 16.8444V6.51111H3.81351V16.8444H5.21351ZM4.51351 7.21111C6.08154 7.21111 7.32162 6.01519 7.32162 4.44444H5.92162C5.92162 5.21592 5.33468 5.81111 4.51351 5.81111V7.21111ZM6.62162 5.14444H11.5405V3.74444H6.62162V5.14444ZM10.8405 4.44444C10.8405 6.01519 12.0806 7.21111 13.6486 7.21111V5.81111C12.8275 5.81111 12.2405 5.21592 12.2405 4.44444H10.8405ZM12.9486 6.51111V9.26667H14.3486V6.51111H12.9486ZM3.11081 3.06667V4.44444H4.51081V3.06667H3.11081ZM3.11081 18.9111V20.2889H4.51081V18.9111H3.11081ZM13.6514 3.06667V4.44444H15.0514V3.06667H13.6514Z" fill="#807D9B"/>
</svg>
