<svg width="19" height="19" viewBox="0 0 19 19" fill="none" xmlns="http://www.w3.org/2000/svg">
<path d="M18.7399 18.2362V11.6064C18.7399 8.36214 18.0409 5.86627 14.2494 5.86627C12.4278 5.86627 11.2028 6.86533 10.7051 7.81496H10.6521V6.16987H7.05834V18.2362H10.8004V12.2595C10.8004 10.685 11.0969 9.16351 13.0456 9.16351C14.9661 9.16351 14.9943 10.9604 14.9943 12.3584V18.2362H18.7399Z" fill="white"/>
<path d="M0.961566 6.16982H4.71067V18.2362H0.961566V6.16982Z" fill="white"/>
<path d="M2.83613 0.161377C1.63585 0.161377 0.665039 1.13219 0.665039 2.33247C0.665039 3.53275 1.63585 4.52475 2.83613 4.52475C4.03641 4.52475 5.00723 3.52922 5.00723 2.33247C5.0037 1.13219 4.03288 0.161377 2.83613 0.161377Z" fill="white"/>
</svg>
