<svg width="212" height="22" viewBox="0 0 212 22" fill="none" xmlns="http://www.w3.org/2000/svg">
<path d="M12.0136 8.9517L21.1891 3.49597C21.4371 3 21.6851 3 21.9331 3C22.1811 3 22.4291 3.24799 22.6771 3.49597C22.925 3.74396 22.925 3.99195 22.6771 4.48792C22.6771 4.73591 22.1811 5.23189 21.9331 5.47987L13.5015 10.4396L18.7093 15.6474C18.9572 15.8953 18.9572 16.1433 18.9572 16.3913C18.9572 16.6393 18.7093 17.1353 18.2133 17.3833C17.7173 17.6313 17.4693 17.8792 17.2213 17.8792C16.9733 17.8792 16.7254 17.8792 16.4774 17.6313L11.0217 11.9275L1.59814 17.6313C1.35015 17.6313 1.10217 17.8792 0.854178 17.8792C0.606191 17.8792 0.358204 17.6313 0.110217 17.3833C-0.137771 17.1353 0.110217 16.8873 0.110217 16.3913C0.110217 16.1433 0.358204 15.8953 0.854178 15.6474L9.28574 10.4396L4.326 5.23189C4.07801 4.9839 4.07801 4.9839 4.07801 4.73591C4.07801 4.48792 4.07801 4.48792 4.07801 4.23994C4.07801 3.74396 4.326 3.49597 4.82197 3.24799C5.31795 3 5.31795 3 5.56594 3C5.56594 3 5.81392 3 6.06191 3C6.3099 3 6.3099 3 6.3099 3.24799L12.0136 8.9517Z" fill="white"/>
<path d="M40.0362 13.1675C39.0442 16.1433 36.3164 17.6313 31.8526 17.6313H26.6448C21.9331 17.6313 19.9492 16.1433 20.9411 13.1675L22.6771 7.46377C23.669 4.48792 26.3969 3 31.1086 3H36.3164C40.7801 3 42.764 4.48792 41.7721 7.46377L40.0362 13.1675ZM39.2922 7.46377C39.7882 5.97585 38.7962 5.47987 36.3164 5.47987H30.3647C27.6368 5.47987 26.1489 6.22383 25.6529 7.71176L23.669 13.1675C23.173 14.6554 24.165 15.3994 26.8928 15.3994H32.8445C35.3244 15.3994 36.8123 14.6554 37.3083 13.1675L39.2922 7.46377Z" fill="white"/>
<path d="M44.2519 16.1433C44.004 17.1353 43.26 17.6313 42.0201 17.6313C40.7801 17.6313 40.2841 17.1353 40.7801 16.1433C41.0281 15.1514 41.7721 14.6554 43.012 14.6554C44.004 14.9034 44.4999 15.1514 44.2519 16.1433Z" fill="white"/>
<path d="M64.5869 17.3833C63.595 20.3591 60.8671 21.847 55.9073 21.847H53.6755C52.9315 21.847 52.6835 21.599 52.9315 20.8551C53.1795 20.1111 53.6755 19.8631 54.4194 19.8631H56.8993C59.6272 19.8631 61.3631 19.3672 61.859 18.1272V17.8792H52.6835C47.4758 17.8792 45.4919 16.3913 46.4838 13.4155L48.4677 7.71176C49.4597 4.73591 52.1875 3.24799 56.8993 3.24799H61.611C66.8188 3.24799 68.8027 4.73591 67.8107 7.71176L64.5869 17.3833ZM62.603 15.3994L65.0829 7.71176C65.5788 6.22383 64.5869 5.23189 61.611 5.23189H55.6594C53.1795 5.23189 51.4436 5.97585 50.9476 7.46377L48.9637 13.1675C48.7157 14.6554 49.9557 15.3994 52.9315 15.3994H62.603Z" fill="white"/>
<path d="M88.6417 13.4155C87.6497 16.1433 85.1698 17.6313 80.9541 17.6313H73.2665C68.8027 17.6313 67.3148 16.3913 68.0587 13.6635L68.8027 11.6796C69.7946 8.95169 72.2745 7.46377 76.4903 7.46377H87.8977C88.1457 5.97585 87.4017 5.23189 85.4178 5.23189H82.194C81.45 5.23189 81.45 4.9839 81.698 4.23994C81.946 3.49597 82.442 3.24799 82.938 3.24799H85.6658C89.8816 3.24799 91.3695 4.73591 90.3776 7.46377L88.6417 13.4155ZM87.4017 9.69566H75.2504C73.2665 9.69566 72.0265 10.4396 71.5305 11.6796L70.7866 13.6635C70.2906 14.9034 71.2826 15.3994 73.5144 15.3994H82.194C84.4259 15.3994 85.6658 14.4074 86.4098 12.6715L87.4017 9.69566Z" fill="white"/>
<path d="M116.912 16.6393C116.664 17.3833 115.92 17.8792 115.176 17.8792C114.184 17.8792 113.936 17.3833 114.184 16.6393L117.16 7.46377C117.656 5.97585 116.416 5.47987 113.44 5.47987C109.969 5.47987 107.985 6.22383 107.489 7.95975L104.513 16.8873C104.513 17.3833 104.017 17.8792 103.025 17.8792C102.033 17.8792 101.785 17.3833 102.033 16.6393L105.009 7.71176C105.505 5.97585 104.017 5.23189 100.793 5.23189C97.8172 5.23189 96.3293 5.97585 95.8333 7.21578L92.8575 16.3913C92.6095 17.3833 91.8655 17.8792 91.1215 17.8792C90.3776 17.8792 89.8816 17.3833 90.1296 16.6393L93.1054 7.71176C94.0974 4.73591 96.8252 3.24799 101.537 3.24799C105.009 3.24799 106.993 3.99195 107.241 5.72786C108.729 4.23994 110.961 3.24799 114.432 3.24799C119.144 3.24799 120.88 4.73591 119.888 7.71176L116.912 16.6393Z" fill="white"/>
<path d="M140.719 10.4396C140.471 11.1836 139.975 11.6796 139.231 11.6796H123.608L123.112 13.4155C122.616 14.9034 123.608 15.3994 126.336 15.3994H129.312C130.056 15.3994 130.304 15.6474 130.056 16.3913C129.808 17.1353 129.312 17.6313 128.568 17.6313H126.336C121.376 17.6313 119.392 16.1433 120.384 13.1675L122.12 7.46377C123.112 4.48792 126.088 3 130.799 3H136.751C140.967 3 142.455 4.23994 141.711 6.9678L140.719 10.4396ZM124.352 9.44767H138.487L139.231 7.21578C139.727 5.97585 138.735 5.23189 136.751 5.23189H129.56C126.832 5.23189 125.344 5.97585 124.848 7.21578L124.352 9.44767Z" fill="white"/>
<path d="M159.566 13.9114C158.822 16.3913 156.342 17.8792 152.87 17.8792H141.463C140.719 17.8792 140.471 17.6313 140.719 16.8873C140.967 15.8953 141.463 15.3994 142.207 15.3994H153.862C155.35 15.3994 156.342 14.9034 156.838 13.6635L157.086 12.9195C157.334 11.9275 156.59 11.4316 154.854 11.4316H148.655C144.687 11.4316 142.951 10.1916 143.695 7.71176L143.943 6.71981C144.687 4.48792 147.167 3.24799 150.886 3.24799H153.862C154.606 3.24799 154.854 3.49597 154.606 4.23994C154.358 4.9839 153.862 5.23189 153.118 5.23189H149.399C147.663 5.23189 146.671 5.72786 146.423 6.71981V7.46377C146.175 8.45572 146.919 8.9517 148.903 8.9517H155.35C159.07 8.9517 160.558 10.1916 159.814 12.6715L159.566 13.9114Z" fill="white"/>
<path d="M206.842 0H170.518C168.023 0 166 2.0229 166 4.51828V7.29422C166 9.7896 168.023 11.8125 170.518 11.8125H206.842C209.337 11.8125 211.36 9.7896 211.36 7.29422V4.51828C211.36 2.0229 209.337 0 206.842 0Z" fill="#CF202C"/>
<path d="M176.867 7.20559C176.572 8.15059 175.686 8.62309 174.121 8.62309H172.585C170.991 8.62309 170.312 8.15059 170.607 7.23512L171.906 2.95309C171.921 2.83827 171.977 2.73275 172.064 2.65654C172.151 2.58034 172.263 2.53874 172.379 2.53965C172.645 2.53965 172.763 2.53965 172.674 2.89403L172.349 4.01621H175.45C176.986 4.01621 177.635 4.48871 177.37 5.43371L176.867 7.20559ZM176.513 5.46324C176.513 4.93168 176.277 4.69543 175.391 4.69543H172.172L171.434 7.23512C171.434 7.67809 171.7 7.91434 172.615 7.91434H174.653C174.968 7.93022 175.282 7.86941 175.568 7.73715C175.678 7.68106 175.774 7.60188 175.851 7.50503C175.927 7.40819 175.982 7.29597 176.011 7.17606L176.513 5.46324Z" fill="white"/>
<path d="M184.044 6.34919C184.017 6.46102 183.952 6.56017 183.861 6.63006C183.769 6.69994 183.657 6.73632 183.542 6.7331H178.58V7.29419C178.58 7.70763 178.817 7.91435 179.673 7.91435H180.588C180.707 7.91435 180.766 8.03247 180.766 8.26872C180.751 8.37314 180.697 8.46799 180.615 8.53387C180.532 8.59974 180.428 8.63166 180.323 8.6231H179.555C177.98 8.6231 177.33 8.1506 177.606 7.2056L178.108 5.40419C178.374 4.48872 179.289 4.01622 180.854 4.01622H182.744C184.044 4.01622 184.575 4.42966 184.339 5.227L184.044 6.34919ZM178.787 5.90622H183.305L183.512 5.227C183.63 4.81357 183.364 4.60685 182.715 4.60685H180.47C179.584 4.60685 179.112 4.81357 178.964 5.25654L178.787 5.90622Z" fill="white"/>
<path d="M186.436 4.6955L185.402 8.29831C185.369 8.41252 185.299 8.5124 185.202 8.58199C185.106 8.65158 184.989 8.68687 184.87 8.68222C184.575 8.68222 184.487 8.68221 184.546 8.29831L185.579 4.6955H185.166C184.93 4.6955 184.841 4.6955 184.93 4.34112C184.937 4.29045 184.954 4.24172 184.98 4.19781C185.007 4.1539 185.041 4.11568 185.083 4.08542C185.124 4.05515 185.171 4.03344 185.221 4.02157C185.27 4.0097 185.322 4.0079 185.372 4.01628H185.786L186.081 2.95315C186.11 2.82263 186.186 2.70761 186.296 2.631C186.405 2.55439 186.539 2.5218 186.672 2.53971C186.938 2.53971 187.026 2.53971 186.967 2.89409L186.672 4.01628H188.355C188.591 4.01628 188.68 4.01628 188.621 4.34112C188.595 4.44018 188.538 4.52828 188.459 4.59218C188.379 4.65608 188.28 4.69234 188.178 4.6955H186.436Z" fill="white"/>
<path d="M190.098 4.69544L189.064 8.29825C189.036 8.41533 188.967 8.51851 188.869 8.58897C188.772 8.65944 188.652 8.69251 188.532 8.68216C188.267 8.68216 188.148 8.68216 188.208 8.29825L189.241 4.69544H188.828C188.621 4.69544 188.532 4.69544 188.591 4.34106C188.599 4.29039 188.616 4.24167 188.642 4.19775C188.668 4.15384 188.703 4.11563 188.744 4.08536C188.786 4.0551 188.833 4.03339 188.882 4.02151C188.932 4.00964 188.984 4.00784 189.034 4.01622H189.448L189.773 2.9531C189.78 2.89085 189.8 2.83068 189.83 2.77608C189.861 2.72148 189.902 2.67355 189.952 2.63507C190.001 2.59659 190.058 2.56834 190.118 2.55196C190.179 2.53558 190.242 2.5314 190.304 2.53966C190.57 2.53966 190.688 2.53966 190.6 2.89403L190.304 4.01622H191.958C192.194 4.01622 192.283 4.01622 192.224 4.34106C192.209 4.44548 192.155 4.54033 192.073 4.60621C191.99 4.67208 191.886 4.704 191.781 4.69544H190.098Z" fill="white"/>
<path d="M193.996 3.33705C193.948 3.48247 193.852 3.6066 193.722 3.68763C193.592 3.76865 193.438 3.80136 193.287 3.78001C192.932 3.78001 192.785 3.63236 192.873 3.33705C192.926 3.20496 193.021 3.09477 193.145 3.0249C193.269 2.95502 193.413 2.92969 193.553 2.95314C193.946 2.95314 194.094 3.08111 193.996 3.33705ZM192.578 8.2983C192.55 8.41538 192.481 8.51855 192.384 8.58902C192.286 8.65948 192.166 8.69255 192.047 8.6822C191.81 8.6822 191.692 8.6822 191.781 8.2983L192.578 4.63642C192.6 4.52173 192.663 4.41906 192.756 4.34818C192.848 4.2773 192.964 4.24322 193.08 4.25251C193.375 4.25251 193.464 4.25251 193.405 4.63642L192.578 8.2983Z" fill="white"/>
<path d="M199.459 8.29829C199.431 8.41537 199.362 8.51855 199.264 8.58901C199.167 8.65948 199.047 8.69255 198.927 8.6822C198.662 8.6822 198.543 8.6822 198.632 8.29829L199.488 5.34517C199.488 4.96126 199.282 4.78407 198.514 4.78407H196.388C195.62 4.78407 195.206 4.96126 195.088 5.34517L194.202 8.29829C194.174 8.41537 194.105 8.51855 194.008 8.58901C193.91 8.65948 193.791 8.69255 193.671 8.6822C193.405 8.6822 193.287 8.6822 193.375 8.29829L194.232 5.34517C194.468 4.51829 195.354 4.10485 196.831 4.10485H198.484C199.99 4.10485 200.611 4.51829 200.374 5.34517L199.459 8.29829Z" fill="white"/>
<path d="M206.399 8.56406C206.133 9.47953 205.218 9.95203 203.682 9.95203H203.003C202.737 9.95203 202.648 9.95203 202.707 9.59765C202.735 9.49628 202.797 9.40797 202.884 9.34847C202.971 9.28897 203.075 9.26215 203.18 9.27281H203.977C204.893 9.27281 205.395 9.06609 205.513 8.68218H202.56C200.906 8.68218 200.227 8.20968 200.493 7.29422L201.024 5.46328C201.29 4.51828 202.176 4.07531 203.652 4.07531H205.158C206.783 4.07531 207.462 4.54781 207.196 5.46328L206.399 8.56406ZM205.69 7.91437L206.399 5.46328C206.546 4.93172 206.192 4.69547 205.306 4.69547H203.387C202.56 4.69547 202.087 4.93172 201.969 5.37468L201.438 7.23515C201.29 7.67812 201.703 7.91437 202.678 7.91437H205.69Z" fill="white"/>
</svg>
