<svg width="23" height="21" viewBox="0 0 23 21" fill="none" xmlns="http://www.w3.org/2000/svg">
<path d="M9.34252 19.9892C9.35108 20.0089 9.36112 20.0273 9.37241 20.0443C9.4188 20.1489 9.50266 20.2343 9.60702 20.2921C9.70527 20.3493 9.81915 20.3739 9.92582 20.3739C10.0913 20.3739 10.2775 20.3177 10.4039 20.1784L10.4039 20.1785L10.4066 20.1753L22.0782 6.76425C22.1828 6.64944 22.2213 6.50156 22.1888 6.35915C22.1568 6.21949 22.0615 6.10366 21.9341 6.03073L21.9341 6.03072L21.9319 6.02951L18.3776 4.05298C18.3198 4.01747 18.2498 3.98939 18.1751 3.97855L1.52903 0.813796C1.52855 0.813698 1.52807 0.813601 1.52759 0.813504C1.24398 0.756294 0.914524 0.888642 0.819887 1.176L0.819711 1.17594L0.817372 1.18423C0.775354 1.33308 0.808295 1.47081 0.886888 1.57925L9.34252 19.9892ZM18.0797 5.10138L20.279 6.32397L13.1631 9.24511L18.0797 5.10138ZM3.00266 2.13558L17.1213 4.82201L11.1743 9.83244L3.00266 2.13558ZM9.59148 18.4282L2.35455 2.67691L10.6442 10.4832L9.59148 18.4282ZM20.196 7.22482L10.4964 18.3564L11.4975 10.8009L20.196 7.22482Z" fill="white" stroke="white" stroke-width="0.4"/>
</svg>
