<svg width="20" height="17" viewBox="0 0 20 17" fill="none" xmlns="http://www.w3.org/2000/svg">
<path d="M20 2.3056L18.1261 2.70728L19.9513 1.14089C19.0824 1.314 18.2118 1.48879 17.3429 1.6619C14.2756 -2.04903 8.08235 0.967781 9.10588 5.66862C7.90588 4.80644 5.82185 4.52913 4.31092 3.83501C2.24706 2.88711 2.46218 1.85686 2.34454 2.34761C1.44538 6.11904 4.69916 8.86358 5.57479 8.91064C4.74958 9.03165 3.14622 8.47366 3.14622 8.47366C3.14622 8.47366 3.14622 10.5375 6.88235 12.3123C4.7479 13.3123 2.31597 13.6182 0 13.193C7.35126 20.3896 19.9311 13.8064 18.3361 3.71904L20 2.3056Z" fill="#9B90A7"/>
</svg>
