<svg width="9" height="18" viewBox="0 0 9 18" fill="none" xmlns="http://www.w3.org/2000/svg">
<path d="M1.94619 3.48954C1.94619 3.94142 1.94619 5.96653 1.94619 5.96653H0V8.99582H1.94619V18H5.9417V8.99582H8.62332C8.62332 8.99582 8.87444 7.54393 8.99552 5.95398C8.64574 5.95398 5.95516 5.95398 5.95516 5.95398C5.95516 5.95398 5.95516 4.19247 5.95516 3.88284C5.95516 3.57322 6.39014 3.15481 6.82063 3.15481C7.25112 3.15481 8.15695 3.15481 9 3.15481C9 2.74059 9 1.31799 9 0C7.87892 0 6.6009 0 6.04036 0C1.84753 0.0041841 1.94619 3.03766 1.94619 3.48954Z" fill="#9B90A7"/>
</svg>
