<svg width="23" height="13" viewBox="0 0 23 13" fill="none" xmlns="http://www.w3.org/2000/svg">
<path d="M22.8794 11.4178C22.85 11.3612 22.8248 11.3127 22.7997 11.2723C22.4012 10.5816 21.6379 9.7292 20.5138 8.72334L20.4887 8.6991L20.4761 8.68698L20.4635 8.67486H20.4509C19.9392 8.20626 19.6163 7.89117 19.482 7.72959C19.2346 7.42258 19.1801 7.11153 19.3143 6.79644C19.4107 6.5581 19.7715 6.05315 20.3922 5.28562C20.7193 4.87762 20.9794 4.55041 21.1723 4.30399C22.5522 2.53464 23.152 1.40354 22.9674 0.91475L22.8961 0.80164C22.85 0.732967 22.7242 0.668333 22.527 0.611778C22.3257 0.555223 22.0699 0.543105 21.7595 0.583501L18.3119 0.607738C18.2573 0.58754 18.1777 0.59158 18.0728 0.611778C17.9679 0.636016 17.9176 0.648135 17.9176 0.648135L17.8589 0.676412L17.8128 0.712769C17.7708 0.737006 17.7289 0.777403 17.6827 0.833957C17.6366 0.890512 17.5947 0.959185 17.5653 1.03594C17.1878 1.96505 16.7642 2.82953 16.2819 3.62937C15.9883 4.10605 15.7157 4.51809 15.4682 4.86954C15.2207 5.22099 15.0152 5.47548 14.8475 5.64111C14.6797 5.80673 14.5287 5.94004 14.3903 6.03699C14.2561 6.13798 14.1512 6.17837 14.0799 6.16222C14.0086 6.14606 13.9415 6.1299 13.8744 6.11778C13.7612 6.04911 13.6731 5.9562 13.606 5.83501C13.5389 5.71382 13.4927 5.56435 13.4676 5.38661C13.4424 5.20483 13.4298 5.05132 13.4256 4.91801C13.4214 4.78875 13.4256 4.60292 13.4298 4.36459C13.4382 4.12625 13.4424 3.96466 13.4424 3.87983C13.4424 3.58898 13.4466 3.26985 13.4592 2.92648C13.4718 2.58311 13.4802 2.31246 13.4885 2.11452C13.4969 1.91658 13.5011 1.70248 13.5011 1.4803C13.5011 1.25812 13.4885 1.08441 13.4592 0.955146C13.4298 0.829918 13.3879 0.704689 13.3334 0.58754C13.2788 0.470391 13.1949 0.37748 13.0859 0.308807C12.9768 0.244173 12.8426 0.191658 12.6833 0.151261C12.2596 0.0583501 11.7228 0.00987463 11.0685 0.00179539C9.58374 -0.0143631 8.63166 0.0785482 8.20805 0.280529C8.04028 0.365361 7.88929 0.478471 7.75507 0.627937C7.61247 0.797601 7.5915 0.890512 7.69635 0.90667C8.17449 0.975344 8.51422 1.14097 8.71554 1.40354L8.78685 1.54089C8.84137 1.64188 8.90009 1.81962 8.95461 2.07008C9.00914 2.32458 9.04689 2.60331 9.06366 2.91032C9.10141 3.47183 9.10141 3.95254 9.06366 4.35247C9.02172 4.75239 8.98397 5.06344 8.95042 5.28562C8.91267 5.5078 8.86234 5.68958 8.78685 5.82693C8.71554 5.96428 8.66521 6.04911 8.64424 6.08142C8.61908 6.11374 8.6023 6.1299 8.58552 6.13798C8.48067 6.17434 8.37581 6.19453 8.26257 6.19453C8.14933 6.19453 8.01511 6.14202 7.85573 6.03295C7.69635 5.92388 7.52859 5.77845 7.36082 5.58859C7.18886 5.39873 6.99592 5.13615 6.77782 4.79682C6.56392 4.4575 6.33743 4.05757 6.10675 3.59706L5.91382 3.26177C5.79219 3.04767 5.62861 2.73258 5.4231 2.32054C5.21339 1.9085 5.03304 1.51261 4.87366 1.12481C4.81075 0.963225 4.71428 0.842036 4.58426 0.757204L4.52554 0.720848C4.48779 0.688531 4.42068 0.656214 4.33261 0.623897C4.24453 0.58754 4.15226 0.563303 4.05579 0.547144L0.775927 0.571382C0.440391 0.571382 0.213904 0.644095 0.0922724 0.789521L0.0461362 0.858195C0.0125826 0.91071 0 0.971304 0 1.05614C0 1.14097 0.0251652 1.246 0.0713014 1.36719C0.54944 2.45385 1.07371 3.49607 1.63574 4.50597C2.19776 5.51588 2.68848 6.3238 3.10371 6.93782C3.51893 7.55185 3.94255 8.13355 4.37455 8.6789C4.80655 9.22425 5.09176 9.5757 5.23017 9.7292C5.36857 9.88271 5.48182 9.99986 5.56151 10.0766L5.85929 10.3553C6.05223 10.5412 6.33324 10.7593 6.70233 11.0178C7.07561 11.2764 7.48664 11.5309 7.93542 11.7813C8.3884 12.0318 8.91267 12.2338 9.50825 12.3913C10.108 12.5489 10.691 12.6135 11.2572 12.5812H12.6329C12.9139 12.5569 13.1236 12.4721 13.2662 12.3267L13.3124 12.2701C13.3459 12.2257 13.3753 12.153 13.4005 12.056C13.4298 11.9591 13.4424 11.854 13.4424 11.7369C13.434 11.4056 13.4592 11.1067 13.5221 10.8441C13.5808 10.5775 13.6479 10.3796 13.7276 10.2463C13.8031 10.113 13.8912 9.99986 13.9835 9.90695C14.0799 9.81403 14.147 9.75748 14.189 9.74132C14.2267 9.72112 14.2603 9.709 14.2854 9.70092C14.4784 9.64033 14.7007 9.70092 14.9607 9.87867C15.2207 10.0605 15.464 10.2826 15.6905 10.5492C15.917 10.8159 16.1896 11.1108 16.5126 11.442C16.8313 11.7732 17.1123 12.0197 17.3514 12.1813L17.5905 12.3186C17.7498 12.4115 17.9596 12.4963 18.2154 12.5731C18.4712 12.6498 18.6935 12.67 18.8865 12.6296L21.9524 12.5852C22.2544 12.5852 22.4935 12.5367 22.6571 12.4398C22.8248 12.3428 22.9255 12.2378 22.9548 12.1207C22.9884 12.0035 22.9884 11.8742 22.959 11.7288C22.9339 11.5793 22.9045 11.4784 22.8794 11.4178Z" fill="#9B90A7"/>
</svg>
