<svg width="22" height="12" viewBox="0 0 22 12" fill="none" xmlns="http://www.w3.org/2000/svg">
<path d="M11 0C5.04545 0 0.322727 5.03636 0.122727 5.25455C-0.0409091 5.43182 -0.0409091 5.70909 0.122727 5.88636C0.322727 6.1 5.04545 11.1364 11 11.1364C16.9545 11.1364 21.6773 6.1 21.8773 5.88182C22.0409 5.70455 22.0409 5.42727 21.8773 5.25C21.6818 5.03636 16.9545 0 11 0ZM6.67273 5.56818C6.67273 3.18182 8.61364 1.24091 11 1.24091C13.3864 1.24091 15.3273 3.18182 15.3273 5.56818C15.3273 7.95455 13.3864 9.89545 11 9.89545C8.61364 9.9 6.67273 7.95455 6.67273 5.56818ZM8.12727 1.35C6.78182 2.26818 5.89545 3.81818 5.89545 5.56818C5.89545 7.31818 6.78182 8.86364 8.12727 9.78636C4.71364 8.81818 2.01818 6.43182 1.12273 5.56818C2.01364 4.70455 4.71364 2.31818 8.12727 1.35ZM13.8727 9.78636C15.2182 8.86818 16.1045 7.31818 16.1045 5.56818C16.1045 3.81818 15.2182 2.27273 13.8727 1.35C17.2864 2.31818 19.9818 4.70455 20.8773 5.56818C19.9864 6.43182 17.2864 8.81364 13.8727 9.78636Z" fill="#281D34"/>
<path d="M11 2.70909C9.42273 2.70909 8.14091 3.99091 8.14091 5.56818C8.14091 7.14545 9.42273 8.42727 11 8.42727C12.5773 8.42727 13.8591 7.14545 13.8591 5.56818C13.8591 3.99091 12.5773 2.70909 11 2.70909ZM11.9182 5.56818C11.4136 5.56818 11 5.15909 11 4.65C11 4.14545 11.4091 3.73182 11.9182 3.73182C12.4227 3.73182 12.8364 4.14091 12.8364 4.65C12.8364 5.15909 12.4227 5.56818 11.9182 5.56818Z" fill="#281D34"/>
</svg>
