<svg width="36" height="25" viewBox="0 0 36 25" fill="none" xmlns="http://www.w3.org/2000/svg">
<path d="M28.4505 24.0007L28.4504 24.0006C26.841 23.2716 25.7062 22.0079 24.6327 20.8125L24.6147 20.7925L24.6051 20.7818C23.8148 19.9018 23.0817 19.0855 22.1966 18.4792L22.1964 18.4791C20.9562 17.6274 19.5057 17.1789 18.002 17.1789C16.4982 17.1789 15.0477 17.6274 13.8075 18.4791L13.8073 18.4792C12.9186 19.088 12.183 19.9062 11.3893 20.7923L11.3892 20.7925L11.3785 20.8043C10.3028 22.0022 9.16653 23.2675 7.55347 23.9982L7.55336 23.9982C6.87967 24.3027 6.20652 24.4594 5.5473 24.4594C4.41691 24.4594 3.38678 24.0027 2.56887 23.1473C1.82806 22.3739 1.31355 21.3267 1.0744 20.1252L28.4505 24.0007ZM28.4505 24.0007C29.1239 24.305 29.7971 24.4643 30.4566 24.4643C31.5871 24.4643 32.6196 24.0051 33.435 23.1522L33.4351 23.1521C34.1758 22.3763 34.6904 21.3292 34.9295 20.1276C35.4761 17.3844 34.909 14.6628 34.3679 12.0665L34.3675 12.0646M28.4505 24.0007L34.3675 12.0646M3.39303 6.56329L3.39306 6.56325C4.20109 4.94293 5.18881 3.59779 6.33364 2.56804C7.60208 1.42616 9.18498 0.85 11.0309 0.85C12.2532 0.85 13.6013 1.10736 15.0325 1.60814L15.0326 1.60818C15.4279 1.74691 15.8095 1.91743 16.1706 2.08032L3.39303 6.56329ZM3.39303 6.56329C2.6859 7.98251 2.14198 9.58448 1.81464 11.1934L3.39303 6.56329ZM20.9713 1.60818L20.9714 1.60814C22.4026 1.10737 23.7483 0.85 24.973 0.85C26.819 0.85 28.4019 1.42618 29.6704 2.57063C30.8152 3.60036 31.8029 4.94544 32.6108 6.56568L32.6109 6.56573C33.3179 7.98481 33.8644 9.58444 34.1893 11.1962M20.9713 1.60818L34.0423 11.2259M20.9713 1.60818C20.5818 1.74487 20.2078 1.91251 19.8498 2.07294L19.8337 2.08013L20.9713 1.60818ZM34.1893 11.1962L34.0423 11.2259M34.1893 11.1962C34.1893 11.1961 34.1893 11.196 34.1893 11.1959L34.0423 11.2259M34.1893 11.1962C34.2479 11.4831 34.3089 11.7797 34.3675 12.0643M34.0423 11.2259C34.1009 11.5131 34.162 11.8101 34.2206 12.0949M34.3675 12.0643L34.2206 12.0949M34.3675 12.0643C34.3675 12.0644 34.3675 12.0645 34.3675 12.0646M34.3675 12.0643L34.3675 12.0646M34.2206 12.0949L34.3675 12.0646M34.2206 12.0949L34.3675 12.0646M23.1283 17.1291L23.1284 17.1292C24.1835 17.8541 25.0327 18.8001 25.8393 19.6986L23.1283 17.1291ZM23.1283 17.1291C21.6133 16.0896 19.8397 15.5401 18.002 15.5401C16.1641 15.5401 14.3907 16.0897 12.8709 17.129L12.8707 17.1292C11.8155 17.8541 10.9663 18.8001 10.1596 19.6987L10.1596 19.6987L10.1596 19.6988C9.12227 20.8547 8.163 21.917 6.86775 22.5055L6.86737 22.5056C6.40489 22.7173 5.95715 22.8206 5.54241 22.8206C4.19645 22.8206 3.05379 21.6718 2.68273 19.8062L2.68272 19.8062C2.20369 17.4001 2.7275 14.8753 3.24176 12.3983C3.30293 12.1106 3.36407 11.8132 3.42275 11.5208C4.06545 8.35484 5.57004 5.46364 7.43317 3.78662C8.38693 2.92812 9.59562 2.48878 11.0309 2.48878C12.0602 2.48878 13.2229 2.71079 14.4862 3.15456L14.4865 3.15466C14.8112 3.26802 15.137 3.41457 15.4868 3.57193L15.4954 3.57581L15.4955 3.57588L15.5077 3.58134C16.2592 3.91845 17.0666 4.2807 17.9584 4.32871C17.9589 4.32874 17.9593 4.32876 17.9597 4.32879L17.9913 4.33106L18.002 4.33181L18.0126 4.33106L18.0442 4.32879C18.0446 4.32876 18.045 4.32874 18.0455 4.32871C18.9373 4.2807 19.7447 3.91845 20.4962 3.58134L20.5081 3.57597C20.5315 3.56556 20.5546 3.5552 20.5777 3.54489C20.907 3.39763 21.2115 3.26147 21.5174 3.15466L21.5177 3.15456C22.781 2.71079 23.9437 2.48878 24.973 2.48878C26.4083 2.48878 27.6145 2.92811 28.5659 3.7842L28.5659 3.78425C30.4314 5.46118 31.9335 8.35225 32.5762 11.5183C32.61 11.6864 32.6457 11.8576 32.6809 12.027C32.7068 12.1513 32.7325 12.2746 32.7571 12.395L32.7572 12.3956C33.2739 14.875 33.7954 17.3999 33.3163 19.8062C32.9452 21.6719 31.805 22.8206 30.4566 22.8206C30.0424 22.8206 29.597 22.7151 29.1309 22.5053C27.8374 21.92 26.8816 20.8574 25.8429 19.7026L25.8394 19.6987L25.8394 19.6987L23.1283 17.1291ZM1.63638 12.0622L1.63448 12.0713C1.0939 14.6678 0.52831 17.3844 1.07439 20.1252L1.63638 12.0622ZM1.63638 12.0622C1.69499 11.7774 1.75603 11.4806 1.81462 11.1935L1.63638 12.0622ZM18.002 2.6874C18.5677 2.64573 19.1658 2.37867 19.8336 2.08019L18.002 2.6874ZM18.002 2.6874C17.4362 2.64575 16.8376 2.38089 16.1706 2.08035L18.002 2.6874ZM12.2129 9.09696H10.5554V7.42135C10.5554 7.17883 10.3816 7.01999 10.191 6.92977C9.99795 6.83842 9.75148 6.79669 9.51388 6.79669C9.27628 6.79669 9.02981 6.83842 8.83678 6.92977C8.64613 7.01999 8.47234 7.17883 8.47234 7.42135V9.09696H6.76598C6.52527 9.09696 6.37156 9.27692 6.28581 9.46663C6.19811 9.66066 6.158 9.9085 6.158 10.1476C6.158 10.3867 6.19811 10.6345 6.28581 10.8286C6.37156 11.0183 6.52527 11.1982 6.76598 11.1982H8.47234V12.8252C8.47234 13.0677 8.64613 13.2265 8.83678 13.3168C9.02981 13.4081 9.27628 13.4498 9.51388 13.4498C9.75148 13.4498 9.99795 13.4081 10.191 13.3168C10.3816 13.2265 10.5554 13.0677 10.5554 12.8252V11.1982H12.2129C12.4536 11.1982 12.6073 11.0183 12.6931 10.8286C12.7808 10.6345 12.8209 10.3867 12.8209 10.1476C12.8209 9.9085 12.7808 9.66066 12.6931 9.46663C12.6073 9.27692 12.4536 9.09696 12.2129 9.09696ZM29.4926 9.30134C29.0457 8.85598 28.3233 8.85598 27.8763 9.30134C27.4292 9.74699 27.4292 10.4678 27.8764 10.9135C28.3233 11.3588 29.0457 11.3588 29.4926 10.9135C29.9398 10.4678 29.9398 9.74699 29.4926 9.30134ZM24.7273 9.30134C24.2804 8.85598 23.558 8.85598 23.1111 9.30134C22.6639 9.74699 22.6639 10.4678 23.1111 10.9135C23.558 11.3588 24.2804 11.3588 24.7273 10.9135C25.1745 10.4678 25.1745 9.74699 24.7273 9.30134ZM27.1089 13.2867C27.5561 12.8411 27.5561 12.1203 27.1089 11.6746C26.662 11.2293 25.9396 11.2293 25.4926 11.6746C25.0454 12.1203 25.0454 12.8411 25.4926 13.2867C25.9396 13.7321 26.662 13.7321 27.1089 13.2867ZM27.1089 8.54015C27.5561 8.09451 27.5561 7.37367 27.1089 6.92802C26.662 6.48266 25.9396 6.48266 25.4926 6.92802C25.0454 7.37367 25.0454 8.09451 25.4926 8.54015C25.9396 8.98552 26.662 8.98552 27.1089 8.54015Z" fill="#857797" stroke="#857797" stroke-width="0.3"/>
</svg>
