<svg width="18" height="18" viewBox="0 0 18 18" fill="none" xmlns="http://www.w3.org/2000/svg">
<path d="M17.7577 11.1347L16.9069 10.4C16.6542 10.1796 16.4689 9.73878 16.4941 9.41224V8.57143C16.4689 8.2449 16.6542 7.80408 16.9069 7.58367L17.7493 6.85714C18.002 6.63673 18.0694 6.22857 17.9009 5.95102L16.174 3.0449C16.0055 2.75918 15.6096 2.61224 15.2895 2.71837L14.2112 3.06122C13.8911 3.16735 13.4025 3.10204 13.1245 2.91429L12.3748 2.49796C12.0716 2.35102 11.7683 1.97551 11.7009 1.65714L11.4735 0.579592C11.4061 0.261224 11.0775 0 10.7406 0H7.26991C6.93295 0 6.60441 0.261224 6.53702 0.579592L6.30958 1.65714C6.24218 1.97551 5.93892 2.35918 5.63566 2.49796L4.88593 2.91429C4.60794 3.09388 4.11935 3.15918 3.79924 3.06122L2.72097 2.71837C2.40086 2.61224 2.00494 2.75918 1.83646 3.0449L0.0927023 5.95918C-0.0757766 6.2449 -0.00838505 6.65306 0.244333 6.86531L1.09515 7.59184C1.34787 7.81224 1.5332 8.25306 1.50793 8.57959V9.42041C1.5332 9.74694 1.34787 10.1878 1.09515 10.4082L0.252757 11.1347C3.88831e-05 11.3551 -0.0673527 11.7633 0.101126 12.0408L1.83646 14.9551C2.00494 15.2408 2.40086 15.3878 2.72097 15.2816L3.79081 14.9388C4.11092 14.8327 4.59951 14.898 4.8775 15.0857L5.62724 15.502C5.9305 15.649 6.23376 16.0245 6.30115 16.3429L6.5286 17.4204C6.59599 17.7388 6.92452 18 7.26148 18H10.7321C11.0691 18 11.3976 17.7388 11.465 17.4204L11.6925 16.3429C11.7599 16.0245 12.0631 15.6408 12.3664 15.502L13.1161 15.0857C13.3941 14.9061 13.8827 14.8408 14.2028 14.9388L15.2811 15.2816C15.6012 15.3878 15.9971 15.2408 16.1656 14.9551L17.9009 12.0408C18.0778 11.7633 18.0104 11.3551 17.7577 11.1347ZM9.00524 14.049C6.12425 14.049 3.79081 11.7878 3.79081 8.99592C3.79081 6.20408 6.12425 3.94286 9.00524 3.94286C11.8862 3.94286 14.2197 6.20408 14.2197 8.99592C14.2112 11.7878 11.8778 14.049 9.00524 14.049Z" fill="#DE303D"/>
<path d="M9.00524 6.75102C7.7248 6.75102 6.68865 7.7551 6.68865 8.99592C6.68865 10.2367 7.7248 11.2408 9.00524 11.2408C10.2857 11.2408 11.3218 10.2367 11.3218 8.99592C11.3218 7.76326 10.2857 6.75102 9.00524 6.75102Z" fill="#DE303D"/>
</svg>
