<svg width="42" height="48" viewBox="0 0 42 48" fill="none" xmlns="http://www.w3.org/2000/svg">
<path d="M36.7895 10.0656L36.6626 9.98852L36.5342 10.0631L36.2028 10.2555L36.2021 10.2559C34.0436 11.5173 31.3767 11.4932 29.2422 10.194C27.1081 8.89497 25.8639 6.53771 25.9944 4.03886C25.9944 4.03872 25.9944 4.03858 25.9944 4.03844L26.0158 3.65809L26.0241 3.50865L25.8964 3.43069L21.5632 0.786593L21.3496 0.656286L21.2195 0.869921L0.786506 34.4058L0.656388 34.6193L0.869985 34.7494L5.20673 37.3899L5.33371 37.4672L5.46228 37.3926L5.79369 37.2002L5.79429 37.1998C7.95285 35.9384 10.6198 35.9624 12.7542 37.2617C14.8884 38.5607 16.1325 40.918 16.002 43.4168C16.002 43.417 16.002 43.4171 16.002 43.4172L15.9807 43.7976L15.9723 43.9472L16.1003 44.0251L20.437 46.6656L20.6505 46.7956L20.7805 46.5822L41.2135 13.0463L41.3437 12.8326L41.1298 12.7026L36.7895 10.0656ZM16.6416 11.8101L21.9441 3.10391L24.2087 4.48318C24.2392 7.43145 25.7798 10.1654 28.3194 11.7115C30.8589 13.2576 33.9926 13.3745 36.6279 12.0481L38.8925 13.4273L33.59 22.1335L30.9599 20.5317L30.7464 20.4017L30.6163 20.6152L29.95 21.7091L29.8199 21.9227L30.0334 22.0527L32.6635 23.6545L20.0524 44.3518L17.7878 42.9725C17.7572 40.0242 16.2166 37.2903 13.677 35.7441C11.1375 34.1981 8.00385 34.0812 5.36853 35.4076L3.10395 34.0284L15.7151 13.3311L18.3452 14.9329L18.5587 15.0629L18.6888 14.8494L19.3552 13.7554L19.4852 13.5419L19.2717 13.4119L16.6416 11.8101ZM20.7649 14.3176L20.5514 14.1875L20.4213 14.401L19.7556 15.4935L19.6255 15.707L19.839 15.8371L23.4817 18.0568L23.6952 18.1869L23.8252 17.9734L24.491 16.8809L24.6211 16.6674L24.4076 16.5373L20.7649 14.3176ZM25.8454 17.4118L25.632 17.2817L25.5019 17.4952L24.8361 18.5877L24.706 18.8012L24.9195 18.9313L28.5622 21.1511L28.7757 21.2812L28.9058 21.0677L29.5715 19.9752L29.7016 19.7617L29.4881 19.6316L25.8454 17.4118Z" fill="#DE303D" stroke="#DE303D" stroke-width="0.5"/>
</svg>
