<svg width="32" height="24" viewBox="0 0 32 24" fill="none" xmlns="http://www.w3.org/2000/svg">
<path d="M28.3913 10.3824C28.3913 13.7471 22.8478 16.5294 16 16.5294C9.15217 16.5294 3.6087 13.7471 3.6087 10.3824M17.9565 6.95294C22.0652 7.40588 25.1304 9.15294 25.1304 11.2882C25.1304 11.8706 24.8696 12.4529 24.4783 12.9059M7.91304 13.2941C7.26087 12.7118 6.86957 12 6.86957 11.2235C6.86957 9.08824 9.93478 7.34118 14.0435 6.88824M17.3043 14.5882V9.41176L16 8.11765L14.6957 9.41176V14.5882M16 8.76471V1M17.3043 1H14.6957M20.5652 2.94118H11.4348M11.4348 1.64706V4.23529M20.5652 1.64706V4.23529M10.1304 3.65294C5.43478 4.75294 1.91304 7.14706 1 10.0588V15.8824C1.65217 19.3765 7.78261 23 16 23C24.2174 23 30.2174 19.3765 31 15.8824V10.0588C30.1522 7.14706 26.6304 4.75294 21.8696 3.65294H10.1304Z" stroke="#807D9B" stroke-width="1.59959" stroke-miterlimit="10"/>
</svg>
