<svg width="17" height="18" viewBox="0 0 17 18" fill="none" xmlns="http://www.w3.org/2000/svg">
<path d="M16.7712 10.8519L15.9676 10.1359C15.7289 9.92107 15.5539 9.49145 15.5778 9.17321V8.35375C15.5539 8.03551 15.7289 7.60589 15.9676 7.39108L16.7632 6.683C17.0019 6.46819 17.0655 6.07039 16.9064 5.79989L15.2755 2.96757C15.1163 2.68911 14.7424 2.5459 14.4401 2.64933L13.4217 2.98348C13.1194 3.08691 12.658 3.02326 12.3954 2.84027L11.6873 2.43452C11.4009 2.29131 11.1145 1.92534 11.0508 1.61506L10.836 0.564872C10.7724 0.25459 10.4621 0 10.1439 0H6.86602C6.54778 0 6.2375 0.25459 6.17385 0.564872L5.95904 1.61506C5.8954 1.92534 5.60898 2.29927 5.32257 2.43452L4.61449 2.84027C4.35194 3.0153 3.8905 3.07895 3.58817 2.98348L2.56981 2.64933C2.26748 2.5459 1.89355 2.68911 1.73443 2.96757L0.0875522 5.80784C-0.0715668 6.0863 -0.00791922 6.4841 0.230759 6.69095L1.03431 7.39903C1.27299 7.61384 1.44802 8.04346 1.42415 8.3617V9.18117C1.44802 9.4994 1.27299 9.92902 1.03431 10.1438L0.238715 10.8519C3.67229e-05 11.0667 -0.0636109 11.4645 0.0955081 11.735L1.73443 14.5753C1.89355 14.8538 2.26748 14.997 2.56981 14.8935L3.58021 14.5594C3.88254 14.456 4.34399 14.5196 4.60653 14.7026L5.31461 15.1083C5.60103 15.2516 5.88744 15.6175 5.95109 15.9278L6.1659 16.978C6.22955 17.2883 6.53983 17.5429 6.85806 17.5429H10.1359C10.4542 17.5429 10.7644 17.2883 10.8281 16.978L11.0429 15.9278C11.1065 15.6175 11.393 15.2436 11.6794 15.1083L12.3874 14.7026C12.65 14.5276 13.1114 14.4639 13.4138 14.5594L14.4321 14.8935C14.7345 14.997 15.1084 14.8538 15.2675 14.5753L16.9064 11.735C17.0735 11.4645 17.0099 11.0667 16.7712 10.8519ZM8.50495 13.6922C5.78401 13.6922 3.58021 11.4884 3.58021 8.76746C3.58021 6.04652 5.78401 3.84272 8.50495 3.84272C11.2259 3.84272 13.4297 6.04652 13.4297 8.76746C13.4217 11.4884 11.2179 13.6922 8.50495 13.6922Z" fill="white"/>
<path d="M8.50495 6.57957C7.29564 6.57957 6.31706 7.55815 6.31706 8.76746C6.31706 9.97676 7.29564 10.9553 8.50495 10.9553C9.71425 10.9553 10.6928 9.97676 10.6928 8.76746C10.6928 7.56611 9.71425 6.57957 8.50495 6.57957Z" fill="white"/>
</svg>
