<svg width="29" height="29" viewBox="0 0 29 29" fill="none" xmlns="http://www.w3.org/2000/svg">
<path d="M10 9.4H5.2V16.6H10M10 9.4V16.6M10 9.4H14.8M10 16.6H14.8M14.8 9.4V16.6M14.8 9.4H19.6V16.6H14.8M21.4 25V28H2.8V25M26.2 5.8C27.1941 5.8 28 4.99411 28 4C28 3.00589 27.1941 2.2 26.2 2.2C25.2059 2.2 24.4 3.00589 24.4 4C24.4 4.99411 25.2059 5.8 26.2 5.8ZM26.2 5.8V11.2M23.8 23.8V19L22 17.2V1H2.8V17.2L1 19V23.8H23.8ZM5.2 3.4H19.6V7H5.2V3.4ZM26.8 14.8H22V11.2H26.8C27.46 11.2 28 11.74 28 12.4V13.6C28 14.26 27.46 14.8 26.8 14.8Z" stroke="#807D9B" stroke-width="1.4" stroke-miterlimit="10"/>
</svg>
