<svg width="32" height="29" viewBox="0 0 32 29" fill="none" xmlns="http://www.w3.org/2000/svg">
<path d="M6.0028 27.5785C7.54395 27.5785 8.88232 26.5646 9.32844 25.1451C9.77456 26.5646 11.1129 27.5785 12.6541 27.5785C14.1952 27.5785 15.5336 26.5646 15.9797 25.1451C16.4258 26.5646 17.7642 27.5785 19.3054 27.5785C20.8465 27.5785 22.1849 26.5646 22.631 25.1451C23.0771 26.5646 24.4155 27.5785 25.9566 27.5785C27.9034 27.5785 29.4445 25.9968 29.4445 24.0906C29.4445 22.1845 27.8628 20.6028 25.9566 20.6028C25.6322 20.6028 25.3077 20.6433 24.9833 20.7244C25.6728 20.0755 26.1189 19.1833 26.1189 18.1694C26.1189 16.2226 24.5372 14.6815 22.631 14.6815C22.3066 14.6815 21.9821 14.722 21.6576 14.8032C22.3471 14.1543 22.7932 13.262 22.7932 12.2481C22.7932 10.3014 21.2115 8.76023 19.3054 8.76023C18.9809 8.76023 18.6565 8.80078 18.332 8.8819C19.0215 8.23299 19.4676 7.34074 19.4676 6.32683C19.4676 4.38011 17.8859 2.83896 15.9797 2.83896C14.0736 2.83896 12.4919 4.42067 12.4919 6.32683C12.4919 7.34074 12.938 8.27355 13.6274 8.8819C13.303 8.80078 12.9785 8.76023 12.6541 8.76023C10.7074 8.76023 9.16621 10.3419 9.16621 12.2481C9.16621 13.262 9.61234 14.1948 10.3018 14.8032C9.97735 14.722 9.65289 14.6815 9.32844 14.6815C7.38172 14.6815 5.84057 16.2632 5.84057 18.1694C5.84057 19.1833 6.2867 20.1161 6.97616 20.7244C6.65171 20.6433 6.32725 20.6028 6.0028 20.6028C4.05608 20.6028 2.51493 22.1845 2.51493 24.0906C2.51493 25.9968 4.09664 27.5785 6.0028 27.5785ZM8.35508 21.5356C8.67953 21.6167 9.00399 21.6572 9.32844 21.6572C9.65289 21.6572 9.97735 21.6167 10.3018 21.5356C9.85568 21.9411 9.53122 22.4684 9.32844 23.0361C9.12566 22.4278 8.8012 21.9411 8.35508 21.5356ZM12.6541 26.6862C11.2346 26.6862 10.0585 25.5101 10.0585 24.0906C10.0585 22.6711 11.2346 21.495 12.6541 21.495C14.0736 21.495 15.2497 22.6711 15.2497 24.0906C15.2497 25.5101 14.0736 26.6862 12.6541 26.6862ZM16.9531 14.8032C16.6286 14.722 16.3042 14.6815 15.9797 14.6815C15.6553 14.6815 15.3308 14.722 15.0064 14.8032C15.4525 14.3976 15.7769 13.8704 15.9797 13.3026C16.1825 13.8704 16.507 14.3976 16.9531 14.8032ZM15.0064 9.65247C15.3308 9.73358 15.6553 9.77414 15.9797 9.77414C16.3042 9.77414 16.6286 9.73358 16.9531 9.65247C16.507 10.058 16.1825 10.5853 15.9797 11.1531C15.8175 10.5853 15.4525 10.058 15.0064 9.65247ZM15.9797 15.5737C17.3992 15.5737 18.5753 16.7499 18.5753 18.1694C18.5753 19.5888 17.3992 20.765 15.9797 20.765C14.5602 20.765 13.3841 19.5888 13.3841 18.1694C13.4247 16.7499 14.5602 15.5737 15.9797 15.5737ZM18.332 15.5737C18.6565 15.6548 18.9809 15.6954 19.3054 15.6954C19.6298 15.6954 19.9543 15.6548 20.2787 15.5737C19.8326 15.9793 19.5081 16.5065 19.3054 17.0743C19.1431 16.5065 18.7781 15.9793 18.332 15.5737ZM20.2787 20.7244C19.9543 20.6433 19.6298 20.6028 19.3054 20.6028C18.9809 20.6028 18.6565 20.6433 18.332 20.7244C18.7781 20.3189 19.1026 19.7916 19.3054 19.2238C19.5081 19.8322 19.8326 20.3189 20.2787 20.7244ZM12.6541 17.1149C12.4513 16.5471 12.1268 16.0199 11.6807 15.6143C12.0052 15.6954 12.3296 15.736 12.6541 15.736C12.9785 15.736 13.303 15.6954 13.6274 15.6143C13.1813 15.9793 12.8569 16.5065 12.6541 17.1149ZM13.6274 20.7244C13.303 20.6433 12.9785 20.6028 12.6541 20.6028C12.3296 20.6028 12.0052 20.6433 11.6807 20.7244C12.1268 20.3189 12.4513 19.7916 12.6541 19.2238C12.8569 19.8322 13.1813 20.3189 13.6274 20.7244ZM15.0064 21.5356C15.3308 21.6167 15.6553 21.6572 15.9797 21.6572C16.3042 21.6572 16.6286 21.6167 16.9531 21.5356C16.507 21.9411 16.1825 22.4684 15.9797 23.0361C15.8175 22.4278 15.4525 21.9411 15.0064 21.5356ZM19.3054 26.6862C17.8859 26.6862 16.7097 25.5101 16.7097 24.0906C16.7097 22.6711 17.8859 21.495 19.3054 21.495C20.7248 21.495 21.901 22.6711 21.901 24.0906C21.901 25.5101 20.7248 26.6862 19.3054 26.6862ZM21.6982 21.5356C22.0227 21.6167 22.3471 21.6572 22.6716 21.6572C22.996 21.6572 23.3205 21.6167 23.6449 21.5356C23.1988 21.9411 22.8743 22.4684 22.6716 23.0361C22.4688 22.4278 22.1038 21.9411 21.6982 21.5356ZM25.9972 21.5356C27.4167 21.5356 28.5928 22.7117 28.5928 24.1312C28.5928 25.5507 27.4167 26.7268 25.9972 26.7268C24.5777 26.7268 23.4016 25.5507 23.4016 24.1312C23.4016 22.6711 24.5372 21.5356 25.9972 21.5356ZM22.631 15.5737C24.0505 15.5737 25.2266 16.7499 25.2266 18.1694C25.2266 19.5888 24.0505 20.765 22.631 20.765C21.2115 20.765 20.0354 19.5888 20.0354 18.1694C20.0759 16.7499 21.2115 15.5737 22.631 15.5737ZM19.3054 9.65247C20.7248 9.65247 21.901 10.8286 21.901 12.2481C21.901 13.6676 20.7248 14.8437 19.3054 14.8437C17.8859 14.8437 16.7097 13.6676 16.7097 12.2481C16.7503 10.8286 17.8859 9.65247 19.3054 9.65247ZM13.4247 6.28627C13.4247 4.86679 14.6008 3.69065 16.0203 3.69065C17.4398 3.69065 18.6159 4.86679 18.6159 6.28627C18.6159 7.70575 17.4398 8.8819 16.0203 8.8819C14.5602 8.8819 13.4247 7.70575 13.4247 6.28627ZM10.099 12.2481C10.099 10.8286 11.2752 9.65247 12.6946 9.65247C14.1141 9.65247 15.2903 10.8286 15.2903 12.2481C15.2903 13.6676 14.1141 14.8437 12.6946 14.8437C11.2346 14.8032 10.099 13.6676 10.099 12.2481ZM6.73282 18.1694C6.73282 16.7499 7.90896 15.5737 9.32844 15.5737C10.7479 15.5737 11.9241 16.7499 11.9241 18.1694C11.9241 19.5888 10.7479 20.765 9.32844 20.765C7.90896 20.765 6.73282 19.5888 6.73282 18.1694ZM6.0028 21.5356C7.42228 21.5356 8.59842 22.7117 8.59842 24.1312C8.59842 25.5507 7.42228 26.7268 6.0028 26.7268C4.58332 26.7268 3.40718 25.5507 3.40718 24.1312C3.40718 22.6711 4.58332 21.5356 6.0028 21.5356Z" fill="#7E819E"/>
<path d="M4.01553 28.9574H27.9845C29.4445 28.9574 30.7423 28.1868 31.4723 26.9296C32.2024 25.6723 32.1618 24.1717 31.4318 22.9145L19.1026 1.74393C18.4131 0.648906 17.2775 0 15.9797 0C14.6819 0 13.5463 0.648906 12.8974 1.74393L0.568215 22.9145C-0.161804 24.1717 -0.202361 25.6723 0.527658 26.9296C1.25768 28.1868 2.55549 28.9574 4.01553 28.9574ZM1.33879 23.3606L13.668 2.23061C14.1547 1.41948 15.0064 0.932802 15.9797 0.932802C16.9531 0.932802 17.8048 1.41948 18.2914 2.23061L30.6207 23.4012C31.1884 24.3745 31.1884 25.5101 30.6612 26.4835C30.0934 27.4568 29.1201 28.0246 27.9845 28.0246H4.01553C2.87994 28.0246 1.90658 27.4568 1.33879 26.4835C0.770998 25.5101 0.770998 24.334 1.33879 23.3606Z" fill="#7E819E"/>
</svg>
