<svg width="30" height="30" viewBox="0 0 30 30" fill="none" xmlns="http://www.w3.org/2000/svg">
<path d="M14.6638 29.3276C22.7648 29.3276 29.3276 22.7648 29.3276 14.6638C29.3276 6.56282 22.7135 0 14.6638 0C6.6141 0 0 6.56282 0 14.6638C0 22.7648 6.56282 29.3276 14.6638 29.3276ZM17.4325 27.9945C16.5609 28.1996 15.638 28.2509 14.6638 28.2509C13.6896 28.2509 12.818 28.1484 11.8951 27.9945L11.2799 26.8153L9.38278 22.9186L11.4337 20.5088H17.8939L19.9448 22.9186L18.0478 26.8153L17.4325 27.9945ZM9.63915 13.5871L14.6638 9.94678L19.6885 13.5871L17.7401 19.4834H11.5362L9.63915 13.5871ZM18.9194 27.2255L20.8677 23.2775L25.2771 22.6622C23.6877 24.7644 21.483 26.4051 18.9194 27.2255ZM26.4564 21.483L25.1233 21.6881L20.7652 22.3033L18.7143 19.8936L20.7139 13.7922L24.0466 12.3053L27.2255 15.4329L28.1484 16.3558C27.9433 18.2016 27.3793 19.9448 26.4564 21.483ZM25.4822 6.92173C27.0204 9.07515 27.9433 11.7413 27.9433 14.6125L24.7131 11.4337L25.4822 6.92173ZM20.4576 2.30724C22.0983 3.07632 23.5339 4.15304 24.7131 5.43484L24.508 6.76791L23.739 11.2799L20.355 12.818L15.1765 9.07515V5.07593L19.2783 2.92251L20.4576 2.30724ZM14.6638 1.33307C16.0994 1.33307 17.4838 1.58943 18.8168 1.99961L14.6638 4.20431L10.5108 1.99961C11.7926 1.58943 13.2282 1.33307 14.6638 1.33307ZM8.87006 2.30724L10.0493 2.92251L14.1511 5.07593V9.02388L8.97261 12.818L5.58865 11.3311L4.81957 6.81918L4.61448 5.43484C5.79374 4.15304 7.22936 3.07632 8.87006 2.30724ZM3.8454 6.92173L4.61448 11.4849L1.38435 14.6638C1.33307 11.7926 2.25597 9.12643 3.8454 6.92173ZM1.12799 16.3045L2.05088 15.3816L5.22975 12.254L8.56243 13.7409L10.562 19.8423L8.51116 22.2521L4.15304 21.6368L2.81996 21.4317C1.94834 19.9448 1.33307 18.2016 1.12799 16.3045ZM8.45989 23.3288L10.4082 27.2767C7.84462 26.4051 5.6912 24.8157 4.10176 22.7135L8.45989 23.3288Z" fill="#7E819E"/>
</svg>
