<svg width="14" height="13" viewBox="0 0 14 13" fill="none" xmlns="http://www.w3.org/2000/svg">
<path d="M4.73138 4.39086L4.91166 4.36486L4.9938 4.2023L6.91827 0.393812C6.92553 0.384731 6.93769 0.372995 6.95401 0.363187C6.96354 0.357461 6.97205 0.353891 6.97858 0.351914C6.98462 0.350085 6.98765 0.350003 6.98765 0.35C7.00646 0.350008 7.01635 0.35436 7.024 0.359188C7.03255 0.364584 7.04409 0.374715 7.05605 0.391853L9.00702 4.2039L9.09002 4.3661L9.2705 4.39113L13.6048 4.99224C13.6202 4.99514 13.6304 5.00083 13.6364 5.00567C13.6422 5.01032 13.6465 5.01601 13.6495 5.02477C13.6495 5.02466 13.6495 5.02468 13.6495 5.02481C13.6497 5.02582 13.6512 5.0333 13.6478 5.04651C13.646 5.05336 13.6435 5.05947 13.6408 5.06415C13.6391 5.06714 13.6379 5.06879 13.6374 5.06936L10.4913 8.05154L10.3543 8.18135L10.3875 8.3671L11.1314 12.5319L11.1407 12.5838L11.1496 12.601C11.1481 12.6067 11.1454 12.6104 11.1423 12.6135C11.1373 12.6184 11.1259 12.6259 11.104 12.6259C11.1041 12.6259 11.1024 12.6259 11.0987 12.6254C11.0951 12.6249 11.0905 12.624 11.0851 12.6225C11.075 12.6199 11.066 12.6164 11.0604 12.6138L7.19628 10.6419L7.03674 10.5605L6.87738 10.6423L3.00786 12.6283C2.99913 12.6313 2.9911 12.6341 2.98429 12.6364L2.97739 12.6388C2.96149 12.6444 2.95322 12.6471 2.9469 12.6489C2.94516 12.6494 2.94391 12.6498 2.94306 12.65C2.92441 12.6498 2.91586 12.6476 2.91247 12.6466C2.90898 12.6455 2.90183 12.643 2.88777 12.6339C2.8768 12.6268 2.87168 12.6215 2.8698 12.6193C2.86898 12.6184 2.86853 12.6177 2.8683 12.6174C2.86797 12.6158 2.86742 12.6112 2.86889 12.6023C2.86891 12.6022 2.86894 12.602 2.86897 12.6018L3.61262 8.39049L3.64535 8.20511L3.50873 8.07561L0.377952 5.10799C0.360813 5.08457 0.353748 5.06725 0.351267 5.05802C0.349929 5.05304 0.349999 5.05082 0.350001 5.05073L0.350024 5.05048L0.350487 5.04885C0.353495 5.04009 0.357835 5.03439 0.363581 5.02974C0.369644 5.02484 0.380017 5.01907 0.395823 5.0162L4.73138 4.39086Z" stroke="#59456D" stroke-width="0.7"/>
</svg>
