<svg width="20" height="20" viewBox="0 0 20 20" fill="none" xmlns="http://www.w3.org/2000/svg">
<path d="M12.2512 0.246223C11.5125 0.0703495 10.7387 0 10 0C5.32176 0 1.31183 3.2009 0.25659 7.73845C-0.341381 10.3414 0.115891 13.0147 1.52288 15.301C2.92987 17.5522 5.14588 19.1351 7.74882 19.733C8.48749 19.9089 9.26133 19.9793 10 19.9793C14.6782 19.9793 18.6882 16.7784 19.7434 12.2408C20.3414 9.63789 19.8841 6.9646 18.4771 4.71342C17.0701 2.42706 14.8541 0.844194 12.2512 0.246223ZM3.63337 16.497C3.52784 16.3914 3.45749 16.3211 3.35197 16.2156C3.14092 16.0045 2.96505 15.7935 2.78917 15.5472C2.6133 15.301 2.43743 15.09 2.29673 14.8438C2.12085 14.5975 1.98015 14.3161 1.83945 14.0699C1.62841 13.683 1.48771 13.2609 1.34701 12.8388C1.20631 12.4167 1.10078 11.9946 1.03044 11.5725C0.99526 11.2911 0.924911 10.9745 0.924911 10.6931C0.854561 9.81376 0.924911 8.86404 1.13596 7.9495C2.92987 9.00474 5.11071 7.56257 6.06043 6.57768C7.04532 5.41691 8.48748 4.74859 10 4.74859C11.8994 4.74859 13.5527 5.76866 14.4672 7.28118C14.7486 7.70327 14.9245 8.16055 15.0652 8.65299C15.0652 8.72334 15.1003 8.75852 15.1003 8.82887C15.1003 8.89922 15.1355 8.96956 15.1355 9.03991C15.2059 9.35649 15.241 9.67306 15.241 10.0248C15.241 10.4469 15.2059 10.8338 15.1355 11.2559C14.8189 12.6277 14.0099 13.7885 12.814 14.5272C11.5477 15.3362 9.96483 15.5472 8.48749 15.09C7.15084 14.7382 4.58309 14.6679 3.63337 16.497ZM18.8992 12.0298C18.8289 12.276 18.7937 12.487 18.6882 12.7333C18.6882 12.7684 18.653 12.8036 18.653 12.8388C18.5826 13.0498 18.5123 13.2609 18.4068 13.4719C18.4068 13.5071 18.3716 13.5423 18.3716 13.5775C18.2661 13.7885 18.1957 13.9996 18.0902 14.2106C18.0902 14.2458 18.055 14.2458 18.055 14.281C17.9495 14.492 17.844 14.6679 17.7384 14.8438C17.7384 14.8789 17.7033 14.8789 17.7033 14.9141C17.5977 15.09 17.4571 15.301 17.3164 15.4769C17.2812 15.5121 17.2812 15.5472 17.246 15.5824C17.1053 15.7583 16.9646 15.9342 16.8239 16.0749C16.7887 16.11 16.7536 16.1452 16.7536 16.1452C16.6129 16.3211 16.437 16.4618 16.2611 16.6377C16.2611 16.6377 16.2611 16.6377 16.2259 16.6377C16.0501 16.7784 15.9094 16.9191 15.7335 17.0598C15.6983 17.0949 15.6631 17.0949 15.6631 17.1301C15.4873 17.2708 15.3114 17.3763 15.1355 17.517C15.1003 17.5522 15.0652 17.5522 15.03 17.5874C14.8541 17.6929 14.6431 17.8336 14.4672 17.9391C14.432 17.9391 14.3968 17.9743 14.3968 17.9743C14.221 18.0798 14.0099 18.1854 13.7989 18.2557C13.7989 18.2557 13.7637 18.2557 13.7637 18.2909C13.5527 18.3964 13.3416 18.4668 13.1306 18.5371C13.0954 18.5371 13.0602 18.5723 13.025 18.5723C12.814 18.6426 12.6029 18.713 12.3919 18.7481C12.3567 18.7481 12.3215 18.7833 12.2864 18.7833C12.0753 18.8537 11.8291 18.8888 11.618 18.924H11.5829C11.3718 18.9592 11.1256 18.9944 10.9145 18.9944C10.8794 18.9944 10.8442 18.9944 10.809 18.9944C10.598 19.0295 10.3517 19.0295 10.1407 19.0295C10.1055 19.0295 10.1055 19.0295 10.0703 19.0295C10.0352 19.0295 10 19.0295 9.96483 19.0295C9.8593 19.0295 9.78895 19.0295 9.68343 19.0295C9.61308 19.0295 9.54273 19.0295 9.47238 19.0295C9.36685 19.0295 9.26133 19.0295 9.15581 18.9944C9.08546 18.9944 9.01511 18.9944 8.97993 18.9592C8.87441 18.9592 8.76888 18.924 8.66336 18.924C8.59301 18.924 8.55784 18.924 8.48749 18.8888C8.31161 18.8537 8.17091 18.8185 7.99504 18.7833C7.0805 18.5723 6.2363 18.2205 5.46246 17.7633C5.07553 17.5522 4.72379 17.2708 4.37204 17.0246C4.30169 16.9894 4.26651 16.9191 4.23134 16.8839C5.11071 14.8789 8.34679 15.6528 8.38196 15.6528C10.0352 16.1452 11.8291 15.9342 13.2713 15.0196C14.6079 14.1754 15.5576 12.874 15.9094 11.2911C16.0852 10.4469 16.1204 9.60271 15.9445 8.79369C15.9445 8.72334 15.9094 8.61782 15.9094 8.54747C15.9094 8.47712 15.8742 8.40677 15.839 8.33642C15.1355 5.80384 12.8492 3.93957 10.1055 3.93957C8.38196 3.93957 6.76392 4.67824 5.63833 5.97971C5.60315 6.01488 3.24645 8.40677 1.41736 7.14048C1.41736 7.1053 1.45253 7.07013 1.45253 7.03495C1.52288 6.8239 1.59323 6.61286 1.69876 6.40181C1.69876 6.36663 1.73393 6.33146 1.73393 6.29628C1.83945 6.08523 1.9098 5.87419 2.01533 5.66314C2.01533 5.62796 2.0505 5.62796 2.0505 5.59279C2.15603 5.38174 2.26155 5.20586 2.40225 5.02999C2.40225 4.99482 2.43743 4.99482 2.43743 4.95964C2.54295 4.78377 2.68365 4.57272 2.82435 4.39685C2.85952 4.36167 2.85952 4.3265 2.8947 4.29132C3.0354 4.11545 3.1761 3.93957 3.3168 3.79887C3.35197 3.7637 3.38714 3.72852 3.38714 3.72852C3.52784 3.55265 3.70372 3.41195 3.87959 3.23608C3.87959 3.23608 3.87959 3.23608 3.91477 3.23608C4.09064 3.09538 4.23134 2.95468 4.40721 2.81398C4.44239 2.77881 4.47756 2.77881 4.47756 2.74363C4.65344 2.60293 4.82931 2.49741 5.00518 2.35671C5.04036 2.32153 5.07553 2.32153 5.11071 2.28636C5.28658 2.18084 5.49763 2.04014 5.6735 1.93461C5.70868 1.93461 5.74385 1.89944 5.74385 1.89944C5.91973 1.79391 6.13078 1.68839 6.34182 1.61804C6.34182 1.61804 6.377 1.61804 6.377 1.58286C6.58805 1.47734 6.7991 1.40699 7.01015 1.33664C7.04532 1.33664 7.08049 1.30147 7.11567 1.30147C7.32672 1.23112 7.53777 1.16077 7.74882 1.12559C7.78399 1.12559 7.81916 1.09042 7.85434 1.09042C7.99504 1.09042 8.24126 1.05524 8.45231 1.02007H8.48749C8.69853 0.984893 8.94476 0.949719 9.15581 0.949719C9.19098 0.949719 9.22616 0.949719 9.26133 0.949719C9.47238 0.914544 9.7186 0.914544 9.92965 0.914544C9.96483 0.914544 9.96483 0.914544 10 0.914544C10.0352 0.914544 10.0704 0.914544 10.1055 0.914544C10.211 0.914544 10.2814 0.914544 10.3869 0.914544C10.4573 0.914544 10.5276 0.914544 10.598 0.914544C10.7035 0.914544 10.809 0.914544 10.9145 0.949719C10.9849 0.949719 11.0552 0.949719 11.0904 0.984893C11.1959 0.984893 11.3015 1.02007 11.407 1.02007C11.4773 1.02007 11.5125 1.02007 11.5829 1.05524C11.7587 1.09042 11.8994 1.12559 12.0753 1.16077C12.1808 1.19594 12.2864 1.23112 12.4271 1.23112C12.6029 1.26629 12.814 1.33664 12.9899 1.40699C13.0954 1.40699 13.2361 1.47734 13.3768 1.51251C13.7989 1.68839 14.221 1.86426 14.6079 2.11049C14.8541 2.25118 15.1003 2.42706 15.3466 2.60293C15.5928 2.77881 15.8038 2.95468 16.0501 3.16573C16.1556 3.27125 16.2611 3.37678 16.3666 3.4823C16.5425 3.623 16.6832 3.79887 16.8239 3.97475C16.9294 4.08027 16.9998 4.1858 17.0701 4.29132C17.2108 4.4672 17.3515 4.64307 17.4922 4.81894C17.7384 5.17069 17.9495 5.55761 18.1605 5.94453C19.0751 7.73845 19.3917 9.88411 18.8992 12.0298Z" fill="white"/>
</svg>
