<svg width="30" height="29" viewBox="0 0 30 29" fill="none" xmlns="http://www.w3.org/2000/svg">
<path d="M22.0379 4.57985L22.4589 4.15882C22.712 3.90573 22.712 3.4918 22.4589 3.23871L19.6915 0.473655C19.0599 -0.157885 18.0286 -0.157885 17.3971 0.473655L0.475608 17.3951C-0.155932 18.0267 -0.155932 19.058 0.475608 19.6895L3.24067 22.4546C3.49376 22.7077 3.90769 22.7077 4.16078 22.4546L4.56525 22.0501C5.2228 21.3925 6.29429 21.3925 6.95185 22.0501C7.60941 22.7077 7.60941 23.7791 6.95185 24.4367L6.54738 24.8412C6.29429 25.0943 6.29429 25.5082 6.54738 25.7613L9.31244 28.5263C9.94398 29.1579 10.9753 29.1579 11.6068 28.5263L28.5283 11.6048C29.1598 10.9733 29.1598 9.94203 28.5283 9.31049L25.7632 6.54543C25.5101 6.29234 25.0962 6.29234 24.8431 6.54543L24.4221 6.96646C23.7645 7.62402 22.6931 7.62402 22.0355 6.96646C21.3779 6.30653 21.3779 5.23741 22.0379 4.57985ZM25.3044 7.92441L27.6106 10.2306C27.7359 10.356 27.7359 10.5594 27.6106 10.6847L23.7551 14.5402L22.8988 13.684C22.6457 13.4309 22.2318 13.4309 21.9787 13.684C21.7256 13.9371 21.7256 14.351 21.9787 14.6041L22.835 15.4603L10.6891 27.6062C10.5637 27.7316 10.3603 27.7316 10.2349 27.6062L7.92873 25.3C9.04043 24.1316 9.02151 22.2748 7.87433 21.1276C6.72715 19.9804 4.87274 19.9615 3.7019 21.0732L1.39572 18.7694C1.27036 18.644 1.27036 18.4406 1.39572 18.3153L13.5416 6.16934L14.3979 7.02559C14.651 7.27868 15.0649 7.27868 15.318 7.02559C15.5711 6.7725 15.5711 6.35857 15.318 6.10548L14.4617 5.24924L18.3172 1.39376C18.4426 1.2684 18.646 1.2684 18.7714 1.39376L21.0775 3.69995C19.9516 4.86842 19.9658 6.73466 21.1178 7.88657C22.2697 9.03848 24.1359 9.0503 25.3044 7.92441Z" fill="white"/>
<path d="M16.0891 7.79432C15.836 8.04741 15.836 8.46134 16.0891 8.71443L17.3427 9.96805C17.5958 10.2211 18.0097 10.2211 18.2628 9.96805C18.5159 9.71496 18.5159 9.30103 18.2628 9.04794L17.0092 7.79432C16.7561 7.54123 16.3422 7.54123 16.0891 7.79432Z" fill="white"/>
<path d="M19.0339 10.7391C18.7808 10.9922 18.7808 11.4062 19.0339 11.6593L20.2875 12.9129C20.5406 13.166 20.9545 13.166 21.2076 12.9129C21.4607 12.6598 21.4607 12.2458 21.2076 11.9928L19.954 10.7391C19.6986 10.4861 19.287 10.4861 19.0339 10.7391Z" fill="white"/>
</svg>
