<svg width="24" height="29" viewBox="0 0 24 29" fill="none" xmlns="http://www.w3.org/2000/svg">
<path d="M19.6701 26.8261C26.0865 20.3109 21.709 13.15 19.1304 12.0348C19.9699 13.5022 19.4902 14.7935 18.5307 15.6739C17.3314 16.7891 13.9133 16.4957 14.0932 14.0891C14.2731 12.1522 15.6523 11.8587 16.312 8.63043C17.0316 4.93261 13.3736 2.17391 9.89551 1C12.7139 7.22174 6.47741 7.75 5.75781 13.3261C4.25864 12.4457 3.35913 10.9783 3.35913 10.9783C-1.55814 20.0761 1.9799 25.4761 6.95714 28M8.99601 27.413C5.5779 23.2457 9.17591 21.1326 8.33638 17.4348C10.3752 18.55 10.9749 20.0174 11.3947 21.5435C11.8144 23.0696 13.2537 24.4196 14.7528 24.4196C16.252 24.4196 16.9716 23.3043 17.5113 21.7783C18.7706 24.713 17.3914 26.2978 16.192 27.413" stroke="#807D9B" stroke-width="1.59959" stroke-miterlimit="10" stroke-linecap="round" stroke-linejoin="round"/>
</svg>
