<svg width="26" height="29" viewBox="0 0 26 29" fill="none" xmlns="http://www.w3.org/2000/svg">
<path d="M17.0302 4.50865H14.6082L17.7228 1.45736C18.0626 1.12449 18.0626 0.582518 17.7228 0.249651C17.383 -0.0832168 16.8298 -0.0832168 16.49 0.249651L12.5041 4.15444L8.57923 0.309396C8.23945 -0.0234714 7.68622 -0.0234714 7.34644 0.309396C7.00666 0.642263 7.00666 1.18424 7.34644 1.51711L10.4001 4.50865H7.97808C3.57836 4.50865 0.00195312 8.01656 0.00195312 12.3225V21.1862C0.00195312 25.4964 3.57836 29 7.97808 29H17.0258C21.4255 29 25.002 25.4964 25.002 21.1862V12.3225C25.0063 8.01656 21.4299 4.50865 17.0302 4.50865ZM23.2638 21.1904C23.2638 24.5575 20.4672 27.2973 17.0302 27.2973H7.97808C4.54107 27.2973 1.74442 24.5575 1.74442 21.1904V12.3225C1.74442 8.95541 4.54107 6.21566 7.97808 6.21566H17.0258C20.4628 6.21566 23.2595 8.95541 23.2595 12.3225V21.1904H23.2638Z" fill="white"/>
<path d="M19.0079 15.6682L13.3449 17.8831L13.7936 14.7422C13.8371 14.4392 13.7108 14.1405 13.4668 13.9527C13.2229 13.7649 12.8918 13.718 12.6043 13.8332L4.94619 16.8546C4.50187 17.0296 4.28406 17.5289 4.46266 17.9642C4.64126 18.3995 5.15093 18.6128 5.59526 18.4379L11.8551 15.967L11.4064 19.1036C11.3628 19.4066 11.4891 19.7053 11.7331 19.8931C11.8899 20.0126 12.0772 20.0766 12.2733 20.0766C12.3822 20.0766 12.4911 20.0553 12.5956 20.0168L19.6526 17.26C20.1013 17.0851 20.3191 16.59 20.1405 16.1505C19.9619 15.7066 19.4566 15.4933 19.0079 15.6682Z" fill="white"/>
</svg>
