<svg width="23" height="15" viewBox="0 0 23 15" fill="none" xmlns="http://www.w3.org/2000/svg">
<path d="M22.8622 12.7334C22.8333 12.6748 22.8086 12.6245 22.7839 12.5826C22.3925 11.8664 21.6426 10.9827 20.5385 9.93988L20.5138 9.91475L20.5014 9.90218L20.489 9.88962H20.4767C19.974 9.40379 19.6568 9.07711 19.5249 8.90958C19.2818 8.59128 19.2283 8.2688 19.3601 7.94212C19.4549 7.69502 19.8092 7.17149 20.419 6.37574C20.7404 5.95274 20.9958 5.61349 21.1853 5.35802C22.5408 3.5236 23.13 2.35091 22.9487 1.84414L22.8787 1.72687C22.8333 1.65567 22.7097 1.58866 22.5161 1.53003C22.3183 1.47139 22.067 1.45883 21.7621 1.50071L18.3754 1.52584C18.3219 1.5049 18.2436 1.50909 18.1406 1.53003C18.0376 1.55516 17.9881 1.56772 17.9881 1.56772L17.9305 1.59704L17.8851 1.63473C17.8439 1.65986 17.8027 1.70174 17.7574 1.76038C17.7121 1.81901 17.6709 1.89021 17.6421 1.96979C17.2713 2.93306 16.8551 3.82933 16.3813 4.65859C16.0929 5.1528 15.8251 5.57999 15.582 5.94436C15.3389 6.30873 15.1371 6.57259 14.9723 6.7443C14.8075 6.91602 14.6591 7.05423 14.5232 7.15474C14.3913 7.25945 14.2883 7.30133 14.2183 7.28457C14.1482 7.26782 14.0823 7.25107 14.0164 7.2385C13.9052 7.16731 13.8186 7.07098 13.7527 6.94533C13.6868 6.81969 13.6415 6.66472 13.6168 6.48045C13.592 6.29198 13.5797 6.13283 13.5756 5.99462C13.5714 5.8606 13.5756 5.66794 13.5797 5.42084C13.5879 5.17374 13.592 5.00621 13.592 4.91826C13.592 4.61671 13.5962 4.28584 13.6085 3.92985C13.6209 3.57386 13.6291 3.29325 13.6374 3.08803C13.6456 2.88281 13.6497 2.66083 13.6497 2.43048C13.6497 2.20013 13.6374 2.02004 13.6085 1.88602C13.5797 1.75619 13.5385 1.62636 13.4849 1.5049C13.4313 1.38344 13.3489 1.28711 13.2418 1.21591C13.1347 1.1489 13.0029 1.09446 12.8463 1.05258C12.4302 0.956248 11.9028 0.90599 11.2601 0.897613C9.80157 0.880861 8.86631 0.977189 8.45018 1.1866C8.28538 1.27455 8.13706 1.39182 8.00522 1.54678C7.86513 1.72268 7.84453 1.81901 7.94754 1.83576C8.41722 1.90696 8.75095 2.07868 8.94871 2.35091L9.01875 2.49331C9.07232 2.59801 9.13 2.78229 9.18356 3.04196C9.23712 3.30581 9.2742 3.5948 9.29068 3.9131C9.32776 4.49525 9.32776 4.99365 9.29068 5.40827C9.24948 5.8229 9.2124 6.14539 9.17944 6.37574C9.14236 6.60609 9.09292 6.79456 9.01875 6.93696C8.94871 7.07935 8.89927 7.16731 8.87867 7.20081C8.85395 7.23432 8.83747 7.25107 8.82099 7.25945C8.71799 7.29714 8.61499 7.31808 8.50375 7.31808C8.3925 7.31808 8.26066 7.26363 8.1041 7.15055C7.94754 7.03747 7.78273 6.8867 7.61793 6.68985C7.44901 6.49301 7.25948 6.22078 7.04524 5.86897C6.83512 5.51717 6.61263 5.10254 6.38603 4.62509L6.19651 4.27747C6.07702 4.05549 5.91634 3.72882 5.71446 3.30162C5.50845 2.87443 5.33129 2.46399 5.17473 2.06193C5.11293 1.8944 5.01817 1.76875 4.89044 1.6808L4.83276 1.64311C4.79568 1.6096 4.72976 1.5761 4.64324 1.54259C4.55672 1.5049 4.46608 1.47977 4.37131 1.46302L1.14942 1.48815C0.819814 1.48815 0.597331 1.56353 0.477849 1.71431L0.432528 1.78551C0.399567 1.83995 0.387207 1.90277 0.387207 1.99073C0.387207 2.07868 0.411927 2.18757 0.457248 2.31322C0.926936 3.43983 1.44194 4.52038 1.99403 5.56742C2.54612 6.61447 3.02817 7.4521 3.43606 8.0887C3.84395 8.72531 4.26007 9.3284 4.68444 9.89381C5.10881 10.4592 5.38897 10.8236 5.52493 10.9827C5.6609 11.1419 5.77214 11.2633 5.85042 11.3429L6.14294 11.6319C6.33247 11.8246 6.60851 12.0507 6.97108 12.3188C7.33777 12.5868 7.74153 12.8507 8.18238 13.1103C8.62735 13.37 9.14236 13.5794 9.72741 13.7427C10.3166 13.9061 10.8893 13.9731 11.4455 13.9396H12.7969C13.0729 13.9144 13.2789 13.8265 13.419 13.6757L13.4643 13.6171C13.4973 13.571 13.5261 13.4956 13.5508 13.3951C13.5797 13.2946 13.592 13.1857 13.592 13.0643C13.5838 12.7208 13.6085 12.4109 13.6703 12.1387C13.728 11.8622 13.7939 11.657 13.8722 11.5188C13.9464 11.3806 14.0329 11.2633 14.1235 11.167C14.2183 11.0707 14.2842 11.012 14.3254 10.9953C14.3625 10.9744 14.3954 10.9618 14.4202 10.9534C14.6097 10.8906 14.8281 10.9534 15.0835 11.1377C15.3389 11.3262 15.5779 11.5565 15.8004 11.8329C16.0229 12.1093 16.2907 12.4151 16.6079 12.7585C16.921 13.1019 17.1971 13.3574 17.4319 13.525L17.6668 13.6673C17.8233 13.7637 18.0293 13.8516 18.2807 13.9312C18.532 14.0108 18.7504 14.0317 18.9399 13.9898L21.9517 13.9438C22.2483 13.9438 22.4831 13.8935 22.6438 13.793C22.8086 13.6925 22.9075 13.5836 22.9363 13.4621C22.9693 13.3407 22.9693 13.2066 22.9405 13.0559C22.9158 12.9009 22.8869 12.7962 22.8622 12.7334Z" fill="white"/>
</svg>
