<svg width="20" height="20" viewBox="0 0 20 20" fill="none" xmlns="http://www.w3.org/2000/svg">
<path d="M10 0C15.5282 0 20 4.47183 20 10C20 15.5282 15.5282 20 10 20C4.47183 20 0 15.5282 0 10C0 4.47183 4.47183 0 10 0ZM5.6338 2.00704C5.24648 2.78169 4.92958 3.55634 4.71831 4.40141C4.08451 6.97183 4.43662 9.6831 5.70423 12.007C7.1831 11.6549 8.48592 10.9507 9.54225 9.92958C8.38028 7.85211 8.06338 5.3169 8.66197 2.8169C8.83803 2.14789 9.0493 1.51408 9.3662 0.880282C8.02817 0.985915 6.76056 1.37324 5.6338 2.00704ZM19.1197 10C19.1197 5.03521 15.1408 0.985915 10.1761 0.880282C9.82394 1.5493 9.54225 2.25352 9.3662 2.99296C9.22535 3.52113 9.15493 4.0493 9.11972 4.54225C12.6056 4.43662 16.5141 6.72535 18.2394 9.0493C18.5563 9.47183 18.838 9.92958 19.0845 10.3873C19.1197 10.2817 19.1197 10.1408 19.1197 10ZM17.4296 15.2817C18.169 14.2606 18.6972 13.0282 18.9437 11.7254C18.6268 10.9507 18.169 10.1761 17.6761 9.50704C16.0211 7.28873 12.2535 5.10563 9.08451 5.28169C9.08451 6.83099 9.47183 8.34507 10.2113 9.6831C12.6056 10.0704 14.7887 11.4437 16.3732 13.5563C16.7958 14.0845 17.1479 14.6831 17.4296 15.2817ZM10 19.1197C12.7817 19.1197 15.2465 17.8873 16.9366 15.9507C16.6549 15.2465 16.2676 14.5775 15.8099 13.9789C15.5282 13.6268 15.2465 13.2746 14.9296 12.9577C13.2042 15.2465 9.08451 17.1831 5.80986 17.1831C5.28169 17.1831 4.75352 17.1479 4.22535 17.0775C5.77465 18.3451 7.8169 19.1197 10 19.1197ZM3.27465 16.162C4.11972 16.3732 4.96479 16.4789 5.80986 16.4789C9.11972 16.4789 12.9577 14.4014 14.4014 12.4648C13.169 11.3732 11.6901 10.669 10.1056 10.3873C8.34507 12.0775 5.9507 12.993 3.34507 12.993C2.64084 12.993 1.97183 12.9225 1.30282 12.7817C1.72535 14.0493 2.39437 15.2113 3.27465 16.162ZM1.09155 12.007C1.83099 12.1831 2.57042 12.2887 3.34507 12.2887C3.90845 12.2887 4.43662 12.2535 4.96479 12.1479C3.69718 9.71831 3.34507 6.90141 4.01408 4.22535C4.15493 3.69718 4.33099 3.20423 4.50704 2.71127C2.28873 4.3662 0.84507 7.04225 0.84507 10C0.880281 10.669 0.950705 11.338 1.09155 12.007Z" fill="white"/>
</svg>
